{
.appVersion = "983";
DisplayStrings = (
"0123456789OWHNHBPRUAMERICANFR\012/zero.osf/one.osf/two.osf/three.osf/four.osf/five.osf/six.osf/seven.osf/nine.osf nonumerals~\012ooooooot\012",
/Schwa,
RVAWRNHHXHOHOHNHSUPKYyPERgQUEENOBHCEFOBRK,
/IJ,
"~/approxequal =",
"~",
$S,
"HOHOH/lira H",
"/franc 1234",
/colonsign,
"fj1010/integral 98650",
t/pi,
"\U00AB",
"TRIALS & TURBULATIONS \U00BB that-a-way"
);
classes = (
{
automatic = 1;

glyphs = (
{
color = 4;
glyphname = A;
lastChange = "2017-07-14 19:33:47 +0000";
layers = (
{
anchors = (
{
name = bottom;
position = "{276, 0}";
},
{
name = ogonek;
position = "{567, 5}";
},
{
name = top;
position = "{276, 750}";
}
);
background = {
paths = (
{
closed = 1;
nodes = (
"143 0 LINE",
"175 161 LINE",
"352 161 LINE",
"389 -13 LINE",
"541 2 LINE",
"377 754 LINE",
"169 737 LINE",
"12 0 LINE"
);
},
{
closed = 1;
nodes = (
"258 640 LINE",
"327 281 LINE",
"202 281 LINE"
);
}
);
};
guideLines = (
{
angle = 7;
position = "{389, -16}";
},
{
angle = -78.4216;
position = "{249, 615}";
},
{
angle = 7;
position = "{169, 737}";
}
);
layerId = "849A9C4C-BF7C-40C5-8614-1FD725A2A379";
paths = (
{
closed = 1;
nodes = (
"165 161 LINE",
"358 161 LINE",
"358 277 LINE",
"165 277 LINE"
);
},
{
closed = 1;
nodes = (
"389 -16 LINE",
"532 1 LINE",
"359 760 LINE",
"169 737 LINE",
"22 0 LINE",
"159 0 LINE",
"198 220 LINE",
"191 224 LINE",
"249 554 LINE SMOOTH",
"253 578 OFFCURVE",
"257 598 OFFCURVE",
"261 623 CURVE",
"265 598 OFFCURVE",
"269 578 OFFCURVE",
"274 555 CURVE SMOOTH",
"342 224 LINE",
"334 219 LINE"
);
}
);
width = 552;
}
);
unicode = 0041;
},
{
color = 4;
glyphname = AE;
lastChange = "2016-08-01 14:02:11 +0000";
layers = (
{
anchors = (
{
name = bottom;
position = "{386, 0}";
},
{
name = top;
position = "{476, 750}";
}
);
layerId = "849A9C4C-BF7C-40C5-8614-1FD725A2A379";
paths = (
{
closed = 1;
nodes = (
"156 0 LINE",
"220 161 LINE",
"383 161 LINE",
"375 0 LINE",
"735 0 LINE",
"747 117 LINE",
"539 117 LINE",
"539 328 LINE",
"662 328 LINE",
"663 454 LINE",
"539 454 LINE",
"539 633 LINE",
"728 633 LINE",
"739 750 LINE",
"419 750 LINE",
"319 741 LINE",
"-3 0 LINE"
);
},
{
closed = 1;
nodes = (
"395 640 LINE",
"384 281 LINE",
"268 281 LINE"
);
}
);
width = 771;
}
);
unicode = 00C6;
},
{
color = 4;
glyphname = B;
lastChange = "2017-07-13 03:51:56 +0000";
layers = (
{
anchors = (
{
name = bottom;
position = "{276, 0}";
},
{
name = top;
position = "{276, 750}";
}
);
background = {
components = (
{
name = R;
transform = "{1, 0, 0, 1, -5, 23}";
}
);
paths = (
{
closed = 1;
nodes = (
"190 0 LINE SMOOTH",
"348 0 OFFCURVE",
"521 35 OFFCURVE",
"521 210 CURVE SMOOTH",
"521 329 OFFCURVE",
"470 372 OFFCURVE",
"417 399 CURVE",
"467 424 OFFCURVE",
"498 484 OFFCURVE",
"498 557 CURVE SMOOTH",
"498 664 OFFCURVE",
"431 750 OFFCURVE",
"238 750 CURVE SMOOTH",
"70 750 LINE",
"70 0 LINE"
);
},
{
closed = 1;
nodes = (
"217 338 LINE",
"249 338 LINE SMOOTH",
"318 338 OFFCURVE",
"380 326 OFFCURVE",
"380 230 CURVE SMOOTH",
"380 186 OFFCURVE",
"351 117 OFFCURVE",
"244 117 CURVE SMOOTH",
"217 117 LINE"
);
},
{
closed = 1;
nodes = (
"212 633 LINE",
"241 633 LINE SMOOTH",
"306 633 OFFCURVE",
"362 617 OFFCURVE",
"362 542 CURVE SMOOTH",
"362 457 OFFCURVE",
"315 445 OFFCURVE",
"247 445 CURVE SMOOTH",
"212 445 LINE"
);
}
);
};
layerId = "849A9C4C-BF7C-40C5-8614-1FD725A2A379";
paths = (
{
closed = 1;
nodes = (
"256 0 LINE SMOOTH",
"427 0 OFFCURVE",
"527 78 OFFCURVE",
"527 223 CURVE SMOOTH",
"527 301 OFFCURVE",
"487 361 OFFCURVE",
"410 388 CURVE",
"475 418 OFFCURVE",
"505 480 OFFCURVE",
"505 548 CURVE SMOOTH",
"505 678 OFFCURVE",
"431 750 OFFCURVE",
"254 750 CURVE SMOOTH",
"70 750 LINE",
"70 0 LINE"
);
},
{
closed = 1;
nodes = (
"218 324 LINE",
"256 324 LINE SMOOTH",
"326 324 OFFCURVE",
"377 293 OFFCURVE",
"377 221 CURVE SMOOTH",
"377 146 OFFCURVE",
"326 117 OFFCURVE",
"256 117 CURVE SMOOTH",
"218 117 LINE"
);
},
{
closed = 1;
nodes = (
"218 635 LINE",
"254 635 LINE SMOOTH",
"319 635 OFFCURVE",
"361 607 OFFCURVE",
"361 537 CURVE SMOOTH",
"361 472 OFFCURVE",
"315 435 OFFCURVE",
"265 435 CURVE SMOOTH",
"218 435 LINE"
);
}
);
width = 551;
}
);
unicode = 0042;
},
{
color = 4;
glyphname = C;
lastChange = "2017-07-13 03:30:43 +0000";
layers = (
{
anchors = (
{
name = bottom;
position = "{287, 0}";
},
{
name = top;
position = "{279, 750}";
}
);
background = {
components = (
{
name = O;
transform = "{1, 0, 0, 1, -1, 0}";
}
);
paths = (
{
closed = 1;
nodes = (
"119 764 OFFCURVE",
"38 600 OFFCURVE",
"38 383 CURVE SMOOTH",
"38 141 OFFCURVE",
"119 -14 OFFCURVE",
"294 -14 CURVE SMOOTH",
"434 -14 OFFCURVE",
"509 102 OFFCURVE",
"512 243 CURVE",
"388 269 LINE",
"384 195 OFFCURVE",
"360 108 OFFCURVE",
"291 108 CURVE SMOOTH",
"215 108 OFFCURVE",
"186 228 OFFCURVE",
"186 383 CURVE SMOOTH",
"186 538 OFFCURVE",
"215 640 OFFCURVE",
"291 640 CURVE SMOOTH",
"355 640 OFFCURVE",
"386 549 OFFCURVE",
"388 480 CURVE",
"515 507 LINE",
"509 637 OFFCURVE",
"433 764 OFFCURVE",
"294 764 CURVE SMOOTH"
);
}
);
};
guideLines = (
{
position = "{379, 445}";
},
{
angle = -12;
position = "{512, 243}";
},
{
angle = 12;
position = "{511, 510}";
},
{
position = "{174, 252}";
}
);
layerId = "849A9C4C-BF7C-40C5-8614-1FD725A2A379";
paths = (
{
closed = 1;
nodes = (
"441 -14 OFFCURVE",
"509 109 OFFCURVE",
"515 240 CURVE",
"378 255 LINE",
"373 187 OFFCURVE",
"355 109 OFFCURVE",
"293 109 CURVE SMOOTH",
"218 109 OFFCURVE",
"193 203 OFFCURVE",
"193 375 CURVE SMOOTH",
"193 543 OFFCURVE",
"217 640 OFFCURVE",
"292 640 CURVE SMOOTH",
"355 640 OFFCURVE",
"373 562 OFFCURVE",
"377 482 CURVE",
"511 510 LINE",
"509 656 OFFCURVE",
"434 764 OFFCURVE",
"292 764 CURVE SMOOTH",
"129 764 OFFCURVE",
"40 628 OFFCURVE",
"40 375 CURVE SMOOTH",
"40 144 OFFCURVE",
"109 -14 OFFCURVE",
"293 -14 CURVE SMOOTH"
);
}
);
width = 558;
}
);
leftMetricsKey = O;
unicode = 0043;
},
{
color = 4;
glyphname = D;
lastChange = "2017-07-01 17:22:19 +0000";
layers = (
{
anchors = (
{
name = bottom;
position = "{277, 0}";
},
{
name = center;
position = "{277, 375}";
},
{
name = top;
position = "{234, 750}";
}
);
background = {
components = (
{
name = O;
transform = "{1, 0, 0, 1, 0, 1}";
}
);
paths = (
{
closed = 1;
nodes = (
"250 0 LINE SMOOTH",
"446 0 OFFCURVE",
"518 182 OFFCURVE",
"518 372 CURVE SMOOTH",
"518 626 OFFCURVE",
"421 750 OFFCURVE",
"224 750 CURVE SMOOTH",
"70 750 LINE",
"70 0 LINE"
);
},
{
closed = 1;
nodes = (
"216 633 LINE",
"233 633 LINE SMOOTH",
"381 633 OFFCURVE",
"372 440 OFFCURVE",
"372 344 CURVE SMOOTH",
"372 240 OFFCURVE",
"349 117 OFFCURVE",
"237 117 CURVE SMOOTH",
"216 117 LINE"
);
}
);
};
layerId = "849A9C4C-BF7C-40C5-8614-1FD725A2A379";
paths = (
{
closed = 1;
nodes = (
"229 0 LINE SMOOTH",
"431 0 OFFCURVE",
"524 182 OFFCURVE",
"524 376 CURVE SMOOTH",
"524 626 OFFCURVE",
"425 750 OFFCURVE",
"229 750 CURVE SMOOTH",
"70 750 LINE",
"70 0 LINE"
);
},
{
closed = 1;
nodes = (
"217 627 LINE",
"231 627 LINE SMOOTH",
"329 627 OFFCURVE",
"368 546 OFFCURVE",
"368 376 CURVE SMOOTH",
"368 227 OFFCURVE",
"340 124 OFFCURVE",
"235 124 CURVE SMOOTH",
"217 124 LINE"
);
}
);
width = 564;
}
);
leftMetricsKey = H;
unicode = 0044;
},
{
color = 4;
glyphname = Eth;
lastChange = "2016-07-29 15:34:05 +0000";
layers = (
{
layerId = "849A9C4C-BF7C-40C5-8614-1FD725A2A379";
paths = (
{
closed = 1;
nodes = (
"251 0 LINE SMOOTH",
"448 0 OFFCURVE",
"520 182 OFFCURVE",
"520 372 CURVE SMOOTH",
"520 626 OFFCURVE",
"423 750 OFFCURVE",
"226 750 CURVE SMOOTH",
"72 750 LINE",
"72 0 LINE"
);
},
{
closed = 1;
nodes = (
"284 328 LINE",
"284 422 LINE",
"2 422 LINE",
"2 328 LINE"
);
},
{
closed = 1;
nodes = (
"218 633 LINE",
"235 633 LINE SMOOTH",
"383 633 OFFCURVE",
"374 440 OFFCURVE",
"374 344 CURVE SMOOTH",
"374 240 OFFCURVE",
"351 117 OFFCURVE",
"239 117 CURVE SMOOTH",
"218 117 LINE"
);
}
);
width = 556;
}
);
unicode = 00D0;
},
{
color = 4;
glyphname = E;
lastChange = "2017-07-13 03:33:03 +0000";
layers = (
{
anchors = (
{
name = bottom;
position = "{242, 0}";
},
{
name = ogonek;
position = "{459, 0}";
},
{
name = top;
position = "{242, 750}";
},
{
name = topleft;
position = "{10, 750}";
}
);
background = {
components = (
{
name = E.ori;
},
{
name = F;
}
);
};
guideLines = (
{
position = "{447, 622}";
},
{
position = "{405, 443}";
},
{
angle = 83;
position = "{375, 438}";
}
);
layerId = "849A9C4C-BF7C-40C5-8614-1FD725A2A379";
paths = (
{
closed = 1;
nodes = (
"446 0 LINE",
"460 118 LINE",
"217 118 LINE",
"217 311 LINE",
"377 311 LINE",
"392 429 LINE",
"217 429 LINE",
"217 632 LINE",
"438 632 LINE",
"452 750 LINE",
"70 750 LINE",
"70 0 LINE"
);
}
);
width = 483;
}
);
unicode = 0045;
},
{
color = 4;
glyphname = F;
lastChange = "2017-07-13 03:32:39 +0000";
layers = (
{
anchors = (
{
name = bottom;
position = "{230, 0}";
},
{
name = top;
position = "{230, 750}";
}
);
background = {
components = (
{
name = F.ori;
}
);
};
guideLines = (
{
position = "{7, 438}";
},
{
angle = 83;
position = "{360, 311}";
},
{
angle = 3;
position = "{217, 0}";
}
);
layerId = "849A9C4C-BF7C-40C5-8614-1FD725A2A379";
paths = (
{
closed = 1;
nodes = (
"217 0 LINE",
"217 311 LINE",
"370 311 LINE",
"385 430 LINE",
"217 430 LINE",
"217 632 LINE",
"437 632 LINE",
"451 750 LINE",
"70 750 LINE",
"70 0 LINE"
);
}
);
width = 460;
}
);
unicode = 0046;
},
{
color = 4;
glyphname = G;
lastChange = "2017-07-03 20:33:00 +0000";
layers = (
{
anchors = (
{
name = bottom;
position = "{276, 0}";
},
{
name = top;
position = "{276, 750}";
}
);
background = {
components = (
{
name = C;
transform = "{1, 0, 0, 1, -10, 0}";
}
);
paths = (
{
closed = 1;
nodes = (
"354 -14 OFFCURVE",
"406 61 OFFCURVE",
"424 121 CURVE",
"443 -12 LINE",
"507 -4 LINE",
"507 375 LINE",
"300 375 LINE",
"286 263 LINE",
"370 263 LINE",
"369 179 OFFCURVE",
"343 111 OFFCURVE",
"281 111 CURVE SMOOTH",
"195 111 OFFCURVE",
"178 269 OFFCURVE",
"178 374 CURVE SMOOTH",
"178 510 OFFCURVE",
"206 640 OFFCURVE",
"286 640 CURVE SMOOTH",
"355 640 OFFCURVE",
"372 568 OFFCURVE",
"377 481 CURVE",
"503 507 LINE",
"502 662 OFFCURVE",
"424 764 OFFCURVE",
"283 764 CURVE SMOOTH",
"105 764 OFFCURVE",
"30 594 OFFCURVE",
"30 374 CURVE SMOOTH",
"30 123 OFFCURVE",
"112 -14 OFFCURVE",
"269 -14 CURVE SMOOTH"
);
}
);
};
guideLines = (
{
angle = 83;
position = "{300, 375}";
},
{
angle = 7;
position = "{443, -12}";
}
);
layerId = "849A9C4C-BF7C-40C5-8614-1FD725A2A379";
paths = (
{
closed = 1;
nodes = (
"356 -14 OFFCURVE",
"411 52 OFFCURVE",
"423 99 CURVE",
"443 -17 LINE",
"507 -9 LINE",
"507 374 LINE",
"300 374 LINE",
"286 262 LINE",
"399 262 LINE",
"389 193 OFFCURVE",
"360 111 OFFCURVE",
"291 111 CURVE SMOOTH",
"196 111 OFFCURVE",
"178 269 OFFCURVE",
"178 374 CURVE SMOOTH",
"178 540 OFFCURVE",
"206 640 OFFCURVE",
"286 640 CURVE SMOOTH",
"355 640 OFFCURVE",
"374 568 OFFCURVE",
"379 495 CURVE",
"505 521 LINE",
"504 662 OFFCURVE",
"428 764 OFFCURVE",
"287 764 CURVE SMOOTH",
"109 764 OFFCURVE",
"29 614 OFFCURVE",
"29 374 CURVE SMOOTH",
"29 123 OFFCURVE",
"114 -14 OFFCURVE",
"279 -14 CURVE SMOOTH"
);
}
);
width = 553;
}
);
unicode = 0047;
},
{
color = 4;
glyphname = H;
lastChange = "2017-07-06 03:45:48 +0000";
layers = (
{
anchors = (
{
name = bottom;
position = "{297, 0}";
},
{
name = center;
position = "{297, 375}";
},
{
name = top;
position = "{297, 750}";
},
{
name = topleft;
position = "{20, 750}";
}
);
background = {
paths = (
{
closed = 1;
nodes = (
"227 6 LINE",
"227 312 LINE",
"367 312 LINE",
"367 -6 LINE",
"514 6 LINE",
"514 750 LINE",
"367 738 LINE",
"367 446 LINE",
"227 446 LINE",
"227 750 LINE",
"80 738 LINE",
"80 -6 LINE"
);
}
);
};
guideLines = (
{
position = "{-243, 761}";
},
{
angle = 3;
position = "{524, 0}";
},
{
angle = 3;
position = "{217, 0}";
},
{
angle = 7;
position = "{217, 754}";
},
{
angle = 7;
position = "{524, 754}";
}
);
layerId = "849A9C4C-BF7C-40C5-8614-1FD725A2A379";
paths = (
{
closed = 1;
nodes = (
"217 0 LINE",
"217 309 LINE",
"377 309 LINE",
"377 0 LINE",
"524 0 LINE",
"524 750 LINE",
"377 750 LINE",
"377 431 LINE",
"217 431 LINE",
"217 750 LINE",
"70 750 LINE",
"70 0 LINE"
);
}
);
width = 594;
}
);
unicode = 0048;
},
{
color = 4;
glyphname = Hbar;
lastChange = "2017-07-13 13:04:58 +0000";
layers = (
{
background = {
components = (
{
name = H;
transform = "{1, 0, 0, 1, 12, 0}";
}
);
};
components = (
{
name = H;
transform = "{1, 0, 0, 1, 2, 0}";
}
);
layerId = "849A9C4C-BF7C-40C5-8614-1FD725A2A379";
paths = (
{
closed = 1;
nodes = (
"578 567 LINE",
"578 656 LINE",
"20 656 LINE",
"20 567 LINE"
);
}
);
width = 598;
}
);
unicode = 0126;
},
{
color = 4;
glyphname = I;
lastChange = "2017-07-03 16:12:31 +0000";
layers = (
{
anchors = (
{
name = bottom;
position = "{144, 0}";
},
{
name = ogonek;
position = "{292, 5}";
},
{
name = top;
position = "{144, 750}";
},
{
name = topleft;
position = "{10, 750}";
}
);
background = {
paths = (
{
closed = 1;
nodes = (
"217 6 LINE",
"217 750 LINE",
"70 738 LINE",
"70 -6 LINE"
);
}
);
};
guideLines = (
{
angle = 7;
position = "{217, 757}";
}
);
layerId = "849A9C4C-BF7C-40C5-8614-1FD725A2A379";
paths = (
{
closed = 1;
nodes = (
"217 0 LINE",
"217 750 LINE",
"70 750 LINE",
"70 0 LINE"
);
}
);
width = 287;
}
);
unicode = 0049;
},
{
color = 4;
glyphname = J;
lastChange = "2017-07-04 20:36:16 +0000";
layers = (
{
anchors = (
{
name = bottom;
position = "{187, 0}";
},
{
name = top;
position = "{218, 750}";
}
);
guideLines = (
{
angle = 83;
position = "{13, 2}";
},
{
angle = 7;
position = "{287, 758}";
}
);
layerId = "849A9C4C-BF7C-40C5-8614-1FD725A2A379";
paths = (
{
closed = 1;
nodes = (
"232 -14 OFFCURVE",
"287 60 OFFCURVE",
"287 176 CURVE SMOOTH",
"287 750 LINE",
"141 750 LINE",
"141 199 LINE SMOOTH",
"141 147 OFFCURVE",
"132 110 OFFCURVE",
"84 110 CURVE SMOOTH",
"62 110 OFFCURVE",
"47 114 OFFCURVE",
"28 124 CURVE",
"13 5 LINE",
"47 -10 OFFCURVE",
"75 -14 OFFCURVE",
"115 -14 CURVE SMOOTH"
);
}
);
width = 353;
}
);
unicode = 004A;
},
{
color = 4;
glyphname = K;
lastChange = "2017-07-13 13:09:47 +0000";
layers = (
{
anchors = (
{
name = bottom;
position = "{281, 0}";
},
{
name = top;
position = "{281, 750}";
}
);
background = {
components = (
{
name = R;
}
);
};
guideLines = (
{
angle = 160;
position = "{397, 763}";
}
);
layerId = "849A9C4C-BF7C-40C5-8614-1FD725A2A379";
paths = (
{
closed = 1;
nodes = (
"537 750 LINE",
"397 750 LINE",
"217 439 LINE",
"217 750 LINE",
"70 750 LINE",
"70 0 LINE",
"217 0 LINE",
"217 245 LINE",
"276 336 LINE",
"289 314 LINE"
);
},
{
closed = 1;
nodes = (
"416 -18 LINE",
"553 32 LINE",
"357 438 LINE",
"257 322 LINE"
);
}
);
width = 560;
}
);
unicode = 004B;
},
{
color = 4;
glyphname = L;
lastChange = "2017-06-26 12:48:33 +0000";
layers = (
{
anchors = (
{
name = bottom;
position = "{234, 0}";
},
{
name = center;
position = "{365, 375}";
},
{
name = top;
position = "{124, 750}";
},
{
name = topright;
position = "{459, 750}";
}
);
guideLines = (
{
angle = 7;
position = "{216, 750}";
},
{
angle = 83;
position = "{462, 123}";
}
);
layerId = "849A9C4C-BF7C-40C5-8614-1FD725A2A379";
paths = (
{
closed = 1;
nodes = (
"447 0 LINE",
"462 123 LINE",
"216 123 LINE",
"216 750 LINE",
"70 750 LINE",
"70 0 LINE"
);
}
);
width = 469;
}
);
unicode = 004C;
},
{
color = 4;
glyphname = Lslash;
lastChange = "2017-07-01 00:59:07 +0000";
layers = (
{
background = {
paths = (
{
closed = 1;
nodes = (
"453 0 LINE",
"476 117 LINE",
"222 117 LINE",
"222 360 LINE",
"327 375 LINE",
"327 491 LINE",
"222 476 LINE",
"222 750 LINE",
"76 738 LINE",
"76 455 LINE",
"-1 444 LINE",
"-1 328 LINE",
"76 339 LINE",
"76 0 LINE"
);
}
);
};
components = (
{
name = L;
transform = "{1, 0, 0, 1, 6, 0}";
}
);
layerId = "849A9C4C-BF7C-40C5-8614-1FD725A2A379";
paths = (
{
closed = 1;
nodes = (
"327 375 LINE",
"327 491 LINE",
"-1 444 LINE",
"-1 328 LINE"
);
}
);
width = 481;
}
);
unicode = 0141;
},
{
color = 4;
glyphname = M;
lastChange = "2017-07-14 19:31:59 +0000";
layers = (
{
anchors = (
{
name = bottom;
position = "{400, 0}";
},
{
name = top;
position = "{400, 750}";
}
);
background = {
paths = (
{
closed = 1;
nodes = (
"727 6 LINE",
"727 744 LINE",
"531 732 LINE",
"412 285 LINE",
"288 749 LINE",
"73 743 LINE",
"73 0 LINE",
"194 6 LINE",
"194 559 LINE",
"345 0 LINE",
"435 0 LINE",
"575 557 LINE",
"575 -6 LINE"
);
}
);
};
guideLines = (
{
angle = 7;
position = "{264, 774}";
},
{
angle = 7;
position = "{342, -4}";
},
{
angle = 7;
position = "{267, 757}";
}
);
layerId = "849A9C4C-BF7C-40C5-8614-1FD725A2A379";
paths = (
{
closed = 1;
nodes = (
"714 0 LINE",
"714 750 LINE",
"516 750 LINE",
"396 255 LINE",
"262 756 LINE",
"70 733 LINE",
"70 0 LINE",
"197 1 LINE",
"197 516 LINE",
"195 557 LINE",
"341 -4 LINE",
"441 8 LINE",
"576 565 LINE",
"573 520 LINE",
"573 0 LINE"
);
}
);
width = 784;
}
);
unicode = 004D;
},
{
color = 4;
glyphname = N;
lastChange = "2017-07-14 19:30:53 +0000";
layers = (
{
anchors = (
{
name = bottom;
position = "{300, 0}";
},
{
name = top;
position = "{300, 750}";
}
);
guideLines = (
{
angle = 7;
position = "{535, 7}";
},
{
angle = 7;
position = "{205, 758}";
}
);
layerId = "849A9C4C-BF7C-40C5-8614-1FD725A2A379";
paths = (
{
closed = 1;
nodes = (
"529 7 LINE",
"529 750 LINE",
"399 750 LINE",
"399 326 LINE",
"401 296 LINE",
"203 758 LINE",
"66 741 LINE",
"66 0 LINE",
"196 0 LINE",
"196 442 LINE",
"194 477 LINE",
"407 -9 LINE"
);
}
);
width = 599;
}
);
rightMetricsKey = H;
unicode = 004E;
},
{
color = 4;
glyphname = Eng;
lastChange = "2016-07-29 15:34:05 +0000";
layers = (
{
layerId = "849A9C4C-BF7C-40C5-8614-1FD725A2A379";
paths = (
{
closed = 1;
nodes = (
"504 -155 OFFCURVE",
"539 -73 OFFCURVE",
"539 46 CURVE SMOOTH",
"539 750 LINE",
"415 738 LINE",
"415 353 LINE",
"222 750 LINE",
"69 744 LINE",
"69 0 LINE",
"200 6 LINE",
"200 487 LINE",
"415 70 LINE",
"415 59 LINE SMOOTH",
"415 6 OFFCURVE",
"415 -48 OFFCURVE",
"346 -48 CURVE SMOOTH",
"334 -48 OFFCURVE",
"322 -46 OFFCURVE",
"307 -41 CURVE",
"307 -140 LINE",
"343 -150 OFFCURVE",
"374 -155 OFFCURVE",
"400 -155 CURVE SMOOTH"
);
}
);
width = 608;
}
);
unicode = 014A;
},
{
glyphname = Nhookleft;
lastChange = "2016-08-01 13:55:01 +0000";
layers = (
{
anchors = (
{
name = bottom;
position = "{306, 0}";
},
{
name = top;
position = "{306, 750}";
}
);
layerId = "849A9C4C-BF7C-40C5-8614-1FD725A2A379";
paths = (
{
closed = 1;
nodes = (
"70 6 OFFCURVE",
"77 -48 OFFCURVE",
"8 -48 CURVE SMOOTH",
"-4 -48 OFFCURVE",
"-16 -46 OFFCURVE",
"-31 -41 CURVE",
"-31 -140 LINE",
"5 -150 OFFCURVE",
"36 -155 OFFCURVE",
"62 -155 CURVE SMOOTH",
"166 -155 OFFCURVE",
"201 -73 OFFCURVE",
"201 46 CURVE",
"201 463 LINE",
"420 -6 LINE",
"541 6 LINE",
"541 750 LINE",
"417 738 LINE",
"417 304 LINE",
"223 750 LINE",
"70 744 LINE",
"70 59 LINE"
);
}
);
width = 600;
}
);
unicode = 019D;
},
{
color = 4;
glyphname = O;
lastChange = "2017-07-04 22:51:27 +0000";
layers = (
{
anchors = (
{
name = bottom;
position = "{285, 0}";
},
{
name = center;
position = "{285, 375}";
},
{
name = ogonek;
position = "{455, 5}";
},
{
name = top;
position = "{285, 750}";
},
{
name = topleft;
position = "{20, 750}";
},
{
name = topright;
position = "{502, 463}";
}
);
background = {
components = (
{
name = O.ori;
transform = "{1, 0, 0, 1, 10, 0}";
}
);
paths = (
{
closed = 1;
nodes = (
"116 764 OFFCURVE",
"34 612 OFFCURVE",
"34 375 CURVE SMOOTH",
"34 138 OFFCURVE",
"116 -14 OFFCURVE",
"284 -14 CURVE SMOOTH",
"451 -14 OFFCURVE",
"534 138 OFFCURVE",
"534 375 CURVE SMOOTH",
"534 612 OFFCURVE",
"451 764 OFFCURVE",
"284 764 CURVE SMOOTH"
);
},
{
closed = 1;
nodes = (
"362 641 OFFCURVE",
"379 526 OFFCURVE",
"379 375 CURVE SMOOTH",
"379 225 OFFCURVE",
"362 108 OFFCURVE",
"284 108 CURVE SMOOTH",
"205 108 OFFCURVE",
"189 225 OFFCURVE",
"189 375 CURVE SMOOTH",
"189 526 OFFCURVE",
"205 641 OFFCURVE",
"284 641 CURVE SMOOTH"
);
}
);
};
layerId = "849A9C4C-BF7C-40C5-8614-1FD725A2A379";
paths = (
{
closed = 1;
nodes = (
"452 -14 OFFCURVE",
"528 138 OFFCURVE",
"528 375 CURVE SMOOTH",
"528 612 OFFCURVE",
"452 764 OFFCURVE",
"284 764 CURVE SMOOTH",
"117 764 OFFCURVE",
"40 612 OFFCURVE",
"40 375 CURVE SMOOTH",
"40 138 OFFCURVE",
"117 -14 OFFCURVE",
"284 -14 CURVE SMOOTH"
);
},
{
closed = 1;
nodes = (
"206 109 OFFCURVE",
"193 224 OFFCURVE",
"193 375 CURVE SMOOTH",
"193 525 OFFCURVE",
"206 642 OFFCURVE",
"284 642 CURVE SMOOTH",
"363 642 OFFCURVE",
"375 525 OFFCURVE",
"375 375 CURVE SMOOTH",
"375 224 OFFCURVE",
"363 109 OFFCURVE",
"284 109 CURVE SMOOTH"
);
}
);
width = 568;
}
);
unicode = 004F;
},
{
color = 4;
glyphname = Oslash;
lastChange = "2016-07-29 15:34:05 +0000";
layers = (
{
layerId = "849A9C4C-BF7C-40C5-8614-1FD725A2A379";
paths = (
{
closed = 1;
nodes = (
"467 -16 OFFCURVE",
"508 190 OFFCURVE",
"508 400 CURVE SMOOTH",
"508 464 OFFCURVE",
"501 521 OFFCURVE",
"489 572 CURVE",
"552 648 LINE",
"505 693 LINE",
"464 643 LINE",
"427 721 OFFCURVE",
"365 766 OFFCURVE",
"274 766 CURVE SMOOTH",
"112 766 OFFCURVE",
"42 621 OFFCURVE",
"42 400 CURVE SMOOTH",
"42 315 OFFCURVE",
"49 233 OFFCURVE",
"69 163 CURVE",
"14 97 LINE",
"61 52 LINE",
"96 94 LINE",
"131 27 OFFCURVE",
"186 -16 OFFCURVE",
"274 -16 CURVE SMOOTH"
);
},
{
closed = 1;
nodes = (
"228 109 OFFCURVE",
"207 148 OFFCURVE",
"197 217 CURVE",
"361 417 LINE",
"361 400 LINE SMOOTH",
"361 221 OFFCURVE",
"353 109 OFFCURVE",
"274 109 CURVE SMOOTH"
);
},
{
closed = 1;
nodes = (
"188 337 OFFCURVE",
"188 367 OFFCURVE",
"188 400 CURVE SMOOTH",
"188 494 OFFCURVE",
"194 649 OFFCURVE",
"274 649 CURVE SMOOTH",
"327 649 OFFCURVE",
"348 583 OFFCURVE",
"356 512 CURVE",
"189 310 LINE"
);
}
);
width = 551;
}
);
unicode = 00D8;
},
{
color = 4;
glyphname = OE;
lastChange = "2016-07-29 15:34:05 +0000";
layers = (
{
layerId = "849A9C4C-BF7C-40C5-8614-1FD725A2A379";
paths = (
{
closed = 1;
nodes = (
"319 -13 OFFCURVE",
"351 9 OFFCURVE",
"375 47 CURVE",
"375 0 LINE",
"761 0 LINE",
"761 117 LINE",
"521 117 LINE",
"521 328 LINE",
"667 328 LINE",
"667 454 LINE",
"521 454 LINE",
"521 633 LINE",
"753 633 LINE",
"753 750 LINE",
"375 750 LINE",
"375 695 LINE",
"350 734 OFFCURVE",
"317 755 OFFCURVE",
"274 755 CURVE SMOOTH",
"112 755 OFFCURVE",
"42 609 OFFCURVE",
"42 396 CURVE SMOOTH",
"42 188 OFFCURVE",
"82 -13 OFFCURVE",
"274 -13 CURVE SMOOTH"
);
},
{
closed = 1;
nodes = (
"196 111 OFFCURVE",
"188 219 OFFCURVE",
"188 396 CURVE SMOOTH",
"188 485 OFFCURVE",
"194 638 OFFCURVE",
"274 638 CURVE SMOOTH",
"356 638 OFFCURVE",
"375 521 OFFCURVE",
"375 432 CURVE SMOOTH",
"375 333 LINE SMOOTH",
"375 194 OFFCURVE",
"354 111 OFFCURVE",
"274 111 CURVE SMOOTH"
);
}
);
width = 790;
}
);
unicode = 0152;
},
{
color = 4;
glyphname = P;
lastChange = "2017-07-13 01:47:33 +0000";
layers = (
{
anchors = (
{
name = bottom;
position = "{265, 0}";
},
{
name = top;
position = "{265, 750}";
}
);
background = {
paths = (
{
closed = 1;
nodes = (
"215 6 LINE",
"215 295 LINE",
"348 295 OFFCURVE",
"512 314 OFFCURVE",
"512 525 CURVE SMOOTH",
"512 758 OFFCURVE",
"314 750 OFFCURVE",
"162 750 CURVE SMOOTH",
"68 750 LINE",
"68 -6 LINE"
);
},
{
closed = 1;
nodes = (
"216 633 LINE",
"237 633 LINE SMOOTH",
"319 633 OFFCURVE",
"366 616 OFFCURVE",
"366 526 CURVE SMOOTH",
"366 434 OFFCURVE",
"309 414 OFFCURVE",
"241 414 CURVE SMOOTH",
"216 414 LINE"
);
}
);
};
layerId = "849A9C4C-BF7C-40C5-8614-1FD725A2A379";
paths = (
{
closed = 1;
nodes = (
"404 265 OFFCURVE",
"510 352 OFFCURVE",
"510 519 CURVE SMOOTH",
"510 700 OFFCURVE",
"405 750 OFFCURVE",
"236 750 CURVE SMOOTH",
"187 750 OFFCURVE",
"124 750 OFFCURVE",
"68 750 CURVE",
"68 0 LINE",
"215 0 LINE",
"215 633 LINE",
"241 633 LINE SMOOTH",
"313 633 OFFCURVE",
"364 615 OFFCURVE",
"364 519 CURVE SMOOTH",
"364 436 OFFCURVE",
"332 393 OFFCURVE",
"241 393 CURVE SMOOTH",
"209 393 LINE",
"208 265 LINE"
);
}
);
width = 532;
}
);
unicode = 0050;
},
{
color = 4;
glyphname = Thorn;
lastChange = "2016-07-29 15:34:05 +0000";
layers = (
{
layerId = "849A9C4C-BF7C-40C5-8614-1FD725A2A379";
paths = (
{
closed = 1;
nodes = (
"215 -33 LINE",
"215 129 LINE",
"348 129 OFFCURVE",
"512 148 OFFCURVE",
"512 350 CURVE SMOOTH",
"512 551 OFFCURVE",
"356 568 OFFCURVE",
"216 570 CURVE",
"216 750 LINE",
"68 750 LINE",
"68 -45 LINE"
);
},
{
closed = 1;
nodes = (
"216 458 LINE",
"237 458 LINE SMOOTH",
"319 458 OFFCURVE",
"366 440 OFFCURVE",
"366 351 CURVE SMOOTH",
"366 259 OFFCURVE",
"309 238 OFFCURVE",
"241 238 CURVE SMOOTH",
"216 238 LINE"
);
}
);
width = 528;
}
);
unicode = 00DE;
},
{
color = 4;
glyphname = Q;
lastChange = "2017-07-13 03:56:32 +0000";
layers = (
{
anchors = (
{
name = bottom;
position = "{275, 0}";
},
{
name = center;
position = "{285, 375}";
},
{
name = ogonek;
position = "{455, 5}";
},
{
name = top;
position = "{275, 750}";
},
{
name = topleft;
position = "{20, 750}";
},
{
name = topright;
position = "{502, 463}";
}
);
layerId = "849A9C4C-BF7C-40C5-8614-1FD725A2A379";
paths = (
{
closed = 1;
nodes = (
"508 -64 LINE",
"453 -17 OFFCURVE",
"408 27 OFFCURVE",
"367 81 CURVE",
"297 48 LINE",
"315 -27 OFFCURVE",
"362 -100 OFFCURVE",
"430 -145 CURVE"
);
},
{
closed = 1;
nodes = (
"442 -10 OFFCURVE",
"528 142 OFFCURVE",
"528 375 CURVE SMOOTH",
"528 612 OFFCURVE",
"452 764 OFFCURVE",
"284 764 CURVE SMOOTH",
"117 764 OFFCURVE",
"40 612 OFFCURVE",
"40 375 CURVE SMOOTH",
"40 138 OFFCURVE",
"117 -18 OFFCURVE",
"279 -14 CURVE SMOOTH"
);
},
{
closed = 1;
nodes = (
"206 109 OFFCURVE",
"193 224 OFFCURVE",
"193 375 CURVE SMOOTH",
"193 525 OFFCURVE",
"206 642 OFFCURVE",
"284 642 CURVE SMOOTH",
"363 642 OFFCURVE",
"375 525 OFFCURVE",
"375 375 CURVE SMOOTH",
"375 224 OFFCURVE",
"369 109 OFFCURVE",
"284 109 CURVE SMOOTH"
);
}
);
width = 568;
}
);
leftMetricsKey = O;
rightMetricsKey = O;
unicode = 0051;
},
{
color = 4;
glyphname = R;
lastChange = "2017-07-13 03:23:26 +0000";
layers = (
{
anchors = (
{
name = bottom;
position = "{283, 0}";
},
{
name = top;
position = "{283, 750}";
}
);
background = {
components = (
{
name = P;
}
);
paths = (
{
closed = 1;
nodes = (
"551 26 LINE",
"483 188 LINE SMOOTH",
"450 268 OFFCURVE",
"416 350 OFFCURVE",
"416 351 CURVE",
"480 388 OFFCURVE",
"523 443 OFFCURVE",
"523 541 CURVE SMOOTH",
"523 688 OFFCURVE",
"413 750 OFFCURVE",
"248 750 CURVE",
"70 750 LINE",
"70 -6 LINE",
"216 6 LINE",
"216 329 LINE",
"273 329 LINE",
"407 -13 LINE"
);
},
{
closed = 1;
nodes = (
"216 633 LINE",
"285 633 LINE SMOOTH",
"337 633 OFFCURVE",
"377 610 OFFCURVE",
"377 540 CURVE SMOOTH",
"377 452 OFFCURVE",
"325 437 OFFCURVE",
"266 437 CURVE SMOOTH",
"216 437 LINE"
);
}
);
};
guideLines = (
{
angle = 20;
position = "{542, 11}";
},
{
angle = 3;
position = "{217, 0}";
}
);
layerId = "849A9C4C-BF7C-40C5-8614-1FD725A2A379";
paths = (
{
closed = 1;
nodes = (
"242 278 OFFCURVE",
"262 278 OFFCURVE",
"290 280 CURVE",
"305 289 LINE",
"442 311 OFFCURVE",
"514 402 OFFCURVE",
"514 521 CURVE SMOOTH",
"514 679 OFFCURVE",
"421 750 OFFCURVE",
"258 750 CURVE SMOOTH",
"199 750 OFFCURVE",
"129 750 OFFCURVE",
"70 750 CURVE",
"70 0 LINE",
"217 0 LINE",
"217 278 LINE"
);
},
{
closed = 1;
nodes = (
"217 633 LINE",
"263 633 LINE SMOOTH",
"329 633 OFFCURVE",
"366 605 OFFCURVE",
"366 522 CURVE SMOOTH",
"366 439 OFFCURVE",
"323 404 OFFCURVE",
"263 404 CURVE SMOOTH",
"217 404 LINE"
);
},
{
closed = 1;
nodes = (
"409 -18 LINE",
"549 33 LINE",
"389 370 LINE",
"266 323 LINE"
);
}
);
width = 561;
}
);
unicode = 0052;
},
{
color = 4;
glyphname = S;
lastChange = "2017-07-14 19:28:32 +0000";
layers = (
{
anchors = (
{
name = bottom;
position = "{259, 0}";
},
{
name = top;
position = "{259, 750}";
}
);
background = {
paths = (
{
closed = 1;
nodes = (
"151 764 OFFCURVE",
"35 684 OFFCURVE",
"35 540 CURVE SMOOTH",
"35 432 OFFCURVE",
"92 382 OFFCURVE",
"158 344 CURVE SMOOTH",
"269 279 LINE SMOOTH",
"315 252 OFFCURVE",
"346 235 OFFCURVE",
"346 182 CURVE SMOOTH",
"346 138 OFFCURVE",
"314 104 OFFCURVE",
"266 104 CURVE SMOOTH",
"202 104 OFFCURVE",
"180 145 OFFCURVE",
"175 215 CURVE",
"56 190 LINE",
"64 66 OFFCURVE",
"141 -14 OFFCURVE",
"262 -14 CURVE SMOOTH",
"390 -14 OFFCURVE",
"490 68 OFFCURVE",
"490 200 CURVE SMOOTH",
"490 295 OFFCURVE",
"441 362 OFFCURVE",
"367 402 CURVE SMOOTH",
"248 466 LINE SMOOTH",
"213 485 OFFCURVE",
"182 508 OFFCURVE",
"182 561 CURVE SMOOTH",
"182 604 OFFCURVE",
"209 645 OFFCURVE",
"268 645 CURVE SMOOTH",
"325 645 OFFCURVE",
"361 600 OFFCURVE",
"365 521 CURVE",
"497 549 LINE",
"483 703 OFFCURVE",
"395 764 OFFCURVE",
"269 764 CURVE SMOOTH"
);
}
);
};
guideLines = (
{
angle = 12;
position = "{359, 531}";
},
{
angle = 154.3063;
position = "{232, 315}";
},
{
angle = 154.306;
position = "{322, 438}";
},
{
angle = 12;
position = "{168, 232}";
}
);
layerId = "849A9C4C-BF7C-40C5-8614-1FD725A2A379";
paths = (
{
closed = 1;
nodes = (
"381 -14 OFFCURVE",
"494 66 OFFCURVE",
"494 210 CURVE SMOOTH",
"494 318 OFFCURVE",
"440 373 OFFCURVE",
"368 414 CURVE SMOOTH",
"261 475 LINE SMOOTH",
"217 500 OFFCURVE",
"193 522 OFFCURVE",
"193 570 CURVE SMOOTH",
"193 617 OFFCURVE",
"227 646 OFFCURVE",
"269 646 CURVE SMOOTH",
"334 646 OFFCURVE",
"355 599 OFFCURVE",
"359 531 CURVE",
"475 556 LINE",
"467 686 OFFCURVE",
"403 764 OFFCURVE",
"267 764 CURVE SMOOTH",
"137 764 OFFCURVE",
"51 673 OFFCURVE",
"51 556 CURVE SMOOTH",
"51 473 OFFCURVE",
"79 398 OFFCURVE",
"157 354 CURVE SMOOTH",
"270 290 LINE SMOOTH",
"319 262 OFFCURVE",
"349 238 OFFCURVE",
"349 188 CURVE SMOOTH",
"349 137 OFFCURVE",
"320 104 OFFCURVE",
"270 104 CURVE SMOOTH",
"203 104 OFFCURVE",
"177 156 OFFCURVE",
"168 232 CURVE",
"45 206 LINE",
"50 59 OFFCURVE",
"138 -14 OFFCURVE",
"265 -14 CURVE SMOOTH"
);
}
);
width = 534;
}
);
unicode = 0053;
},
{
glyphname = Germandbls;
lastChange = "2017-07-03 18:14:35 +0000";
layers = (
{
background = {
paths = (
{
closed = 1;
nodes = (
"185 0 LINE",
"185 542 LINE SMOOTH",
"185 632 OFFCURVE",
"243 662 OFFCURVE",
"302 662 CURVE SMOOTH",
"320 662 OFFCURVE",
"385 657 OFFCURVE",
"427 639 CURVE",
"408 677 LINE",
"299 444 LINE",
"406 366 LINE",
"554 671 LINE",
"554 731 LINE",
"468 754 OFFCURVE",
"377 766 OFFCURVE",
"316 766 CURVE SMOOTH",
"185 766 OFFCURVE",
"38 740 OFFCURVE",
"38 516 CURVE SMOOTH",
"38 -12 LINE"
);
},
{
closed = 1;
nodes = (
"439 -6 OFFCURVE",
"596 55 OFFCURVE",
"596 229 CURVE SMOOTH",
"596 350 OFFCURVE",
"521 397 OFFCURVE",
"433 425 CURVE",
"299 444 LINE",
"312 362 LINE",
"399 356 OFFCURVE",
"449 284 OFFCURVE",
"449 227 CURVE SMOOTH",
"449 167 OFFCURVE",
"400 90 OFFCURVE",
"271 90 CURVE",
"271 -12 LINE"
);
}
);
};
guideLines = (
{
angle = 12;
position = "{355, 213}";
},
{
angle = 83;
position = "{540, 596}";
}
);
layerId = "849A9C4C-BF7C-40C5-8614-1FD725A2A379";
paths = (
{
closed = 1;
nodes = (
"645 285 OFFCURVE",
"605 340 OFFCURVE",
"533 384 CURVE SMOOTH",
"467 425 LINE SMOOTH",
"428 449 OFFCURVE",
"404 470 OFFCURVE",
"404 510 CURVE SMOOTH",
"404 575 OFFCURVE",
"467 622 OFFCURVE",
"524 632 CURVE",
"537 746 LINE",
"478 754 OFFCURVE",
"364 761 OFFCURVE",
"297 761 CURVE SMOOTH",
"144 761 OFFCURVE",
"40 703 OFFCURVE",
"40 492 CURVE SMOOTH",
"40 0 LINE",
"185 0 LINE",
"185 497 LINE SMOOTH",
"185 600 OFFCURVE",
"234 646 OFFCURVE",
"316 646 CURVE SMOOTH",
"377 645 LINE",
"328 629 OFFCURVE",
"272 574 OFFCURVE",
"272 487 CURVE SMOOTH",
"272 410 OFFCURVE",
"301 365 OFFCURVE",
"359 328 CURVE SMOOTH",
"428 284 LINE SMOOTH",
"479 251 OFFCURVE",
"512 223 OFFCURVE",
"512 170 CURVE SMOOTH",
"512 139 OFFCURVE",
"492 102 OFFCURVE",
"443 102 CURVE SMOOTH",
"397 102 OFFCURVE",
"363 135 OFFCURVE",
"361 213 CURVE",
"238 186 LINE",
"242 46 OFFCURVE",
"318 -14 OFFCURVE",
"436 -14 CURVE SMOOTH",
"565 -14 OFFCURVE",
"645 79 OFFCURVE",
"645 194 CURVE SMOOTH"
);
}
);
width = 652;
}
);
unicode = 1E9E;
},
{
color = 4;
glyphname = Schwa;
lastChange = "2017-07-14 01:33:14 +0000";
layers = (
{
layerId = "849A9C4C-BF7C-40C5-8614-1FD725A2A379";
paths = (
{
closed = 1;
nodes = (
"456 -16 OFFCURVE",
"500 190 OFFCURVE",
"500 383 CURVE SMOOTH",
"500 628 OFFCURVE",
"429 766 OFFCURVE",
"268 766 CURVE SMOOTH",
"143 766 OFFCURVE",
"74 684 OFFCURVE",
"43 557 CURVE",
"178 510 LINE",
"188 584 OFFCURVE",
"213 649 OFFCURVE",
"266 649 CURVE SMOOTH",
"347 649 OFFCURVE",
"353 494 OFFCURVE",
"353 398 CURVE",
"34 398 LINE",
"34 171 OFFCURVE",
"74 -16 OFFCURVE",
"265 -16 CURVE SMOOTH"
);
},
{
closed = 1;
nodes = (
"205 109 OFFCURVE",
"188 177 OFFCURVE",
"182 291 CURVE",
"351 291 LINE",
"346 176 OFFCURVE",
"327 109 OFFCURVE",
"266 109 CURVE SMOOTH"
);
}
);
width = 542;
}
);
unicode = 018F;
},
{
color = 4;
glyphname = T;
lastChange = "2017-07-14 13:04:17 +0000";
layers = (
{
anchors = (
{
name = bottom;
position = "{232, 0}";
},
{
name = center;
position = "{232, 375}";
},
{
name = top;
position = "{232, 750}";
}
);
background = {
paths = (
{
closed = 1;
nodes = (
"306 6 LINE",
"306 633 LINE",
"446 633 LINE",
"458 750 LINE",
"18 750 LINE",
"7 633 LINE",
"160 633 LINE",
"160 -6 LINE"
);
}
);
};
guideLines = (
{
angle = 83;
position = "{19, 750}";
},
{
angle = 83;
position = "{459, 750}";
}
);
layerId = "849A9C4C-BF7C-40C5-8614-1FD725A2A379";
paths = (
{
closed = 1;
nodes = (
"306 0 LINE",
"306 631 LINE",
"441 631 LINE",
"455 750 LINE",
"14 750 LINE",
"14 631 LINE",
"160 631 LINE",
"160 0 LINE"
);
}
);
width = 462;
}
);
unicode = 0054;
},
{
color = 4;
glyphname = Tbar;
lastChange = "2016-07-29 15:34:05 +0000";
layers = (
{
layerId = "849A9C4C-BF7C-40C5-8614-1FD725A2A379";
paths = (
{
closed = 1;
nodes = (
"313 6 LINE",
"313 633 LINE",
"453 633 LINE",
"465 750 LINE",
"25 750 LINE",
"14 633 LINE",
"167 633 LINE",
"167 -6 LINE"
);
},
{
closed = 1;
nodes = (
"376 299 LINE",
"376 393 LINE",
"95 393 LINE",
"95 299 LINE"
);
}
);
width = 477;
}
);
unicode = 0166;
},
{
color = 4;
glyphname = U;
lastChange = "2017-07-13 03:50:37 +0000";
layers = (
{
anchors = (
{
name = bottom;
position = "{284, 0}";
},
{
name = ogonek;
position = "{453, 5}";
},
{
name = top;
position = "{284, 750}";
},
{
name = topright;
position = "{510, 480}";
}
);
background = {
components = (
{
name = O;
transform = "{1, 0, 0, 1, 22, 0}";
},
{
name = H;
transform = "{1, 0, 0, 1, -6, 0}";
}
);
};
guideLines = (
{
angle = 7;
position = "{503, 762}";
},
{
angle = 7;
position = "{211, 751}";
}
);
layerId = "849A9C4C-BF7C-40C5-8614-1FD725A2A379";
paths = (
{
closed = 1;
nodes = (
"439 -14 OFFCURVE",
"513 90 OFFCURVE",
"513 237 CURVE SMOOTH",
"513 750 LINE",
"383 750 LINE",
"383 220 LINE SMOOTH",
"383 157 OFFCURVE",
"358 110 OFFCURVE",
"298 110 CURVE SMOOTH",
"238 110 OFFCURVE",
"211 164 OFFCURVE",
"211 237 CURVE SMOOTH",
"211 750 LINE",
"64 750 LINE",
"64 243 LINE SMOOTH",
"64 92 OFFCURVE",
"129 -14 OFFCURVE",
"291 -14 CURVE SMOOTH"
);
}
);
width = 568;
}
);
unicode = 0055;
},
{
color = 4;
glyphname = V;
lastChange = "2017-07-13 03:14:06 +0000";
layers = (
{
anchors = (
{
name = bottom;
position = "{248, 0}";
},
{
name = top;
position = "{248, 750}";
}
);
background = {
components = (
{
name = A;
transform = "{-1, 0, 0, -1, 535, 750}";
}
);
paths = (
{
closed = 1;
nodes = (
"327 0 LINE",
"507 750 LINE",
"366 744 LINE",
"262 232 LINE",
"163 750 LINE",
"-11 744 LINE",
"166 0 LINE"
);
}
);
};
guideLines = (
{
angle = 7;
position = "{14, 743}";
},
{
angle = -7;
position = "{368, 761}";
}
);
layerId = "849A9C4C-BF7C-40C5-8614-1FD725A2A379";
paths = (
{
closed = 1;
nodes = (
"339 10 LINE",
"493 748 LINE",
"364 750 LINE",
"270 215 LINE",
"263 171 LINE",
"256 214 LINE",
"157 759 LINE",
"10 741 LINE",
"168 -11 LINE"
);
}
);
width = 500;
}
);
unicode = 0056;
},
{
color = 4;
glyphname = W;
lastChange = "2017-07-06 18:48:10 +0000";
layers = (
{
anchors = (
{
name = bottom;
position = "{387, 0}";
},
{
name = top;
position = "{387, 750}";
}
);
background = {
paths = (
{
closed = 1;
nodes = (
"300 0 LINE",
"381 458 LINE",
"460 0 LINE",
"605 0 LINE",
"766 750 LINE",
"631 744 LINE",
"536 296 LINE",
"457 750 LINE",
"337 744 LINE",
"252 301 LINE",
"173 750 LINE",
"13 744 LINE",
"166 0 LINE"
);
}
);
};
guideLines = (
{
angle = 7;
position = "{475, 761}";
},
{
position = "{549, 226}";
}
);
layerId = "849A9C4C-BF7C-40C5-8614-1FD725A2A379";
paths = (
{
closed = 1;
nodes = (
"308 0 LINE",
"378 438 LINE",
"386 518 LINE",
"394 438 LINE",
"465 0 LINE",
"615 0 LINE",
"758 750 LINE",
"632 750 LINE",
"556 268 LINE",
"551 223 LINE",
"546 268 LINE",
"466 750 LINE",
"321 750 LINE",
"244 270 LINE",
"239 223 LINE",
"234 270 LINE",
"173 750 LINE",
"19 731 LINE",
"148 0 LINE"
);
}
);
width = 774;
}
);
unicode = 0057;
},
{
color = 4;
glyphname = X;
lastChange = "2017-07-13 03:41:37 +0000";
layers = (
{
anchors = (
{
name = bottom;
position = "{267, 0}";
},
{
name = top;
position = "{267, 750}";
}
);
guideLines = (
{
angle = 15;
position = "{171, 759}";
},
{
angle = 7;
position = "{375, -12}";
},
{
angle = 173;
position = "{372, 756}";
},
{
angle = 173;
position = "{141, -12}";
},
{
angle = 16;
position = "{346, -17}";
}
);
layerId = "849A9C4C-BF7C-40C5-8614-1FD725A2A379";
paths = (
{
closed = 1;
nodes = (
"481 750 LINE",
"351 750 LINE",
"220 417 LINE",
"183 417 LINE",
"16 0 LINE",
"149 0 LINE",
"268 315 LINE",
"307 315 LINE"
);
},
{
closed = 1;
nodes = (
"158 761 LINE",
"26 726 LINE",
"192 327 LINE",
"205 327 LINE",
"355 -19 LINE",
"485 18 LINE",
"306 438 LINE",
"291 438 LINE"
);
}
);
width = 507;
}
);
unicode = 0058;
},
{
color = 4;
glyphname = Y;
lastChange = "2017-07-13 13:10:36 +0000";
layers = (
{
anchors = (
{
name = bottom;
position = "{251, 0}";
},
{
name = top;
position = "{251, 750}";
},
{
name = topleft;
position = "{10, 750}";
}
);
guideLines = (
{
angle = 7;
position = "{327, 0}";
},
{
angle = 7;
position = "{158, 756}";
}
);
layerId = "849A9C4C-BF7C-40C5-8614-1FD725A2A379";
paths = (
{
closed = 1;
nodes = (
"322 0 LINE",
"322 276 LINE",
"482 749 LINE",
"352 751 LINE",
"270 449 LINE",
"259 411 LINE",
"258 449 LINE",
"159 759 LINE",
"19 738 LINE",
"175 275 LINE",
"175 0 LINE"
);
}
);
width = 501;
}
);
unicode = 0059;
},
{
color = 4;
glyphname = Z;
lastChange = "2017-07-01 01:14:20 +0000";
layers = (
{
anchors = (
{
name = bottom;
position = "{236, 0}";
},
{
name = top;
position = "{257, 750}";
}
);
guideLines = (
{
angle = 263;
position = "{43, 750}";
},
{
angle = -83;
position = "{30, 93}";
},
{
angle = 263;
position = "{412, 20}";
},
{
angle = -83;
position = "{441, 653}";
}
);
layerId = "849A9C4C-BF7C-40C5-8614-1FD725A2A379";
paths = (
{
closed = 1;
nodes = (
"447 0 LINE",
"450 122 LINE",
"206 122 LINE",
"451 653 LINE",
"439 750 LINE",
"35 750 LINE",
"32 632 LINE",
"281 632 LINE",
"22 93 LINE",
"33 0 LINE"
);
}
);
width = 472;
}
);
unicode = 005A;
},
{
color = 4;
glyphname = C.001;
lastChange = "2017-06-23 00:47:10 +0000";
layers = (
{
anchors = (
{
name = bottom;
position = "{269, 0}";
},
{
name = top;
position = "{261, 750}";
}
);
background = {
components = (
{
name = O.001;
transform = "{1, 0, 0, 1, -23, 0}";
}
);
paths = (
{
closed = 1;
nodes = (
"418 -14 OFFCURVE",
"487 116 OFFCURVE",
"487 255 CURVE",
"362 267 LINE",
"357 202 OFFCURVE",
"344 104 OFFCURVE",
"283 104 CURVE SMOOTH",
"199 104 OFFCURVE",
"186 249 OFFCURVE",
"186 391 CURVE SMOOTH",
"186 501 OFFCURVE",
"199 646 OFFCURVE",
"269 646 CURVE SMOOTH",
"341 646 OFFCURVE",
"344 501 OFFCURVE",
"344 486 CURVE",
"486 493 LINE",
"486 625 OFFCURVE",
"409 764 OFFCURVE",
"277 764 CURVE SMOOTH",
"102 764 OFFCURVE",
"40 559 OFFCURVE",
"40 391 CURVE SMOOTH",
"40 201 OFFCURVE",
"85 -14 OFFCURVE",
"274 -14 CURVE SMOOTH"
);
},
{
closed = 1;
nodes = (
"418 -14 OFFCURVE",
"487 116 OFFCURVE",
"487 255 CURVE",
"362 267 LINE",
"357 202 OFFCURVE",
"344 104 OFFCURVE",
"283 104 CURVE SMOOTH",
"199 104 OFFCURVE",
"186 249 OFFCURVE",
"186 391 CURVE SMOOTH",
"186 501 OFFCURVE",
"199 646 OFFCURVE",
"269 646 CURVE SMOOTH",
"341 646 OFFCURVE",
"344 501 OFFCURVE",
"344 486 CURVE",
"486 493 LINE",
"486 625 OFFCURVE",
"409 764 OFFCURVE",
"277 764 CURVE SMOOTH",
"102 764 OFFCURVE",
"40 559 OFFCURVE",
"40 391 CURVE SMOOTH",
"40 201 OFFCURVE",
"85 -14 OFFCURVE",
"274 -14 CURVE SMOOTH"
);
},
{
closed = 1;
nodes = (
"88 764 OFFCURVE",
"20 590 OFFCURVE",
"20 369 CURVE SMOOTH",
"20 163 OFFCURVE",
"96 -14 OFFCURVE",
"277 -14 CURVE SMOOTH",
"407 -14 OFFCURVE",
"470 71 OFFCURVE",
"501 187 CURVE",
"374 214 LINE",
"365 157 OFFCURVE",
"336 114 OFFCURVE",
"282 114 CURVE SMOOTH",
"188 114 OFFCURVE",
"171 245 OFFCURVE",
"171 370 CURVE SMOOTH",
"171 517 OFFCURVE",
"185 639 OFFCURVE",
"282 639 CURVE SMOOTH",
"340 639 OFFCURVE",
"361 591 OFFCURVE",
"375 542 CURVE",
"497 568 LINE",
"465 680 OFFCURVE",
"401 764 OFFCURVE",
"277 764 CURVE SMOOTH"
);
}
);
};
guideLines = (
{
position = "{361, 445}";
},
{
angle = -7;
position = "{500, 244}";
},
{
angle = 7;
position = "{503, 488}";
},
{
position = "{156, 252}";
}
);
layerId = "849A9C4C-BF7C-40C5-8614-1FD725A2A379";
paths = (
{
closed = 1;
nodes = (
"401 -14 OFFCURVE",
"465 70 OFFCURVE",
"497 182 CURVE",
"375 208 LINE",
"361 159 OFFCURVE",
"340 111 OFFCURVE",
"282 111 CURVE SMOOTH",
"192 111 OFFCURVE",
"171 231 OFFCURVE",
"171 378 CURVE SMOOTH",
"171 507 OFFCURVE",
"192 639 OFFCURVE",
"283 639 CURVE SMOOTH",
"336 639 OFFCURVE",
"361 591 OFFCURVE",
"372 535 CURVE",
"501 563 LINE",
"473 685 OFFCURVE",
"407 764 OFFCURVE",
"277 764 CURVE SMOOTH",
"101 764 OFFCURVE",
"20 585 OFFCURVE",
"20 379 CURVE SMOOTH",
"20 158 OFFCURVE",
"93 -14 OFFCURVE",
"277 -14 CURVE SMOOTH"
);
}
);
width = 522;
}
);
},
{
color = 4;
glyphname = H.001;
lastChange = "2017-06-28 00:59:00 +0000";
layers = (
{
anchors = (
{
name = bottom;
position = "{297, 0}";
},
{
name = center;
position = "{297, 375}";
},
{
name = top;
position = "{297, 750}";
},
{
name = topleft;
position = "{20, 750}";
}
);
background = {
paths = (
{
closed = 1;
nodes = (
"227 6 LINE",
"227 312 LINE",
"367 312 LINE",
"367 -6 LINE",
"514 6 LINE",
"514 750 LINE",
"367 738 LINE",
"367 446 LINE",
"227 446 LINE",
"227 750 LINE",
"80 738 LINE",
"80 -6 LINE"
);
}
);
};
guideLines = (
{
position = "{-243, 795}";
},
{
angle = 4.6669;
position = "{451, 750}";
}
);
layerId = "849A9C4C-BF7C-40C5-8614-1FD725A2A379";
paths = (
{
closed = 1;
nodes = (
"216 0 LINE",
"217 309 LINE",
"377 309 LINE",
"377 0 LINE",
"524 0 LINE",
"523 342 OFFCURVE",
"522 609 OFFCURVE",
"524 756 CURVE",
"475 750 OFFCURVE",
"425 746 OFFCURVE",
"377 744 CURVE",
"377 429 LINE",
"217 429 LINE",
"217 756 LINE",
"170 750 OFFCURVE",
"121 746 OFFCURVE",
"70 744 CURVE",
"70 496 OFFCURVE",
"69 248 OFFCURVE",
"69 0 CURVE"
);
}
);
width = 594;
}
);
},
{
color = 4;
glyphname = M.001;
lastChange = "2017-06-15 18:00:14 +0000";
layers = (
{
anchors = (
{
name = bottom;
position = "{397, 0}";
},
{
name = top;
position = "{397, 750}";
}
);
background = {
paths = (
{
closed = 1;
nodes = (
"724 6 LINE",
"724 744 LINE",
"528 732 LINE",
"409 285 LINE",
"285 749 LINE",
"70 743 LINE",
"70 0 LINE",
"191 6 LINE",
"191 559 LINE",
"342 0 LINE",
"432 0 LINE",
"572 557 LINE",
"572 -6 LINE"
);
}
);
};
guideLines = (
{
angle = 7;
position = "{724, 756}";
},
{
angle = 7;
position = "{575, -10}";
}
);
layerId = "849A9C4C-BF7C-40C5-8614-1FD725A2A379";
paths = (
{
closed = 1;
nodes = (
"724 0 LINE",
"724 751 LINE",
"528 750 LINE",
"402 285 LINE",
"274 756 LINE",
"70 731 LINE",
"70 0 LINE",
"202 1 LINE",
"202 566 LINE",
"347 0 LINE",
"437 0 LINE",
"575 563 LINE",
"575 0 LINE"
);
}
);
width = 794;
}
);
},
{
color = 4;
glyphname = O.001;
lastChange = "2017-06-06 21:19:15 +0000";
layers = (
{
anchors = (
{
name = bottom;
position = "{305, 0}";
},
{
name = center;
position = "{305, 375}";
},
{
name = ogonek;
position = "{475, 5}";
},
{
name = top;
position = "{305, 750}";
},
{
name = topleft;
position = "{40, 750}";
},
{
name = topright;
position = "{522, 463}";
}
);
background = {
paths = (
{
closed = 1;
nodes = (
"133 764 OFFCURVE",
"42 612 OFFCURVE",
"42 375 CURVE SMOOTH",
"42 138 OFFCURVE",
"133 -14 OFFCURVE",
"301 -14 CURVE SMOOTH",
"468 -14 OFFCURVE",
"559 138 OFFCURVE",
"559 375 CURVE SMOOTH",
"559 612 OFFCURVE",
"468 764 OFFCURVE",
"301 764 CURVE SMOOTH"
);
},
{
closed = 1;
nodes = (
"379 646 OFFCURVE",
"411 560 OFFCURVE",
"411 375 CURVE SMOOTH",
"411 191 OFFCURVE",
"379 104 OFFCURVE",
"301 104 CURVE SMOOTH",
"222 104 OFFCURVE",
"190 190 OFFCURVE",
"190 375 CURVE SMOOTH",
"190 560 OFFCURVE",
"222 646 OFFCURVE",
"301 646 CURVE SMOOTH"
);
}
);
};
layerId = "849A9C4C-BF7C-40C5-8614-1FD725A2A379";
paths = (
{
closed = 1;
nodes = (
"468 -14 OFFCURVE",
"559 138 OFFCURVE",
"559 375 CURVE SMOOTH",
"559 612 OFFCURVE",
"468 764 OFFCURVE",
"300 764 CURVE SMOOTH",
"133 764 OFFCURVE",
"42 612 OFFCURVE",
"42 375 CURVE SMOOTH",
"42 138 OFFCURVE",
"133 -14 OFFCURVE",
"300 -14 CURVE SMOOTH"
);
},
{
closed = 1;
nodes = (
"222 114 OFFCURVE",
"194 190 OFFCURVE",
"194 375 CURVE SMOOTH",
"194 559 OFFCURVE",
"222 636 OFFCURVE",
"300 636 CURVE SMOOTH",
"379 636 OFFCURVE",
"407 560 OFFCURVE",
"407 375 CURVE SMOOTH",
"407 190 OFFCURVE",
"379 114 OFFCURVE",
"300 114 CURVE SMOOTH"
);
}
);
width = 599;
}
);
},
{
color = 4;
glyphname = Q.001;
lastChange = "2017-06-26 22:57:48 +0000";
layers = (
{
anchors = (
{
name = bottom;
position = "{275, 0}";
},
{
name = top;
position = "{275, 750}";
}
);
components = (
{
name = O;
}
);
layerId = "849A9C4C-BF7C-40C5-8614-1FD725A2A379";
paths = (
{
closed = 1;
nodes = (
"428 -97 LINE",
"381 -66 OFFCURVE",
"346 -20 OFFCURVE",
"345 52 CURVE",
"246 31 LINE",
"246 -54 OFFCURVE",
"271 -127 OFFCURVE",
"338 -176 CURVE"
);
}
);
width = 549;
}
);
},
{
color = 4;
glyphname = C.002;
lastChange = "2017-06-28 16:01:09 +0000";
layers = (
{
anchors = (
{
name = bottom;
position = "{285, 0}";
},
{
name = top;
position = "{277, 750}";
}
);
background = {
components = (
{
name = O;
transform = "{1, 0, 0, 1, -2, 0}";
}
);
paths = (
{
closed = 1;
nodes = (
"117 764 OFFCURVE",
"36 600 OFFCURVE",
"36 383 CURVE SMOOTH",
"36 141 OFFCURVE",
"117 -14 OFFCURVE",
"292 -14 CURVE SMOOTH",
"432 -14 OFFCURVE",
"507 102 OFFCURVE",
"510 243 CURVE",
"386 269 LINE",
"382 195 OFFCURVE",
"358 108 OFFCURVE",
"289 108 CURVE SMOOTH",
"213 108 OFFCURVE",
"184 228 OFFCURVE",
"184 383 CURVE SMOOTH",
"184 538 OFFCURVE",
"213 640 OFFCURVE",
"289 640 CURVE SMOOTH",
"353 640 OFFCURVE",
"384 549 OFFCURVE",
"386 480 CURVE",
"513 507 LINE",
"507 637 OFFCURVE",
"431 764 OFFCURVE",
"292 764 CURVE SMOOTH"
);
}
);
};
guideLines = (
{
position = "{377, 445}";
},
{
angle = -30;
position = "{383, 264}";
},
{
angle = 40;
position = "{494, 543}";
},
{
position = "{172, 252}";
}
);
layerId = "849A9C4C-BF7C-40C5-8614-1FD725A2A379";
paths = (
{
closed = 1;
nodes = (
"447 -14 OFFCURVE",
"538 56 OFFCURVE",
"581 165 CURVE",
"482 222 LINE",
"462 154 OFFCURVE",
"409 111 OFFCURVE",
"325 111 CURVE SMOOTH",
"214 111 OFFCURVE",
"143 215 OFFCURVE",
"143 369 CURVE SMOOTH",
"143 525 OFFCURVE",
"214 639 OFFCURVE",
"322 639 CURVE SMOOTH",
"402 639 OFFCURVE",
"457 600 OFFCURVE",
"482 543 CURVE",
"576 622 LINE",
"525 715 OFFCURVE",
"443 764 OFFCURVE",
"315 764 CURVE SMOOTH",
"127 764 OFFCURVE",
"-12 615 OFFCURVE",
"-12 367 CURVE SMOOTH",
"-12 149 OFFCURVE",
"127 -14 OFFCURVE",
"315 -14 CURVE SMOOTH"
);
}
);
width = 548;
}
);
leftMetricsKey = O;
rightMetricsKey = O;
},
{
color = 4;
glyphname = M.002;
layers = (
{
anchors = (
{
name = bottom;
position = "{400, 0}";
},
{
name = top;
position = "{400, 750}";
}
);
background = {
paths = (
{
closed = 1;
nodes = (
"727 6 LINE",
"727 744 LINE",
"531 732 LINE",
"412 285 LINE",
"288 749 LINE",
"73 743 LINE",
"73 0 LINE",
"194 6 LINE",
"194 559 LINE",
"345 0 LINE",
"435 0 LINE",
"575 557 LINE",
"575 -6 LINE"
);
}
);
};
guideLines = (
{
angle = 7;
position = "{267, 759}";
},
{
angle = 7;
position = "{342, -4}";
}
);
layerId = "849A9C4C-BF7C-40C5-8614-1FD725A2A379";
paths = (
{
closed = 1;
nodes = (
"724 0 LINE",
"724 750 LINE",
"519 750 LINE",
"406 304 LINE",
"267 759 LINE",
"70 735 LINE",
"70 0 LINE",
"190 1 LINE",
"190 507 LINE",
"182 554 LINE",
"343 -3 LINE",
"442 9 LINE",
"584 554 LINE",
"577 509 LINE",
"577 0 LINE"
);
}
);
width = 794;
}
);
},
{
color = 4;
glyphname = B.ori;
lastChange = "2017-06-23 00:59:39 +0000";
layers = (
{
anchors = (
{
name = bottom;
position = "{276, 0}";
},
{
name = top;
position = "{276, 750}";
}
);
background = {
paths = (
{
closed = 1;
nodes = (
"190 0 LINE SMOOTH",
"348 0 OFFCURVE",
"521 35 OFFCURVE",
"521 210 CURVE SMOOTH",
"521 329 OFFCURVE",
"470 372 OFFCURVE",
"417 399 CURVE",
"467 424 OFFCURVE",
"498 484 OFFCURVE",
"498 557 CURVE SMOOTH",
"498 664 OFFCURVE",
"431 750 OFFCURVE",
"238 750 CURVE SMOOTH",
"70 750 LINE",
"70 0 LINE"
);
},
{
closed = 1;
nodes = (
"217 338 LINE",
"249 338 LINE SMOOTH",
"318 338 OFFCURVE",
"380 326 OFFCURVE",
"380 230 CURVE SMOOTH",
"380 186 OFFCURVE",
"351 117 OFFCURVE",
"244 117 CURVE SMOOTH",
"217 117 LINE"
);
},
{
closed = 1;
nodes = (
"212 633 LINE",
"241 633 LINE SMOOTH",
"306 633 OFFCURVE",
"362 617 OFFCURVE",
"362 542 CURVE SMOOTH",
"362 457 OFFCURVE",
"315 445 OFFCURVE",
"247 445 CURVE SMOOTH",
"212 445 LINE"
);
}
);
};
layerId = "849A9C4C-BF7C-40C5-8614-1FD725A2A379";
paths = (
{
closed = 1;
nodes = (
"190 0 LINE SMOOTH",
"348 0 OFFCURVE",
"521 35 OFFCURVE",
"521 210 CURVE SMOOTH",
"521 329 OFFCURVE",
"470 372 OFFCURVE",
"417 399 CURVE",
"467 424 OFFCURVE",
"498 484 OFFCURVE",
"498 557 CURVE SMOOTH",
"498 664 OFFCURVE",
"431 750 OFFCURVE",
"238 750 CURVE SMOOTH",
"70 750 LINE",
"70 0 LINE"
);
},
{
closed = 1;
nodes = (
"217 338 LINE",
"249 338 LINE SMOOTH",
"318 338 OFFCURVE",
"380 326 OFFCURVE",
"380 230 CURVE SMOOTH",
"380 186 OFFCURVE",
"351 117 OFFCURVE",
"244 117 CURVE SMOOTH",
"217 117 LINE"
);
},
{
closed = 1;
nodes = (
"212 633 LINE",
"241 633 LINE SMOOTH",
"306 633 OFFCURVE",
"362 617 OFFCURVE",
"362 542 CURVE SMOOTH",
"362 457 OFFCURVE",
"315 445 OFFCURVE",
"247 445 CURVE SMOOTH",
"212 445 LINE"
);
}
);
width = 551;
}
);
},
{
color = 4;
glyphname = C.ori;
lastChange = "2017-06-15 22:57:53 +0000";
layers = (
{
anchors = (
{
name = bottom;
position = "{269, 0}";
},
{
name = top;
position = "{261, 750}";
}
);
background = {
components = (
{
name = O.001;
transform = "{1, 0, 0, 1, -23, 0}";
}
);
paths = (
{
closed = 1;
nodes = (
"418 -14 OFFCURVE",
"487 116 OFFCURVE",
"487 255 CURVE",
"362 267 LINE",
"357 202 OFFCURVE",
"344 104 OFFCURVE",
"283 104 CURVE SMOOTH",
"199 104 OFFCURVE",
"186 249 OFFCURVE",
"186 391 CURVE SMOOTH",
"186 501 OFFCURVE",
"199 646 OFFCURVE",
"269 646 CURVE SMOOTH",
"341 646 OFFCURVE",
"344 501 OFFCURVE",
"344 486 CURVE",
"486 493 LINE",
"486 625 OFFCURVE",
"409 764 OFFCURVE",
"277 764 CURVE SMOOTH",
"102 764 OFFCURVE",
"40 559 OFFCURVE",
"40 391 CURVE SMOOTH",
"40 201 OFFCURVE",
"85 -14 OFFCURVE",
"274 -14 CURVE SMOOTH"
);
},
{
closed = 1;
nodes = (
"418 -14 OFFCURVE",
"487 116 OFFCURVE",
"487 255 CURVE",
"362 267 LINE",
"357 202 OFFCURVE",
"344 104 OFFCURVE",
"283 104 CURVE SMOOTH",
"199 104 OFFCURVE",
"186 249 OFFCURVE",
"186 391 CURVE SMOOTH",
"186 501 OFFCURVE",
"199 646 OFFCURVE",
"269 646 CURVE SMOOTH",
"341 646 OFFCURVE",
"344 501 OFFCURVE",
"344 486 CURVE",
"486 493 LINE",
"486 625 OFFCURVE",
"409 764 OFFCURVE",
"277 764 CURVE SMOOTH",
"102 764 OFFCURVE",
"40 559 OFFCURVE",
"40 391 CURVE SMOOTH",
"40 201 OFFCURVE",
"85 -14 OFFCURVE",
"274 -14 CURVE SMOOTH"
);
},
{
closed = 1;
nodes = (
"88 764 OFFCURVE",
"20 590 OFFCURVE",
"20 369 CURVE SMOOTH",
"20 163 OFFCURVE",
"96 -14 OFFCURVE",
"277 -14 CURVE SMOOTH",
"407 -14 OFFCURVE",
"470 71 OFFCURVE",
"501 187 CURVE",
"374 214 LINE",
"365 157 OFFCURVE",
"336 114 OFFCURVE",
"282 114 CURVE SMOOTH",
"188 114 OFFCURVE",
"171 245 OFFCURVE",
"171 370 CURVE SMOOTH",
"171 517 OFFCURVE",
"185 639 OFFCURVE",
"282 639 CURVE SMOOTH",
"340 639 OFFCURVE",
"361 591 OFFCURVE",
"375 542 CURVE",
"497 568 LINE",
"465 680 OFFCURVE",
"401 764 OFFCURVE",
"277 764 CURVE SMOOTH"
);
}
);
};
guideLines = (
{
position = "{361, 445}";
},
{
angle = -12;
position = "{371, 209}";
},
{
angle = 12;
position = "{368, 534}";
},
{
position = "{156, 252}";
}
);
layerId = "849A9C4C-BF7C-40C5-8614-1FD725A2A379";
paths = (
{
closed = 1;
nodes = (
"418 -14 OFFCURVE",
"487 116 OFFCURVE",
"487 255 CURVE",
"362 267 LINE",
"357 202 OFFCURVE",
"344 104 OFFCURVE",
"283 104 CURVE SMOOTH",
"199 104 OFFCURVE",
"186 249 OFFCURVE",
"186 391 CURVE SMOOTH",
"186 501 OFFCURVE",
"199 646 OFFCURVE",
"269 646 CURVE SMOOTH",
"341 646 OFFCURVE",
"344 501 OFFCURVE",
"344 486 CURVE",
"486 493 LINE",
"486 625 OFFCURVE",
"409 764 OFFCURVE",
"277 764 CURVE SMOOTH",
"102 764 OFFCURVE",
"40 559 OFFCURVE",
"40 391 CURVE SMOOTH",
"40 201 OFFCURVE",
"85 -14 OFFCURVE",
"274 -14 CURVE SMOOTH"
);
}
);
width = 522;
}
);
},
{
color = 4;
glyphname = E.ori;
lastChange = "2017-06-25 23:08:57 +0000";
layers = (
{
anchors = (
{
name = bottom;
position = "{242, 0}";
},
{
name = ogonek;
position = "{459, 0}";
},
{
name = top;
position = "{242, 750}";
},
{
name = topleft;
position = "{10, 750}";
}
);
guideLines = (
{
position = "{447, 622}";
},
{
position = "{405, 443}";
}
);
layerId = "849A9C4C-BF7C-40C5-8614-1FD725A2A379";
paths = (
{
closed = 1;
nodes = (
"459 117 LINE",
"217 117 LINE",
"217 328 LINE",
"374 328 LINE",
"375 454 LINE",
"217 454 LINE",
"217 633 LINE",
"439 633 LINE",
"451 750 LINE",
"70 750 LINE",
"70 0 LINE",
"447 0 LINE"
);
}
);
width = 483;
}
);
},
{
color = 4;
glyphname = F.ori;
lastChange = "2017-06-25 23:09:51 +0000";
layers = (
{
anchors = (
{
name = bottom;
position = "{230, 0}";
},
{
name = top;
position = "{230, 750}";
}
);
guideLines = (
{
position = "{7, 438}";
}
);
layerId = "849A9C4C-BF7C-40C5-8614-1FD725A2A379";
paths = (
{
closed = 1;
nodes = (
"217 312 LINE",
"374 312 LINE",
"374 436 LINE",
"217 436 LINE",
"217 632 LINE",
"439 632 LINE",
"451 750 LINE",
"70 750 LINE",
"70 -6 LINE",
"217 6 LINE"
);
}
);
width = 460;
}
);
},
{
color = 4;
glyphname = G.ori;
lastChange = "2017-06-27 04:20:46 +0000";
layers = (
{
anchors = (
{
name = bottom;
position = "{276, 0}";
},
{
name = top;
position = "{276, 750}";
}
);
background = {
paths = (
{
closed = 1;
nodes = (
"379 -14 OFFCURVE",
"402 91 OFFCURVE",
"413 139 CURVE",
"437 40 OFFCURVE",
"446 6 OFFCURVE",
"447 0 CURVE",
"503 6 LINE",
"503 375 LINE",
"300 375 LINE",
"288 263 LINE",
"362 263 LINE",
"362 179 OFFCURVE",
"334 104 OFFCURVE",
"282 104 CURVE SMOOTH",
"186 104 OFFCURVE",
"186 263 OFFCURVE",
"186 370 CURVE SMOOTH",
"186 484 OFFCURVE",
"203 646 OFFCURVE",
"281 646 CURVE SMOOTH",
"351 646 OFFCURVE",
"353 552 OFFCURVE",
"361 496 CURVE",
"500 505 LINE",
"500 640 OFFCURVE",
"435 764 OFFCURVE",
"283 764 CURVE SMOOTH",
"103 764 OFFCURVE",
"40 551 OFFCURVE",
"40 378 CURVE SMOOTH",
"40 173 OFFCURVE",
"96 -14 OFFCURVE",
"254 -14 CURVE SMOOTH"
);
}
);
};
layerId = "849A9C4C-BF7C-40C5-8614-1FD725A2A379";
paths = (
{
closed = 1;
nodes = (
"379 -14 OFFCURVE",
"402 91 OFFCURVE",
"413 139 CURVE",
"437 40 OFFCURVE",
"446 6 OFFCURVE",
"447 0 CURVE",
"503 6 LINE",
"503 375 LINE",
"300 375 LINE",
"288 263 LINE",
"362 263 LINE",
"362 179 OFFCURVE",
"334 104 OFFCURVE",
"282 104 CURVE SMOOTH",
"186 104 OFFCURVE",
"186 263 OFFCURVE",
"186 370 CURVE SMOOTH",
"186 484 OFFCURVE",
"203 646 OFFCURVE",
"281 646 CURVE SMOOTH",
"345 646 OFFCURVE",
"358 573 OFFCURVE",
"361 496 CURVE",
"500 505 LINE",
"500 653 OFFCURVE",
"435 764 OFFCURVE",
"283 764 CURVE SMOOTH",
"103 764 OFFCURVE",
"40 551 OFFCURVE",
"40 378 CURVE SMOOTH",
"40 173 OFFCURVE",
"96 -14 OFFCURVE",
"254 -14 CURVE SMOOTH"
);
}
);
width = 553;
}
);
},
{
color = 4;
glyphname = Hbar.ori;
lastChange = "2017-07-13 12:58:43 +0000";
layers = (
{
background = {
components = (
{
name = H;
}
);
};
layerId = "849A9C4C-BF7C-40C5-8614-1FD725A2A379";
paths = (
{
closed = 1;
nodes = (
"71 -6 LINE",
"217 6 LINE",
"217 312 LINE",
"358 312 LINE",
"358 -6 LINE",
"504 6 LINE",
"504 646 LINE",
"504 750 LINE",
"358 738 LINE",
"358 646 LINE",
"358 446 LINE",
"217 446 LINE",
"217 646 LINE",
"217 750 LINE",
"71 738 LINE",
"71 646 LINE"
);
},
{
closed = 1;
nodes = (
"556 567 LINE",
"556 656 LINE",
"13 656 LINE",
"13 567 LINE"
);
}
);
width = 576;
}
);
},
{
color = 4;
glyphname = K.ori;
lastChange = "2017-06-21 18:31:02 +0000";
layers = (
{
anchors = (
{
name = bottom;
position = "{281, 0}";
},
{
name = top;
position = "{281, 750}";
}
);
layerId = "849A9C4C-BF7C-40C5-8614-1FD725A2A379";
paths = (
{
closed = 1;
nodes = (
"553 21 LINE",
"390 440 LINE",
"551 750 LINE",
"395 750 LINE",
"217 422 LINE",
"217 750 LINE",
"70 738 LINE",
"70 0 LINE",
"217 0 LINE",
"217 237 LINE",
"274 336 LINE",
"404 -13 LINE"
);
}
);
width = 563;
}
);
},
{
color = 4;
glyphname = M.ori;
lastChange = "2017-06-15 22:57:58 +0000";
layers = (
{
anchors = (
{
name = bottom;
position = "{397, 0}";
},
{
name = top;
position = "{397, 750}";
}
);
background = {
paths = (
{
closed = 1;
nodes = (
"724 6 LINE",
"724 744 LINE",
"528 732 LINE",
"409 285 LINE",
"285 749 LINE",
"70 743 LINE",
"70 0 LINE",
"191 6 LINE",
"191 559 LINE",
"342 0 LINE",
"432 0 LINE",
"572 557 LINE",
"572 -6 LINE"
);
}
);
};
guideLines = (
{
angle = 7;
position = "{340, -7}";
},
{
angle = 7;
position = "{575, -10}";
}
);
layerId = "849A9C4C-BF7C-40C5-8614-1FD725A2A379";
paths = (
{
closed = 1;
nodes = (
"724 6 LINE",
"724 744 LINE",
"528 732 LINE",
"409 285 LINE",
"285 749 LINE",
"70 743 LINE",
"70 0 LINE",
"191 6 LINE",
"191 559 LINE",
"342 0 LINE",
"432 0 LINE",
"572 557 LINE",
"572 -6 LINE"
);
}
);
width = 794;
}
);
},
{
color = 4;
glyphname = O.ori;
lastChange = "2017-06-25 22:45:13 +0000";
layers = (
{
anchors = (
{
name = bottom;
position = "{275, 0}";
},
{
name = center;
position = "{275, 375}";
},
{
name = ogonek;
position = "{445, 5}";
},
{
name = top;
position = "{275, 750}";
},
{
name = topleft;
position = "{10, 750}";
},
{
name = topright;
position = "{492, 463}";
}
);
background = {
paths = (
{
closed = 1;
nodes = (
"463 -14 OFFCURVE",
"507 192 OFFCURVE",
"507 383 CURVE SMOOTH",
"507 623 OFFCURVE",
"438 764 OFFCURVE",
"274 764 CURVE SMOOTH",
"104 764 OFFCURVE",
"42 613 OFFCURVE",
"42 379 CURVE SMOOTH",
"42 180 OFFCURVE",
"87 -14 OFFCURVE",
"272 -14 CURVE SMOOTH"
);
},
{
closed = 1;
nodes = (
"197 104 OFFCURVE",
"188 223 OFFCURVE",
"188 385 CURVE SMOOTH",
"188 490 OFFCURVE",
"192 646 OFFCURVE",
"274 646 CURVE SMOOTH",
"356 646 OFFCURVE",
"361 490 OFFCURVE",
"361 384 CURVE SMOOTH",
"361 222 OFFCURVE",
"351 104 OFFCURVE",
"274 104 CURVE SMOOTH"
);
}
);
};
layerId = "849A9C4C-BF7C-40C5-8614-1FD725A2A379";
paths = (
{
closed = 1;
nodes = (
"463 -14 OFFCURVE",
"507 192 OFFCURVE",
"507 383 CURVE SMOOTH",
"507 623 OFFCURVE",
"438 764 OFFCURVE",
"274 764 CURVE SMOOTH",
"104 764 OFFCURVE",
"42 613 OFFCURVE",
"42 379 CURVE SMOOTH",
"42 180 OFFCURVE",
"87 -14 OFFCURVE",
"272 -14 CURVE SMOOTH"
);
},
{
closed = 1;
nodes = (
"197 104 OFFCURVE",
"188 223 OFFCURVE",
"188 385 CURVE SMOOTH",
"188 490 OFFCURVE",
"192 646 OFFCURVE",
"274 646 CURVE SMOOTH",
"356 646 OFFCURVE",
"361 490 OFFCURVE",
"361 384 CURVE SMOOTH",
"361 222 OFFCURVE",
"351 104 OFFCURVE",
"274 104 CURVE SMOOTH"
);
}
);
width = 549;
}
);
},
{
color = 4;
glyphname = P.ori;
lastChange = "2017-06-17 19:41:52 +0000";
layers = (
{
anchors = (
{
name = bottom;
position = "{267, 0}";
},
{
name = top;
position = "{267, 750}";
}
);
layerId = "849A9C4C-BF7C-40C5-8614-1FD725A2A379";
paths = (
{
closed = 1;
nodes = (
"217 6 LINE",
"217 295 LINE",
"350 295 OFFCURVE",
"514 314 OFFCURVE",
"514 525 CURVE SMOOTH",
"514 718 OFFCURVE",
"407 750 OFFCURVE",
"219 750 CURVE SMOOTH",
"70 750 LINE",
"70 -6 LINE"
);
},
{
closed = 1;
nodes = (
"218 633 LINE",
"239 633 LINE SMOOTH",
"321 633 OFFCURVE",
"368 616 OFFCURVE",
"368 526 CURVE SMOOTH",
"368 434 OFFCURVE",
"311 414 OFFCURVE",
"243 414 CURVE SMOOTH",
"218 414 LINE"
);
}
);
width = 533;
}
);
},
{
color = 4;
glyphname = R.ori;
lastChange = "2017-06-21 18:30:49 +0000";
layers = (
{
anchors = (
{
name = bottom;
position = "{283, 0}";
},
{
name = top;
position = "{283, 750}";
}
);
background = {
components = (
{
name = P;
}
);
paths = (
{
closed = 1;
nodes = (
"551 26 LINE",
"483 188 LINE SMOOTH",
"450 268 OFFCURVE",
"416 350 OFFCURVE",
"416 351 CURVE",
"480 388 OFFCURVE",
"523 443 OFFCURVE",
"523 541 CURVE SMOOTH",
"523 688 OFFCURVE",
"413 750 OFFCURVE",
"248 750 CURVE",
"70 750 LINE",
"70 -6 LINE",
"216 6 LINE",
"216 329 LINE",
"273 329 LINE",
"407 -13 LINE"
);
},
{
closed = 1;
nodes = (
"216 633 LINE",
"285 633 LINE SMOOTH",
"337 633 OFFCURVE",
"377 610 OFFCURVE",
"377 540 CURVE SMOOTH",
"377 452 OFFCURVE",
"325 437 OFFCURVE",
"266 437 CURVE SMOOTH",
"216 437 LINE"
);
}
);
};
layerId = "849A9C4C-BF7C-40C5-8614-1FD725A2A379";
paths = (
{
closed = 1;
nodes = (
"551 26 LINE",
"483 188 LINE SMOOTH",
"450 268 OFFCURVE",
"416 350 OFFCURVE",
"416 351 CURVE",
"480 388 OFFCURVE",
"523 443 OFFCURVE",
"523 541 CURVE SMOOTH",
"523 688 OFFCURVE",
"413 750 OFFCURVE",
"248 750 CURVE",
"70 750 LINE",
"70 -6 LINE",
"216 6 LINE",
"216 329 LINE",
"273 329 LINE",
"407 -13 LINE"
);
},
{
closed = 1;
nodes = (
"216 633 LINE",
"285 633 LINE SMOOTH",
"337 633 OFFCURVE",
"377 610 OFFCURVE",
"377 540 CURVE SMOOTH",
"377 452 OFFCURVE",
"325 437 OFFCURVE",
"266 437 CURVE SMOOTH",
"216 437 LINE"
);
}
);
width = 565;
}
);
},
{
color = 4;
glyphname = S.ori;
lastChange = "2017-06-17 19:45:18 +0000";
layers = (
{
anchors = (
{
name = bottom;
position = "{267, 0}";
},
{
name = top;
position = "{267, 750}";
}
);
guideLines = (
{
angle = 150.8712;
position = "{235, 491}";
},
{
angle = 150.8712;
position = "{238, 315}";
},
{
angle = 216.2538;
position = "{59, 170}";
},
{
angle = 216.2538;
position = "{465, 589}";
}
);
layerId = "849A9C4C-BF7C-40C5-8614-1FD725A2A379";
paths = (
{
closed = 1;
nodes = (
"313 -14 OFFCURVE",
"353 -4 OFFCURVE",
"390 16 CURVE SMOOTH",
"462 56 OFFCURVE",
"507 131 OFFCURVE",
"507 226 CURVE",
"502 309 OFFCURVE",
"455 375 OFFCURVE",
"366 426 CURVE SMOOTH",
"245 497 LINE SMOOTH",
"220 512 OFFCURVE",
"199 539 OFFCURVE",
"199 571 CURVE SMOOTH",
"199 615 OFFCURVE",
"223 646 OFFCURVE",
"267 646 CURVE SMOOTH",
"303 646 OFFCURVE",
"327 630 OFFCURVE",
"344 593 CURVE SMOOTH",
"353 574 OFFCURVE",
"358 562 OFFCURVE",
"361 557 CURVE",
"485 613 LINE",
"450 713 OFFCURVE",
"377 764 OFFCURVE",
"274 764 CURVE SMOOTH",
"230 764 OFFCURVE",
"191 755 OFFCURVE",
"156 736 CURVE SMOOTH",
"86 699 OFFCURVE",
"42 628 OFFCURVE",
"42 541 CURVE SMOOTH",
"42 460 OFFCURVE",
"91 393 OFFCURVE",
"167 350 CURVE SMOOTH",
"298 272 LINE",
"327 253 OFFCURVE",
"348 221 OFFCURVE",
"348 184 CURVE SMOOTH",
"348 144 OFFCURVE",
"316 104 OFFCURVE",
"281 104 CURVE SMOOTH",
"228 104 OFFCURVE",
"198 143 OFFCURVE",
"159 210 CURVE SMOOTH",
"147 230 LINE",
"23 172 LINE",
"62 59 OFFCURVE",
"147 -14 OFFCURVE",
"268 -14 CURVE SMOOTH"
);
}
);
width = 533;
}
);
},
{
color = 4;
glyphname = V.ori;
lastChange = "2017-06-15 22:58:03 +0000";
layers = (
{
anchors = (
{
name = bottom;
position = "{267, 0}";
},
{
name = top;
position = "{267, 750}";
}
);
background = {
paths = (
{
closed = 1;
nodes = (
"346 0 LINE",
"526 750 LINE",
"385 744 LINE",
"281 232 LINE",
"182 750 LINE",
"8 744 LINE",
"185 0 LINE"
);
}
);
};
guideLines = (
{
angle = 7;
position = "{33, 743}";
}
);
layerId = "849A9C4C-BF7C-40C5-8614-1FD725A2A379";
paths = (
{
closed = 1;
nodes = (
"346 0 LINE",
"526 750 LINE",
"385 744 LINE",
"281 232 LINE",
"182 750 LINE",
"8 744 LINE",
"185 0 LINE"
);
}
);
width = 533;
}
);
},
{
color = 4;
glyphname = W.ori;
lastChange = "2017-06-15 22:58:06 +0000";
layers = (
{
anchors = (
{
name = bottom;
position = "{387, 0}";
},
{
name = top;
position = "{387, 750}";
}
);
background = {
paths = (
{
closed = 1;
nodes = (
"300 0 LINE",
"381 458 LINE",
"460 0 LINE",
"605 0 LINE",
"766 750 LINE",
"631 744 LINE",
"536 296 LINE",
"457 750 LINE",
"337 744 LINE",
"252 301 LINE",
"173 750 LINE",
"13 744 LINE",
"166 0 LINE"
);
}
);
};
guideLines = (
{
angle = 2.1476;
position = "{93, 747}";
},
{
angle = 2.8624;
position = "{397, 747}";
},
{
angle = 2.5448;
position = "{699, 747}";
},
{
angle = 7;
position = "{-1, 743}";
}
);
layerId = "849A9C4C-BF7C-40C5-8614-1FD725A2A379";
paths = (
{
closed = 1;
nodes = (
"300 0 LINE",
"381 458 LINE",
"460 0 LINE",
"605 0 LINE",
"766 750 LINE",
"631 744 LINE",
"536 296 LINE",
"457 750 LINE",
"337 744 LINE",
"252 301 LINE",
"173 750 LINE",
"13 744 LINE",
"166 0 LINE"
);
}
);
width = 774;
}
);
},
{
color = 4;
glyphname = a;
lastChange = "2017-07-13 13:28:46 +0000";
layers = (
{
anchors = (
{
name = bottom;
position = "{239, 0}";
},
{
name = ogonek;
position = "{504, -4}";
},
{
name = top;
position = "{248, 563}";
}
);
background = {
components = (
{
name = s;
transform = "{1, 0, 0, 1, 17, 0}";
},
{
name = n;
transform = "{-1, 0, 0, -1, 480, 531}";
}
);
paths = (
{
closed = 1;
nodes = (
"213 -13 OFFCURVE",
"259 22 OFFCURVE",
"282 63 CURVE",
"298 -6 LINE",
"435 6 LINE",
"425 41 OFFCURVE",
"420 69 OFFCURVE",
"420 106 CURVE SMOOTH",
"420 397 LINE SMOOTH",
"420 493 OFFCURVE",
"365 570 OFFCURVE",
"238 570 CURVE SMOOTH",
"157 570 OFFCURVE",
"74 539 OFFCURVE",
"51 427 CURVE",
"185 403 LINE",
"189 435 OFFCURVE",
"205 467 OFFCURVE",
"238 467 CURVE SMOOTH",
"279 467 OFFCURVE",
"279 416 OFFCURVE",
"279 361 CURVE",
"181 355 OFFCURVE",
"31 313 OFFCURVE",
"31 149 CURVE SMOOTH",
"31 42 OFFCURVE",
"86 -13 OFFCURVE",
"162 -13 CURVE SMOOTH"
);
},
{
closed = 1;
nodes = (
"186 87 OFFCURVE",
"169 117 OFFCURVE",
"169 166 CURVE SMOOTH",
"169 246 OFFCURVE",
"216 277 OFFCURVE",
"279 277 CURVE",
"279 121 LINE",
"261 102 OFFCURVE",
"247 87 OFFCURVE",
"222 87 CURVE SMOOTH"
);
}
);
};
guideLines = (
{
position = "{49, 471}";
},
{
angle = -12;
position = "{51, 415}";
}
);
layerId = "849A9C4C-BF7C-40C5-8614-1FD725A2A379";
paths = (
{
closed = 1;
nodes = (
"138 340 OFFCURVE",
"32 280 OFFCURVE",
"32 148 CURVE SMOOTH",
"32 48 OFFCURVE",
"90 -10 OFFCURVE",
"164 -10 CURVE SMOOTH",
"237 -10 OFFCURVE",
"279 35 OFFCURVE",
"296 92 CURVE",
"280 160 LINE",
"280 131 OFFCURVE",
"260 99 OFFCURVE",
"225 99 CURVE SMOOTH",
"189 99 OFFCURVE",
"171 126 OFFCURVE",
"171 168 CURVE SMOOTH",
"171 222 OFFCURVE",
"211 265 OFFCURVE",
"280 265 CURVE",
"280 340 LINE"
);
},
{
closed = 1;
nodes = (
"289 54 OFFCURVE",
"293 28 OFFCURVE",
"303 0 CURVE",
"439 0 LINE",
"424 45 OFFCURVE",
"420 94 OFFCURVE",
"420 148 CURVE SMOOTH",
"420 372 LINE SMOOTH",
"420 498 OFFCURVE",
"361 573 OFFCURVE",
"234 573 CURVE SMOOTH",
"137 573 OFFCURVE",
"66 521 OFFCURVE",
"49 418 CURVE",
"173 391 LINE",
"178 430 OFFCURVE",
"199 463 OFFCURVE",
"230 463 CURVE SMOOTH",
"269 463 OFFCURVE",
"280 428 OFFCURVE",
"280 387 CURVE SMOOTH",
"280 86 LINE",
"289 86 LINE"
);
}
);
width = 473;
}
);
unicode = 0061;
},
{
color = 4;
glyphname = ae;
lastChange = "2016-07-29 15:34:05 +0000";
layers = (
{
layerId = "849A9C4C-BF7C-40C5-8614-1FD725A2A379";
paths = (
{
closed = 1;
nodes = (
"239 -13 OFFCURVE",
"316 7 OFFCURVE",
"348 70 CURVE",
"382 18 OFFCURVE",
"420 -13 OFFCURVE",
"485 -13 CURVE SMOOTH",
"579 -13 OFFCURVE",
"642 50 OFFCURVE",
"667 142 CURVE",
"561 182 LINE",
"555 170 OFFCURVE",
"527 90 OFFCURVE",
"482 90 CURVE SMOOTH",
"432 90 OFFCURVE",
"415 191 OFFCURVE",
"415 262 CURVE",
"683 262 LINE",
"683 271 OFFCURVE",
"683 279 OFFCURVE",
"683 287 CURVE SMOOTH",
"683 466 OFFCURVE",
"615 570 OFFCURVE",
"489 570 CURVE SMOOTH",
"430 570 OFFCURVE",
"390 546 OFFCURVE",
"353 504 CURVE",
"323 548 OFFCURVE",
"289 570 OFFCURVE",
"228 570 CURVE SMOOTH",
"154 570 OFFCURVE",
"59 538 OFFCURVE",
"46 427 CURVE",
"183 403 LINE",
"187 434 OFFCURVE",
"199 467 OFFCURVE",
"233 467 CURVE SMOOTH",
"271 467 OFFCURVE",
"274 427 OFFCURVE",
"274 361 CURVE",
"177 355 OFFCURVE",
"26 320 OFFCURVE",
"26 159 CURVE SMOOTH",
"26 60 OFFCURVE",
"83 -13 OFFCURVE",
"186 -13 CURVE SMOOTH"
);
},
{
closed = 1;
nodes = (
"183 87 OFFCURVE",
"164 117 OFFCURVE",
"164 167 CURVE SMOOTH",
"164 246 OFFCURVE",
"211 277 OFFCURVE",
"274 277 CURVE",
"274 187 LINE SMOOTH",
"274 157 OFFCURVE",
"262 87 OFFCURVE",
"214 87 CURVE SMOOTH"
);
},
{
closed = 1;
nodes = (
"417 420 OFFCURVE",
"446 473 OFFCURVE",
"487 473 CURVE SMOOTH",
"529 473 OFFCURVE",
"549 417 OFFCURVE",
"549 343 CURVE",
"415 343 LINE"
);
}
);
width = 711;
}
);
unicode = 00E6;
},
{
color = 4;
glyphname = b;
lastChange = "2017-07-13 03:59:17 +0000";
layers = (
{
anchors = (
{
name = bottom;
position = "{257, 0}";
},
{
name = top;
position = "{257, 563}";
}
);
background = {
paths = (
{
closed = 1;
nodes = (
"423 -13 OFFCURVE",
"481 78 OFFCURVE",
"481 281 CURVE SMOOTH",
"481 495 OFFCURVE",
"422 570 OFFCURVE",
"342 570 CURVE SMOOTH",
"284 570 OFFCURVE",
"232 538 OFFCURVE",
"199 491 CURVE",
"199 750 LINE",
"59 732 LINE",
"59 0 LINE",
"168 0 LINE",
"199 70 LINE",
"211 28 OFFCURVE",
"238 -13 OFFCURVE",
"320 -13 CURVE SMOOTH"
);
},
{
closed = 1;
nodes = (
"234 87 OFFCURVE",
"199 117 OFFCURVE",
"199 234 CURVE SMOOTH",
"199 412 LINE",
"212 425 OFFCURVE",
"250 450 OFFCURVE",
"277 450 CURVE SMOOTH",
"329 450 OFFCURVE",
"341 409 OFFCURVE",
"341 281 CURVE SMOOTH",
"341 177 OFFCURVE",
"336 87 OFFCURVE",
"268 87 CURVE SMOOTH"
);
}
);
};
components = (
{
name = d_bowl;
transform = "{-1, 0, 0, -1, 477, 557}";
}
);
guideLines = (
{
angle = 7;
position = "{124, 751}";
},
{
angle = 7;
position = "{187, 8}";
}
);
layerId = "849A9C4C-BF7C-40C5-8614-1FD725A2A379";
paths = (
{
closed = 1;
nodes = (
"199 760 LINE",
"59 743 LINE",
"59 0 LINE",
"187 0 LINE",
"187 84 LINE",
"199 138 LINE"
);
}
);
width = 515;
}
);
leftMetricsKey = h;
rightMetricsKey = o;
unicode = 0062;
},
{
color = 4;
glyphname = c;
lastChange = "2017-07-13 01:57:30 +0000";
layers = (
{
anchors = (
{
name = bottom;
position = "{226, 0}";
},
{
name = top;
position = "{226, 563}";
}
);
background = {
components = (
{
name = o;
transform = "{1, 0, 0, 1, -2, 0}";
},
{
name = e;
}
);
};
guideLines = (
{
angle = -12;
position = "{313, 203}";
},
{
angle = 12;
position = "{313, 353}";
},
{
angle = 90;
position = "{250, 279}";
}
);
layerId = "849A9C4C-BF7C-40C5-8614-1FD725A2A379";
paths = (
{
closed = 1;
nodes = (
"354 -13 OFFCURVE",
"425 74 OFFCURVE",
"437 176 CURVE",
"316 202 LINE",
"311 156 OFFCURVE",
"297 93 OFFCURVE",
"249 93 CURVE SMOOTH",
"198 93 OFFCURVE",
"180 165 OFFCURVE",
"180 278 CURVE SMOOTH",
"180 376 OFFCURVE",
"191 464 OFFCURVE",
"248 464 CURVE SMOOTH",
"298 464 OFFCURVE",
"306 403 OFFCURVE",
"310 353 CURVE",
"437 379 LINE",
"428 499 OFFCURVE",
"359 570 OFFCURVE",
"249 570 CURVE SMOOTH",
"117 570 OFFCURVE",
"36 457 OFFCURVE",
"36 278 CURVE SMOOTH",
"36 101 OFFCURVE",
"106 -13 OFFCURVE",
"248 -13 CURVE SMOOTH"
);
}
);
width = 468;
}
);
unicode = 0063;
},
{
color = 4;
glyphname = d;
lastChange = "2017-07-07 04:30:36 +0000";
layers = (
{
anchors = (
{
name = bottom;
position = "{257, 0}";
},
{
name = center;
position = "{351, 644}";
},
{
name = top;
position = "{257, 563}";
},
{
name = topright;
position = "{506, 563}";
}
);
background = {
paths = (
{
closed = 1;
nodes = (
"278 -13 OFFCURVE",
"305 28 OFFCURVE",
"316 70 CURVE",
"351 -6 LINE",
"457 6 LINE",
"457 750 LINE",
"316 732 LINE",
"316 488 LINE",
"296 534 OFFCURVE",
"248 570 OFFCURVE",
"199 570 CURVE SMOOTH",
"88 570 OFFCURVE",
"34 489 OFFCURVE",
"34 281 CURVE SMOOTH",
"34 78 OFFCURVE",
"93 -13 OFFCURVE",
"196 -13 CURVE SMOOTH"
);
},
{
closed = 1;
nodes = (
"179 87 OFFCURVE",
"175 177 OFFCURVE",
"175 281 CURVE SMOOTH",
"175 385 OFFCURVE",
"179 467 OFFCURVE",
"248 467 CURVE SMOOTH",
"275 467 OFFCURVE",
"298 450 OFFCURVE",
"316 422 CURVE",
"316 234 LINE SMOOTH",
"316 117 OFFCURVE",
"282 87 OFFCURVE",
"248 87 CURVE SMOOTH"
);
},
{
closed = 1;
nodes = (
"275 467 OFFCURVE",
"298 450 OFFCURVE",
"316 422 CURVE",
"316 488 LINE",
"296 534 OFFCURVE",
"248 570 OFFCURVE",
"199 570 CURVE SMOOTH",
"88 570 OFFCURVE",
"34 489 OFFCURVE",
"34 281 CURVE SMOOTH",
"34 78 OFFCURVE",
"93 -13 OFFCURVE",
"196 -13 CURVE SMOOTH",
"278 -13 OFFCURVE",
"305 28 OFFCURVE",
"316 70 CURVE",
"316 234 LINE",
"316 117 OFFCURVE",
"282 87 OFFCURVE",
"248 87 CURVE SMOOTH",
"179 87 OFFCURVE",
"175 177 OFFCURVE",
"175 281 CURVE SMOOTH",
"175 385 OFFCURVE",
"179 467 OFFCURVE",
"248 467 CURVE SMOOTH"
);
}
);
};
components = (
{
name = d_bowl;
transform = "{1, 0, 0, 1, 38, 0}";
}
);
guideLines = (
{
angle = 7;
position = "{389, 752}";
}
);
layerId = "849A9C4C-BF7C-40C5-8614-1FD725A2A379";
paths = (
{
closed = 1;
nodes = (
"316 138 LINE",
"328 137 LINE",
"328 -8 LINE",
"456 8 LINE",
"456 760 LINE",
"316 743 LINE"
);
}
);
width = 514;
}
);
leftMetricsKey = o;
unicode = 0064;
},
{
glyphname = d_bowl;
lastChange = "2017-07-07 02:33:38 +0000";
layers = (
{
layerId = "849A9C4C-BF7C-40C5-8614-1FD725A2A379";
paths = (
{
closed = 1;
nodes = (
"259 466 OFFCURVE",
"278 414 OFFCURVE",
"278 363 CURVE",
"301 408 LINE",
"301 475 OFFCURVE",
"269 570 OFFCURVE",
"174 570 CURVE SMOOTH",
"50 570 OFFCURVE",
"0 442 OFFCURVE",
"0 281 CURVE SMOOTH",
"0 98 OFFCURVE",
"50 -13 OFFCURVE",
"165 -13 CURVE SMOOTH",
"253 -13 OFFCURVE",
"301 55 OFFCURVE",
"301 145 CURVE",
"278 208 LINE",
"278 140 OFFCURVE",
"252 91 OFFCURVE",
"215 91 CURVE SMOOTH",
"159 91 OFFCURVE",
"140 161 OFFCURVE",
"140 280 CURVE SMOOTH",
"140 392 OFFCURVE",
"167 466 OFFCURVE",
"218 466 CURVE SMOOTH"
);
}
);
width = 278;
}
);
},
{
color = 4;
glyphname = eth;
lastChange = "2017-06-30 03:10:54 +0000";
layers = (
{
background = {
paths = (
{
closed = 1;
nodes = (
"413 -16 OFFCURVE",
"447 194 OFFCURVE",
"447 378 CURVE SMOOTH",
"447 541 OFFCURVE",
"384 766 OFFCURVE",
"219 766 CURVE SMOOTH",
"131 766 OFFCURVE",
"83 752 OFFCURVE",
"-4 680 CURVE",
"49 589 LINE",
"76 614 OFFCURVE",
"142 657 OFFCURVE",
"194 657 CURVE SMOOTH",
"296 657 OFFCURVE",
"302 500 OFFCURVE",
"304 418 CURVE",
"273 441 OFFCURVE",
"229 457 OFFCURVE",
"189 457 CURVE SMOOTH",
"85 457 OFFCURVE",
"21 343 OFFCURVE",
"21 221 CURVE SMOOTH",
"21 101 OFFCURVE",
"106 -16 OFFCURVE",
"230 -16 CURVE SMOOTH"
);
},
{
closed = 1;
nodes = (
"176 112 OFFCURVE",
"162 175 OFFCURVE",
"162 218 CURVE SMOOTH",
"162 276 OFFCURVE",
"181 338 OFFCURVE",
"238 338 CURVE SMOOTH",
"256 338 OFFCURVE",
"272 333 OFFCURVE",
"284 327 CURVE",
"303 317 LINE",
"303 314 OFFCURVE",
"303 312 OFFCURVE",
"304 309 CURVE",
"304 305 OFFCURVE",
"304 300 OFFCURVE",
"304 297 CURVE SMOOTH",
"304 235 OFFCURVE",
"309 112 OFFCURVE",
"236 112 CURVE SMOOTH"
);
}
);
};
guideLines = (
{
angle = 7;
position = "{195, 750}";
}
);
layerId = "849A9C4C-BF7C-40C5-8614-1FD725A2A379";
paths = (
{
closed = 1;
nodes = (
"318 469 LINE",
"305 515 OFFCURVE",
"273 570 OFFCURVE",
"207 570 CURVE SMOOTH",
"113 570 OFFCURVE",
"40 489 OFFCURVE",
"40 276 CURVE SMOOTH",
"40 59 OFFCURVE",
"139 -12 OFFCURVE",
"253 -13 CURVE SMOOTH",
"394 -15 OFFCURVE",
"460 124 OFFCURVE",
"460 309 CURVE SMOOTH",
"460 508 OFFCURVE",
"407 672 OFFCURVE",
"311 791 CURVE",
"195 750 LINE",
"277 634 OFFCURVE",
"327 482 OFFCURVE",
"327 325 CURVE SMOOTH",
"327 229 OFFCURVE",
"321 87 OFFCURVE",
"259 87 CURVE SMOOTH",
"199 87 OFFCURVE",
"178 177 OFFCURVE",
"178 280 CURVE SMOOTH",
"178 385 OFFCURVE",
"192 467 OFFCURVE",
"253 467 CURVE SMOOTH",
"284 467 OFFCURVE",
"318 448 OFFCURVE",
"324 392 CURVE"
);
},
{
closed = 1;
nodes = (
"112 601 LINE",
"450 675 LINE",
"436 743 LINE",
"97 669 LINE"
);
}
);
width = 491;
}
);
unicode = 00F0;
},
{
color = 4;
glyphname = dcaron;
lastChange = "2016-07-29 15:34:05 +0000";
layers = (
{
layerId = "849A9C4C-BF7C-40C5-8614-1FD725A2A379";
paths = (
{
closed = 1;
nodes = (
"251 -13 OFFCURVE",
"282 7 OFFCURVE",
"299 28 CURVE SMOOTH",
"309 41 OFFCURVE",
"316 55 OFFCURVE",
"320 70 CURVE",
"354 -6 LINE",
"461 6 LINE",
"461 750 LINE",
"320 732 LINE",
"320 488 LINE",
"308 503 OFFCURVE",
"295 517 OFFCURVE",
"281 529 CURVE SMOOTH",
"257 550 OFFCURVE",
"224 570 OFFCURVE",
"193 570 CURVE SMOOTH",
"82 570 OFFCURVE",
"38 489 OFFCURVE",
"38 281 CURVE SMOOTH",
"38 78 OFFCURVE",
"97 -13 OFFCURVE",
"200 -13 CURVE SMOOTH"
);
},
{
closed = 1;
nodes = (
"183 87 OFFCURVE",
"179 177 OFFCURVE",
"179 281 CURVE SMOOTH",
"179 385 OFFCURVE",
"183 467 OFFCURVE",
"252 467 CURVE SMOOTH",
"269 467 OFFCURVE",
"286 456 OFFCURVE",
"299 444 CURVE SMOOTH",
"306 438 OFFCURVE",
"313 430 OFFCURVE",
"320 422 CURVE",
"320 234 LINE SMOOTH",
"320 117 OFFCURVE",
"286 87 OFFCURVE",
"252 87 CURVE SMOOTH"
);
},
{
closed = 1;
nodes = (
"575 470 OFFCURVE",
"594 476 OFFCURVE",
"611 486 CURVE SMOOTH",
"641 503 OFFCURVE",
"670 539 OFFCURVE",
"670 609 CURVE SMOOTH",
"670 750 LINE",
"529 750 LINE",
"529 604 LINE",
"600 609 LINE",
"599 601 OFFCURVE",
"597 593 OFFCURVE",
"594 586 CURVE SMOOTH",
"588 574 OFFCURVE",
"576 563 OFFCURVE",
"553 563 CURVE",
"553 469 LINE"
);
}
);
width = 642;
}
);
unicode = 010F;
},
{
color = 4;
glyphname = e;
lastChange = "2017-07-07 04:28:28 +0000";
layers = (
{
anchors = (
{
name = bottom;
position = "{241, 0}";
},
{
name = ogonek;
position = "{404, 5}";
},
{
name = top;
position = "{241, 563}";
}
);
background = {
components = (
{
name = c;
transform = "{1, 0, 0, 1, -1, 0}";
}
);
};
guideLines = (
{
angle = -12;
position = "{338, 178}";
}
);
layerId = "849A9C4C-BF7C-40C5-8614-1FD725A2A379";
paths = (
{
closed = 1;
nodes = (
"359 -13 OFFCURVE",
"420 63 OFFCURVE",
"437 152 CURVE",
"316 183 LINE",
"306 120 OFFCURVE",
"283 93 OFFCURVE",
"251 93 CURVE SMOOTH",
"196 93 OFFCURVE",
"178 166 OFFCURVE",
"177 248 CURVE",
"436 248 LINE",
"438 284 OFFCURVE",
"439 307 OFFCURVE",
"439 336 CURVE SMOOTH",
"439 469 OFFCURVE",
"381 570 OFFCURVE",
"245 570 CURVE SMOOTH",
"109 570 OFFCURVE",
"35 451 OFFCURVE",
"35 276 CURVE SMOOTH",
"35 113 OFFCURVE",
"95 -13 OFFCURVE",
"251 -13 CURVE SMOOTH"
);
},
{
closed = 1;
nodes = (
"182 412 OFFCURVE",
"206 464 OFFCURVE",
"247 464 CURVE SMOOTH",
"291 464 OFFCURVE",
"312 416 OFFCURVE",
"312 352 CURVE SMOOTH",
"312 349 OFFCURVE",
"312 339 OFFCURVE",
"312 328 CURVE",
"177 328 LINE"
);
}
);
width = 476;
}
);
unicode = 0065;
},
{
color = 4;
glyphname = eogonek;
lastChange = "2016-08-01 19:12:56 +0000";
layers = (
{
anchors = (
{
name = _ogonek;
position = "{399, 5}";
},
{
name = bottom;
position = "{236, 0}";
},
{
name = ogonek;
position = "{399, 5}";
},
{
name = top;
position = "{236, 563}";
}
);
background = {
paths = (
{
closed = 1;
nodes = (
"366 -188 OFFCURVE",
"404 -177 OFFCURVE",
"423 -157 CURVE",
"423 -76 LINE",
"409 -83 OFFCURVE",
"377 -93 OFFCURVE",
"351 -93 CURVE SMOOTH",
"329 -93 OFFCURVE",
"312 -86 OFFCURVE",
"312 -64 CURVE SMOOTH",
"312 -60 OFFCURVE",
"314 -55 OFFCURVE",
"315 -49 CURVE SMOOTH",
"329 10 LINE",
"250 10 LINE",
"220 -72 LINE SMOOTH",
"215 -86 OFFCURVE",
"212 -94 OFFCURVE",
"212 -107 CURVE SMOOTH",
"212 -163 OFFCURVE",
"270 -188 OFFCURVE",
"327 -188 CURVE SMOOTH"
);
},
{
closed = 1;
nodes = (
"343 -13 OFFCURVE",
"401 51 OFFCURVE",
"427 142 CURVE",
"321 182 LINE",
"317 174 OFFCURVE",
"287 90 OFFCURVE",
"243 90 CURVE SMOOTH",
"191 90 OFFCURVE",
"174 191 OFFCURVE",
"174 262 CURVE",
"441 262 LINE",
"441 264 OFFCURVE",
"447 267 OFFCURVE",
"447 278 CURVE SMOOTH",
"447 451 OFFCURVE",
"379 570 OFFCURVE",
"245 570 CURVE SMOOTH",
"104 570 OFFCURVE",
"34 451 OFFCURVE",
"34 278 CURVE SMOOTH",
"34 107 OFFCURVE",
"103 -13 OFFCURVE",
"240 -13 CURVE SMOOTH"
);
},
{
closed = 1;
nodes = (
"174 417 OFFCURVE",
"208 473 OFFCURVE",
"243 473 CURVE SMOOTH",
"291 473 OFFCURVE",
"309 417 OFFCURVE",
"309 343 CURVE",
"174 343 LINE"
);
}
);
};
layerId = "849A9C4C-BF7C-40C5-8614-1FD725A2A379";
paths = (
{
closed = 1;
nodes = (
"260 31 LINE",
"224 4 OFFCURVE",
"205 -33 OFFCURVE",
"205 -84 CURVE SMOOTH",
"205 -137 OFFCURVE",
"257 -188 OFFCURVE",
"314 -188 CURVE SMOOTH",
"371 -188 OFFCURVE",
"426 -149 OFFCURVE",
"452 -90 CURVE",
"398 -52 LINE",
"387 -73 OFFCURVE",
"370 -95 OFFCURVE",
"344 -95 CURVE SMOOTH",
"316 -95 OFFCURVE",
"300 -78 OFFCURVE",
"300 -52 CURVE SMOOTH",
"300 -24 OFFCURVE",
"323 -3 OFFCURVE",
"345 17 CURVE SMOOTH",
"379 47 OFFCURVE",
"415 85 OFFCURVE",
"427 142 CURVE",
"321 182 LINE",
"317 174 OFFCURVE",
"287 90 OFFCURVE",
"243 90 CURVE SMOOTH",
"191 90 OFFCURVE",
"174 191 OFFCURVE",
"174 262 CURVE",
"441 262 LINE",
"441 264 OFFCURVE",
"447 267 OFFCURVE",
"447 278 CURVE SMOOTH",
"447 451 OFFCURVE",
"379 570 OFFCURVE",
"245 570 CURVE SMOOTH",
"104 570 OFFCURVE",
"34 451 OFFCURVE",
"34 278 CURVE SMOOTH",
"34 107 OFFCURVE",
"103 -13 OFFCURVE",
"240 -13 CURVE SMOOTH",
"283 -13 OFFCURVE",
"316 8 OFFCURVE",
"326 28 CURVE"
);
},
{
closed = 1;
nodes = (
"174 417 OFFCURVE",
"208 473 OFFCURVE",
"243 473 CURVE SMOOTH",
"291 473 OFFCURVE",
"309 417 OFFCURVE",
"309 343 CURVE",
"174 343 LINE"
);
}
);
width = 471;
}
);
unicode = 0119;
},
{
color = 4;
glyphname = schwa;
lastChange = "2017-07-04 22:49:56 +0000";
layers = (
{
anchors = (
{
name = bottom;
position = "{232, -5}";
},
{
name = ogonek;
position = "{69, 553}";
},
{
name = top;
position = "{232, 558}";
}
);
layerId = "849A9C4C-BF7C-40C5-8614-1FD725A2A379";
paths = (
{
closed = 1;
nodes = (
"124 571 OFFCURVE",
"49 503 OFFCURVE",
"30 402 CURVE",
"153 379 LINE",
"159 422 OFFCURVE",
"179 467 OFFCURVE",
"228 467 CURVE SMOOTH",
"278 467 OFFCURVE",
"299 383 OFFCURVE",
"299 296 CURVE",
"32 296 LINE",
"29 277 OFFCURVE",
"28 248 OFFCURVE",
"28 215 CURVE SMOOTH",
"28 89 OFFCURVE",
"90 -12 OFFCURVE",
"223 -12 CURVE SMOOTH",
"356 -12 OFFCURVE",
"434 107 OFFCURVE",
"434 280 CURVE SMOOTH",
"434 462 OFFCURVE",
"366 571 OFFCURVE",
"223 571 CURVE SMOOTH"
);
},
{
closed = 1;
nodes = (
"298 150 OFFCURVE",
"276 92 OFFCURVE",
"225 92 CURVE SMOOTH",
"179 92 OFFCURVE",
"151 142 OFFCURVE",
"151 206 CURVE SMOOTH",
"151 209 OFFCURVE",
"151 214 OFFCURVE",
"152 220 CURVE",
"297 220 LINE"
);
}
);
width = 471;
}
);
unicode = 0259;
},
{
color = 4;
glyphname = f;
lastChange = "2017-07-07 04:11:10 +0000";
layers = (
{
anchors = (
{
name = bottom;
position = "{173, 0}";
},
{
name = top;
position = "{173, 563}";
}
);
background = {
components = (
{
name = t;
transform = "{1, 0, 0, 1, 13, 0}";
}
);
};
guideLines = (
{
angle = 83;
position = "{19, 460}";
},
{
angle = 97;
position = "{334, 656}";
},
{
angle = 7;
position = "{233, 0}";
}
);
layerId = "849A9C4C-BF7C-40C5-8614-1FD725A2A379";
paths = (
{
closed = 1;
nodes = (
"326 458 LINE",
"339 563 LINE",
"28 563 LINE",
"28 458 LINE"
);
},
{
closed = 1;
nodes = (
"233 0 LINE",
"233 563 LINE",
"233 573 LINE SMOOTH",
"233 632 OFFCURVE",
"246 660 OFFCURVE",
"287 660 CURVE SMOOTH",
"305 660 OFFCURVE",
"320 657 OFFCURVE",
"333 650 CURVE",
"346 748 LINE",
"313 763 OFFCURVE",
"278 771 OFFCURVE",
"234 771 CURVE SMOOTH",
"140 771 OFFCURVE",
"93 699 OFFCURVE",
"93 596 CURVE SMOOTH",
"93 0 LINE"
);
}
);
width = 346;
}
);
unicode = 0066;
},
{
color = 4;
glyphname = g;
lastChange = "2017-07-14 01:33:36 +0000";
layers = (
{
anchors = (
{
name = bottom;
position = "{259, 0}";
},
{
name = top;
position = "{259, 563}";
}
);
background = {
components = (
{
name = a;
transform = "{1, 0, 0, 1, 24, 0}";
}
);
paths = (
{
closed = 1;
nodes = (
"355 215 OFFCURVE",
"455 275 OFFCURVE",
"455 389 CURVE SMOOTH",
"455 501 OFFCURVE",
"355 570 OFFCURVE",
"249 570 CURVE SMOOTH",
"141 570 OFFCURVE",
"43 501 OFFCURVE",
"43 389 CURVE SMOOTH",
"43 275 OFFCURVE",
"141 215 OFFCURVE",
"249 215 CURVE SMOOTH"
);
},
{
closed = 1;
nodes = (
"208 296 OFFCURVE",
"187 340 OFFCURVE",
"187 389 CURVE SMOOTH",
"187 439 OFFCURVE",
"207 490 OFFCURVE",
"249 490 CURVE SMOOTH",
"289 490 OFFCURVE",
"311 439 OFFCURVE",
"311 390 CURVE SMOOTH",
"311 340 OFFCURVE",
"289 296 OFFCURVE",
"249 296 CURVE SMOOTH"
);
}
);
};
guideLines = (
{
angle = -78;
position = "{506, 553}";
}
);
layerId = "849A9C4C-BF7C-40C5-8614-1FD725A2A379";
paths = (
{
closed = 1;
nodes = (
"396 -182 OFFCURVE",
"500 -125 OFFCURVE",
"500 -5 CURVE SMOOTH",
"500 81 OFFCURVE",
"450 131 OFFCURVE",
"363 141 CURVE SMOOTH",
"242 155 LINE SMOOTH",
"207 159 OFFCURVE",
"187 168 OFFCURVE",
"187 194 CURVE SMOOTH",
"187 224 OFFCURVE",
"221 241 OFFCURVE",
"241 253 CURVE",
"193 274 LINE",
"138 255 OFFCURVE",
"68 213 OFFCURVE",
"68 139 CURVE SMOOTH",
"68 81 OFFCURVE",
"104 47 OFFCURVE",
"185 38 CURVE SMOOTH",
"308 24 LINE SMOOTH",
"356 19 OFFCURVE",
"378 4 OFFCURVE",
"378 -28 CURVE SMOOTH",
"378 -69 OFFCURVE",
"319 -80 OFFCURVE",
"261 -80 CURVE SMOOTH",
"187 -80 OFFCURVE",
"133 -66 OFFCURVE",
"133 -20 CURVE SMOOTH",
"133 19 OFFCURVE",
"158 54 OFFCURVE",
"196 65 CURVE",
"141 81 LINE",
"71 60 OFFCURVE",
"16 17 OFFCURVE",
"16 -44 CURVE SMOOTH",
"16 -146 OFFCURVE",
"105 -182 OFFCURVE",
"237 -182 CURVE SMOOTH"
);
},
{
closed = 1;
nodes = (
"357 215 OFFCURVE",
"455 275 OFFCURVE",
"455 389 CURVE SMOOTH",
"455 501 OFFCURVE",
"357 570 OFFCURVE",
"249 570 CURVE SMOOTH",
"143 570 OFFCURVE",
"43 501 OFFCURVE",
"43 389 CURVE SMOOTH",
"43 275 OFFCURVE",
"143 215 OFFCURVE",
"249 215 CURVE SMOOTH"
);
},
{
closed = 1;
nodes = (
"209 297 OFFCURVE",
"187 340 OFFCURVE",
"187 390 CURVE SMOOTH",
"187 439 OFFCURVE",
"209 489 OFFCURVE",
"249 489 CURVE SMOOTH",
"291 489 OFFCURVE",
"311 439 OFFCURVE",
"311 389 CURVE SMOOTH",
"311 340 OFFCURVE",
"290 297 OFFCURVE",
"249 297 CURVE SMOOTH"
);
},
{
closed = 1;
nodes = (
"436 521 OFFCURVE",
"466 543 OFFCURVE",
"506 559 CURVE",
"486 655 LINE",
"417 654 OFFCURVE",
"376 569 OFFCURVE",
"369 488 CURVE",
"410 488 LINE"
);
}
);
width = 505;
}
);
unicode = 0067;
},
{
color = 4;
glyphname = gcommaaccent;
lastChange = "2016-07-29 15:34:05 +0000";
layers = (
{
background = {
paths = (
{
closed = 1;
nodes = (
"362 -175 OFFCURVE",
"514 -138 OFFCURVE",
"514 -10 CURVE SMOOTH",
"514 35 OFFCURVE",
"499 71 OFFCURVE",
"469 97 CURVE SMOOTH",
"440 123 OFFCURVE",
"399 133 OFFCURVE",
"349 137 CURVE SMOOTH",
"216 147 LINE",
"196 150 OFFCURVE",
"181 164 OFFCURVE",
"181 183 CURVE SMOOTH",
"181 200 OFFCURVE",
"183 211 OFFCURVE",
"188 216 CURVE SMOOTH",
"194 221 OFFCURVE",
"204 225 OFFCURVE",
"217 229 CURVE",
"231 229 OFFCURVE",
"250 227 OFFCURVE",
"276 227 CURVE",
"308 223 OFFCURVE",
"336 227 OFFCURVE",
"360 237 CURVE SMOOTH",
"384 249 OFFCURVE",
"405 263 OFFCURVE",
"421 280 CURVE SMOOTH",
"454 315 OFFCURVE",
"470 359 OFFCURVE",
"470 400 CURVE SMOOTH",
"470 417 OFFCURVE",
"465 438 OFFCURVE",
"459 455 CURVE SMOOTH",
"456 464 OFFCURVE",
"453 474 OFFCURVE",
"449 484 CURVE",
"451 485 OFFCURVE",
"454 486 OFFCURVE",
"458 488 CURVE SMOOTH",
"463 490 OFFCURVE",
"469 492 OFFCURVE",
"476 492 CURVE SMOOTH",
"484 492 OFFCURVE",
"500 488 OFFCURVE",
"513 482 CURVE SMOOTH",
"538 473 LINE",
"538 591 LINE",
"532 592 LINE SMOOTH",
"529 593 OFFCURVE",
"526 593 OFFCURVE",
"522 593 CURVE SMOOTH",
"471 593 OFFCURVE",
"421 546 OFFCURVE",
"401 528 CURVE",
"374 546 OFFCURVE",
"331 570 OFFCURVE",
"259 570 CURVE SMOOTH",
"159 570 OFFCURVE",
"52 510 OFFCURVE",
"52 398 CURVE SMOOTH",
"52 347 OFFCURVE",
"75 311 OFFCURVE",
"97 286 CURVE",
"110 272 OFFCURVE",
"125 260 OFFCURVE",
"142 250 CURVE",
"122 240 OFFCURVE",
"104 229 OFFCURVE",
"89 215 CURVE SMOOTH",
"63 193 OFFCURVE",
"36 162 OFFCURVE",
"36 125 CURVE SMOOTH",
"36 98 OFFCURVE",
"57 79 OFFCURVE",
"78 67 CURVE SMOOTH",
"90 60 OFFCURVE",
"104 55 OFFCURVE",
"120 50 CURVE",
"102 43 OFFCURVE",
"85 34 OFFCURVE",
"71 23 CURVE SMOOTH",
"46 5 OFFCURVE",
"21 -22 OFFCURVE",
"21 -60 CURVE SMOOTH",
"21 -127 OFFCURVE",
"104 -175 OFFCURVE",
"257 -175 CURVE SMOOTH"
);
},
{
closed = 1;
nodes = (
"183 -71 OFFCURVE",
"149 -50 OFFCURVE",
"149 -18 CURVE SMOOTH",
"149 16 OFFCURVE",
"172 32 OFFCURVE",
"194 39 CURVE",
"276 39 LINE SMOOTH",
"305 39 OFFCURVE",
"377 35 OFFCURVE",
"377 -8 CURVE SMOOTH",
"377 -47 OFFCURVE",
"341 -71 OFFCURVE",
"274 -71 CURVE SMOOTH"
);
},
{
closed = 1;
nodes = (
"203 307 OFFCURVE",
"193 360 OFFCURVE",
"193 403 CURVE SMOOTH",
"193 440 OFFCURVE",
"213 485 OFFCURVE",
"258 485 CURVE SMOOTH",
"292 485 OFFCURVE",
"321 458 OFFCURVE",
"321 400 CURVE SMOOTH",
"321 340 OFFCURVE",
"297 307 OFFCURVE",
"259 307 CURVE SMOOTH"
);
},
{
closed = 1;
nodes = (
"367 642 LINE",
"367 797 LINE",
"272 797 LINE",
"273 806 OFFCURVE",
"276 813 OFFCURVE",
"281 820 CURVE SMOOTH",
"291 832 OFFCURVE",
"308 844 OFFCURVE",
"343 844 CURVE",
"343 938 LINE",
"316 936 OFFCURVE",
"293 930 OFFCURVE",
"272 920 CURVE SMOOTH",
"237 902 OFFCURVE",
"202 868 OFFCURVE",
"202 797 CURVE SMOOTH",
"202 636 LINE"
);
}
);
};
components = (
{
name = g;
}
);
layerId = "849A9C4C-BF7C-40C5-8614-1FD725A2A379";
paths = (
{
closed = 1;
nodes = (
"367 642 LINE",
"367 797 LINE",
"272 797 LINE",
"274 821 OFFCURVE",
"295 844 OFFCURVE",
"343 844 CURVE",
"343 938 LINE",
"275 934 OFFCURVE",
"202 898 OFFCURVE",
"202 797 CURVE SMOOTH",
"202 636 LINE"
);
}
);
width = 542;
}
);
unicode = 0123;
},
{
color = 4;
glyphname = h;
lastChange = "2017-07-07 02:24:54 +0000";
layers = (
{
anchors = (
{
name = bottom;
position = "{268, 0}";
},
{
name = center;
position = "{268, 281}";
},
{
name = top;
position = "{127, 750}";
}
);
background = {
paths = (
{
closed = 1;
nodes = (
"199 6 LINE",
"199 412 LINE",
"238 435 OFFCURVE",
"265 450 OFFCURVE",
"291 450 CURVE SMOOTH",
"319 450 OFFCURVE",
"340 429 OFFCURVE",
"340 377 CURVE SMOOTH",
"340 -6 LINE",
"480 6 LINE",
"480 428 LINE SMOOTH",
"480 515 OFFCURVE",
"430 570 OFFCURVE",
"360 570 CURVE SMOOTH",
"312 570 OFFCURVE",
"258 545 OFFCURVE",
"199 491 CURVE",
"199 760 LINE",
"59 742 LINE",
"59 -6 LINE"
);
}
);
};
components = (
{
name = n_arch;
transform = "{1, 0, 0, 1, 199, 0}";
}
);
guideLines = (
{
angle = 7;
position = "{129, 752}";
}
);
layerId = "849A9C4C-BF7C-40C5-8614-1FD725A2A379";
paths = (
{
closed = 1;
nodes = (
"199 0 LINE",
"199 760 LINE",
"59 743 LINE",
"59 0 LINE"
);
}
);
width = 533;
}
);
rightMetricsKey = n;
unicode = 0068;
},
{
color = 4;
glyphname = hbar;
lastChange = "2016-08-01 17:08:01 +0000";
layers = (
{
layerId = "849A9C4C-BF7C-40C5-8614-1FD725A2A379";
paths = (
{
closed = 1;
nodes = (
"201 6 LINE",
"201 412 LINE",
"240 435 OFFCURVE",
"267 450 OFFCURVE",
"293 450 CURVE SMOOTH",
"321 450 OFFCURVE",
"342 429 OFFCURVE",
"342 377 CURVE SMOOTH",
"342 -6 LINE",
"482 6 LINE",
"482 428 LINE SMOOTH",
"482 515 OFFCURVE",
"432 570 OFFCURVE",
"362 570 CURVE SMOOTH",
"314 570 OFFCURVE",
"260 545 OFFCURVE",
"201 491 CURVE",
"201 750 LINE",
"61 732 LINE",
"61 -6 LINE"
);
},
{
closed = 1;
nodes = (
"312 583 LINE",
"312 677 LINE",
"-16 677 LINE",
"-16 583 LINE"
);
}
);
width = 539;
}
);
unicode = 0127;
},
{
color = 4;
glyphname = i;
lastChange = "2017-07-07 01:53:46 +0000";
layers = (
{
anchors = (
{
name = bottom;
position = "{127, 0}";
},
{
name = ogonek;
position = "{281, 5}";
},
{
name = top;
position = "{131, 563}";
}
);
background = {
paths = (
{
closed = 1;
nodes = (
"202 6 LINE",
"202 563 LINE",
"62 551 LINE",
"62 -6 LINE"
);
}
);
};
components = (
{
name = idotless;
}
);
guideLines = (
{
position = "{242, 566}";
},
{
angle = 7;
position = "{131, 560}";
},
{
angle = 270;
position = "{201, 638}";
},
{
angle = 270;
position = "{61, 625}";
}
);
layerId = "849A9C4C-BF7C-40C5-8614-1FD725A2A379";
paths = (
{
closed = 1;
nodes = (
"203 640 LINE",
"203 769 LINE",
"59 769 LINE",
"59 640 LINE"
);
}
);
width = 262;
}
);
unicode = 0069;
},
{
color = 4;
glyphname = idotless;
lastChange = "2017-06-08 22:51:05 +0000";
layers = (
{
anchors = (
{
name = bottom;
position = "{131, 0}";
},
{
name = ogonek;
position = "{131, 5}";
},
{
name = top;
position = "{131, 561}";
}
);
guideLines = (
{
angle = 7;
position = "{111, 560}";
}
);
layerId = "849A9C4C-BF7C-40C5-8614-1FD725A2A379";
paths = (
{
closed = 1;
nodes = (
"201 0 LINE",
"201 570 LINE",
"61 553 LINE",
"61 0 LINE"
);
}
);
width = 262;
}
);
unicode = 0131;
userData = {
com.fontlab.hintData = {
vhints = (
{
position = 124;
width = 288;
}
);
};
};
},
{
color = 4;
glyphname = j;
lastChange = "2017-07-07 01:45:45 +0000";
layers = (
{
background = {
components = (
{
name = t;
transform = "{-1, 0, 0, 1, 302, -141}";
}
);
};
guideLines = (
{
angle = 270;
position = "{209, 638}";
},
{
angle = 270;
position = "{70, 625}";
},
{
angle = 7;
position = "{209, 570}";
},
{
angle = 83;
position = "{-30, -154}";
}
);
layerId = "849A9C4C-BF7C-40C5-8614-1FD725A2A379";
paths = (
{
closed = 1;
nodes = (
"154 -168 OFFCURVE",
"210 -93 OFFCURVE",
"210 5 CURVE SMOOTH",
"210 566 LINE",
"70 553 LINE",
"70 33 LINE SMOOTH",
"70 -25 OFFCURVE",
"59 -52 OFFCURVE",
"18 -52 CURVE SMOOTH",
"4 -52 OFFCURVE",
"-6 -50 OFFCURVE",
"-17 -46 CURVE",
"-30 -154 LINE",
"1 -164 OFFCURVE",
"29 -168 OFFCURVE",
"59 -168 CURVE SMOOTH"
);
},
{
closed = 1;
nodes = (
"212 640 LINE",
"212 769 LINE",
"67 769 LINE",
"67 640 LINE"
);
}
);
width = 268;
}
);
unicode = 006A;
},
{
color = 4;
glyphname = jdotless;
lastChange = "2017-07-03 16:32:59 +0000";
layers = (
{
anchors = (
{
name = bottom;
position = "{131, 0}";
},
{
name = top;
position = "{131, 563}";
}
);
layerId = "849A9C4C-BF7C-40C5-8614-1FD725A2A379";
paths = (
{
closed = 1;
nodes = (
"145 -168 OFFCURVE",
"201 -93 OFFCURVE",
"201 5 CURVE SMOOTH",
"201 566 LINE",
"61 553 LINE",
"61 34 LINE SMOOTH",
"61 -29 OFFCURVE",
"50 -56 OFFCURVE",
"7 -56 CURVE SMOOTH",
"-5 -56 OFFCURVE",
"-15 -54 OFFCURVE",
"-26 -50 CURVE",
"-39 -154 LINE",
"-8 -164 OFFCURVE",
"20 -168 OFFCURVE",
"54 -168 CURVE SMOOTH"
);
}
);
width = 262;
}
);
unicode = 0237;
},
{
color = 4;
glyphname = k;
lastChange = "2017-07-13 13:26:20 +0000";
layers = (
{
anchors = (
{
name = bottom;
position = "{248, 0}";
},
{
name = top;
position = "{248, 563}";
}
);
guideLines = (
{
angle = 18;
position = "{348, -18}";
}
);
layerId = "849A9C4C-BF7C-40C5-8614-1FD725A2A379";
paths = (
{
closed = 1;
nodes = (
"485 27 LINE",
"361 -14 LINE",
"239 265 LINE",
"334 373 LINE"
);
},
{
closed = 1;
nodes = (
"199 0 LINE",
"199 760 LINE",
"59 743 LINE",
"59 0 LINE"
);
},
{
closed = 1;
nodes = (
"305 318 LINE",
"298 325 LINE",
"199 192 LINE",
"199 364 LINE",
"328 563 LINE",
"482 563 LINE"
);
}
);
width = 498;
}
);
leftMetricsKey = h;
unicode = 006B;
},
{
glyphname = kgreenlandic;
lastChange = "2017-07-13 13:25:05 +0000";
layers = (
{
anchors = (
{
name = bottom;
position = "{146, 0}";
},
{
name = top;
position = "{146, 563}";
}
);
background = {
components = (
{
name = idotless;
}
);
};
guideLines = (
{
angle = 18;
position = "{367, -13}";
}
);
layerId = "849A9C4C-BF7C-40C5-8614-1FD725A2A379";
paths = (
{
closed = 1;
nodes = (
"479 563 LINE",
"337 563 LINE",
"201 338 LINE",
"201 563 LINE",
"61 563 LINE",
"61 0 LINE",
"201 0 LINE",
"201 180 LINE",
"266 277 LINE",
"299 260 LINE"
);
},
{
closed = 1;
nodes = (
"237 251 LINE",
"361 -16 LINE",
"491 26 LINE",
"333 360 LINE"
);
}
);
width = 500;
}
);
unicode = 0138;
},
{
color = 4;
glyphname = l;
lastChange = "2017-07-07 01:53:51 +0000";
layers = (
{
anchors = (
{
name = bottom;
position = "{128, 0}";
},
{
name = center;
position = "{128, 281}";
},
{
name = top;
position = "{128, 753}";
},
{
name = topright;
position = "{250, 563}";
}
);
background = {
paths = (
{
closed = 1;
nodes = (
"199 6 LINE",
"199 750 LINE",
"59 732 LINE",
"59 -6 LINE"
);
}
);
};
layerId = "849A9C4C-BF7C-40C5-8614-1FD725A2A379";
paths = (
{
closed = 1;
nodes = (
"199 0 LINE",
"199 760 LINE",
"59 743 LINE",
"59 0 LINE"
);
}
);
width = 258;
}
);
unicode = 006C;
},
{
color = 4;
glyphname = lslash;
lastChange = "2016-07-29 15:34:05 +0000";
layers = (
{
layerId = "849A9C4C-BF7C-40C5-8614-1FD725A2A379";
paths = (
{
closed = 1;
nodes = (
"217 6 LINE",
"217 750 LINE",
"76 732 LINE",
"76 -6 LINE"
);
},
{
closed = 1;
nodes = (
"281 353 LINE",
"281 469 LINE",
"0 397 LINE",
"0 281 LINE"
);
}
);
width = 285;
}
);
unicode = 0142;
},
{
color = 4;
glyphname = m;
lastChange = "2017-07-10 12:41:53 +0000";
layers = (
{
anchors = (
{
name = bottom;
position = "{369, 0}";
},
{
name = top;
position = "{369, 563}";
}
);
background = {
components = (
{
name = n;
transform = "{1, 0, 0, 1, -3, 0}";
}
);
};
guideLines = (
{
position = "{192, 456}";
},
{
position = "{188, 339}";
},
{
angle = 180;
position = "{387, 447}";
},
{
angle = 7;
position = "{192, 564}";
}
);
layerId = "849A9C4C-BF7C-40C5-8614-1FD725A2A379";
paths = (
{
closed = 1;
nodes = (
"441 344 LINE",
"441 393 OFFCURVE",
"469 447 OFFCURVE",
"504 447 CURVE SMOOTH",
"541 447 OFFCURVE",
"552 414 OFFCURVE",
"552 367 CURVE SMOOTH",
"552 0 LINE",
"684 0 LINE",
"684 410 LINE SMOOTH",
"684 503 OFFCURVE",
"659 570 OFFCURVE",
"570 570 CURVE SMOOTH",
"497 570 OFFCURVE",
"449 513 OFFCURVE",
"429 431 CURVE"
);
},
{
closed = 1;
nodes = (
"442 495 OFFCURVE",
"405 570 OFFCURVE",
"329 570 CURVE SMOOTH",
"260 570 OFFCURVE",
"212 517 OFFCURVE",
"192 437 CURVE",
"198 323 LINE",
"198 374 OFFCURVE",
"227 447 OFFCURVE",
"266 447 CURVE SMOOTH",
"297 447 OFFCURVE",
"310 418 OFFCURVE",
"310 366 CURVE SMOOTH",
"310 0 LINE",
"442 0 LINE",
"442 421 LINE"
);
},
{
closed = 1;
nodes = (
"192 432 LINE",
"192 564 LINE",
"58 547 LINE",
"58 0 LINE",
"198 0 LINE",
"198 390 LINE"
);
}
);
width = 737;
}
);
leftMetricsKey = n;
unicode = 006D;
},
{
color = 4;
glyphname = n;
lastChange = "2017-07-07 02:46:25 +0000";
layers = (
{
anchors = (
{
name = bottom;
position = "{267, 0}";
},
{
name = top;
position = "{267, 563}";
}
);
background = {
components = (
{
name = r;
transform = "{1, 0, 0, 1, -3, 0}";
}
);
paths = (
{
closed = 1;
nodes = (
"198 0 LINE",
"198 418 LINE",
"223 446 OFFCURVE",
"255 457 OFFCURVE",
"280 457 CURVE SMOOTH",
"317 457 OFFCURVE",
"339 431 OFFCURVE",
"339 375 CURVE SMOOTH",
"339 -6 LINE",
"479 6 LINE",
"479 415 LINE SMOOTH",
"479 502 OFFCURVE",
"434 568 OFFCURVE",
"350 568 CURVE SMOOTH",
"296 568 OFFCURVE",
"244 540 OFFCURVE",
"198 491 CURVE",
"198 566 LINE",
"58 554 LINE",
"58 0 LINE"
);
}
);
};
components = (
{
name = n_arch;
transform = "{1, 0, 0, 1, 198, 0}";
}
);
guideLines = (
{
angle = 7;
position = "{192, 564}";
},
{
angle = -83;
position = "{186, 543}";
}
);
layerId = "849A9C4C-BF7C-40C5-8614-1FD725A2A379";
paths = (
{
closed = 1;
nodes = (
"192 390 LINE",
"192 564 LINE",
"58 547 LINE",
"58 0 LINE",
"198 0 LINE",
"198 390 LINE"
);
}
);
width = 532;
}
);
unicode = 006E;
},
{
glyphname = n_arch;
lastChange = "2017-07-07 02:24:58 +0000";
layers = (
{
layerId = "849A9C4C-BF7C-40C5-8614-1FD725A2A379";
paths = (
{
closed = 1;
nodes = (
"0 299 LINE",
"0 381 OFFCURVE",
"39 454 OFFCURVE",
"86 454 CURVE SMOOTH",
"133 454 OFFCURVE",
"141 413 OFFCURVE",
"141 357 CURVE SMOOTH",
"141 0 LINE",
"281 0 LINE",
"281 404 LINE SMOOTH",
"281 521 OFFCURVE",
"230 573 OFFCURVE",
"149 573 CURVE SMOOTH",
"67 573 OFFCURVE",
"6 514 OFFCURVE",
"-10 418 CURVE"
);
}
);
width = 281;
}
);
},
{
color = 4;
glyphname = napostrophe;
lastChange = "2016-08-01 17:10:27 +0000";
layers = (
{
layerId = "849A9C4C-BF7C-40C5-8614-1FD725A2A379";
paths = (
{
closed = 1;
nodes = (
"316 6 LINE",
"316 411 LINE",
"349 431 OFFCURVE",
"381 450 OFFCURVE",
"406 450 CURVE SMOOTH",
"436 450 OFFCURVE",
"457 431 OFFCURVE",
"457 375 CURVE SMOOTH",
"457 -6 LINE",
"597 6 LINE",
"597 428 LINE SMOOTH",
"597 515 OFFCURVE",
"547 570 OFFCURVE",
"477 570 CURVE SMOOTH",
"429 570 OFFCURVE",
"372 540 OFFCURVE",
"316 491 CURVE",
"316 563 LINE",
"176 551 LINE",
"176 -6 LINE"
);
},
{
closed = 1;
nodes = (
"35 470 OFFCURVE",
"55 476 OFFCURVE",
"72 486 CURVE SMOOTH",
"101 503 OFFCURVE",
"130 539 OFFCURVE",
"130 609 CURVE SMOOTH",
"130 750 LINE",
"-10 750 LINE",
"-10 609 LINE",
"60 609 LINE",
"59 600 OFFCURVE",
"58 592 OFFCURVE",
"54 586 CURVE SMOOTH",
"47 575 OFFCURVE",
"37 562 OFFCURVE",
"13 562 CURVE",
"13 468 LINE"
);
}
);
width = 654;
}
);
unicode = 0149;
},
{
color = 4;
glyphname = eng;
lastChange = "2016-07-29 15:34:05 +0000";
layers = (
{
layerId = "849A9C4C-BF7C-40C5-8614-1FD725A2A379";
paths = (
{
closed = 1;
nodes = (
"482 -141 OFFCURVE",
"482 -80 OFFCURVE",
"482 26 CURVE SMOOTH",
"482 428 LINE SMOOTH",
"482 515 OFFCURVE",
"432 570 OFFCURVE",
"362 570 CURVE SMOOTH",
"314 570 OFFCURVE",
"257 540 OFFCURVE",
"201 491 CURVE",
"201 563 LINE",
"61 551 LINE",
"61 -6 LINE",
"201 6 LINE",
"201 411 LINE",
"234 431 OFFCURVE",
"266 450 OFFCURVE",
"291 450 CURVE SMOOTH",
"321 450 OFFCURVE",
"342 431 OFFCURVE",
"342 375 CURVE SMOOTH",
"342 26 LINE SMOOTH",
"342 -28 OFFCURVE",
"337 -47 OFFCURVE",
"264 -47 CURVE",
"264 -131 LINE",
"301 -138 OFFCURVE",
"332 -141 OFFCURVE",
"358 -141 CURVE SMOOTH"
);
}
);
width = 540;
}
);
unicode = 014B;
},
{
glyphname = nhookleft;
lastChange = "2016-08-01 13:59:33 +0000";
layers = (
{
anchors = (
{
name = bottom;
position = "{270, 0}";
},
{
name = top;
position = "{270, 563}";
}
);
layerId = "849A9C4C-BF7C-40C5-8614-1FD725A2A379";
paths = (
{
closed = 1;
nodes = (
"61 -28 OFFCURVE",
"56 -47 OFFCURVE",
"-17 -47 CURVE",
"-17 -131 LINE",
"20 -138 OFFCURVE",
"51 -141 OFFCURVE",
"77 -141 CURVE SMOOTH",
"201 -141 OFFCURVE",
"201 -80 OFFCURVE",
"201 26 CURVE",
"201 411 LINE",
"234 431 OFFCURVE",
"266 450 OFFCURVE",
"291 450 CURVE SMOOTH",
"321 450 OFFCURVE",
"342 431 OFFCURVE",
"342 375 CURVE SMOOTH",
"342 -6 LINE",
"482 6 LINE",
"482 428 LINE SMOOTH",
"482 515 OFFCURVE",
"432 570 OFFCURVE",
"362 570 CURVE SMOOTH",
"314 570 OFFCURVE",
"257 540 OFFCURVE",
"201 491 CURVE",
"201 563 LINE",
"61 551 LINE",
"61 26 LINE"
);
}
);
width = 600;
}
);
unicode = 0272;
},
{
color = 4;
glyphname = o;
lastChange = "2017-07-07 02:03:10 +0000";
layers = (
{
anchors = (
{
name = bottom;
position = "{245, 0}";
},
{
name = center;
position = "{250, 281}";
},
{
name = ogonek;
position = "{427, 5}";
},
{
name = top;
position = "{250, 563}";
},
{
name = topright;
position = "{485, 563}";
}
);
background = {
paths = (
{
closed = 1;
nodes = (
"113 570 OFFCURVE",
"39 449 OFFCURVE",
"39 277 CURVE SMOOTH",
"39 105 OFFCURVE",
"113 -13 OFFCURVE",
"251 -13 CURVE SMOOTH",
"391 -13 OFFCURVE",
"461 107 OFFCURVE",
"461 277 CURVE SMOOTH",
"461 448 OFFCURVE",
"390 570 OFFCURVE",
"251 570 CURVE SMOOTH"
);
},
{
closed = 1;
nodes = (
"319 466 OFFCURVE",
"320 350 OFFCURVE",
"320 265 CURVE SMOOTH",
"320 205 OFFCURVE",
"320 86 OFFCURVE",
"251 86 CURVE SMOOTH",
"182 86 OFFCURVE",
"180 206 OFFCURVE",
"180 276 CURVE SMOOTH",
"180 346 OFFCURVE",
"182 466 OFFCURVE",
"251 466 CURVE SMOOTH"
);
}
);
};
layerId = "849A9C4C-BF7C-40C5-8614-1FD725A2A379";
paths = (
{
closed = 1;
nodes = (
"387 -10 OFFCURVE",
"462 107 OFFCURVE",
"462 285 CURVE SMOOTH",
"462 451 OFFCURVE",
"387 573 OFFCURVE",
"249 573 CURVE SMOOTH",
"109 573 OFFCURVE",
"38 449 OFFCURVE",
"38 285 CURVE SMOOTH",
"38 108 OFFCURVE",
"110 -10 OFFCURVE",
"249 -10 CURVE SMOOTH"
);
},
{
closed = 1;
nodes = (
"187 91 OFFCURVE",
"180 193 OFFCURVE",
"180 282 CURVE SMOOTH",
"180 358 OFFCURVE",
"186 466 OFFCURVE",
"249 466 CURVE SMOOTH",
"312 466 OFFCURVE",
"320 357 OFFCURVE",
"320 282 CURVE SMOOTH",
"320 193 OFFCURVE",
"312 91 OFFCURVE",
"249 91 CURVE SMOOTH"
);
}
);
width = 500;
}
);
unicode = 006F;
},
{
color = 4;
glyphname = oslash;
lastChange = "2016-08-01 17:14:25 +0000";
layers = (
{
components = (
{
name = o;
}
);
layerId = "849A9C4C-BF7C-40C5-8614-1FD725A2A379";
paths = (
{
closed = 1;
nodes = (
"-13 58 LINE",
"74 -25 LINE",
"119 32 LINE",
"179 118 LINE",
"320 297 LINE",
"414 400 LINE",
"490 502 LINE",
"402 585 LINE",
"360 532 LINE",
"311 457 LINE",
"142 243 LINE",
"76 171 LINE"
);
}
);
width = 490;
}
);
unicode = 00F8;
},
{
color = 4;
glyphname = oe;
lastChange = "2016-07-29 15:34:05 +0000";
layers = (
{
layerId = "849A9C4C-BF7C-40C5-8614-1FD725A2A379";
paths = (
{
closed = 1;
nodes = (
"307 -13 OFFCURVE",
"353 17 OFFCURVE",
"386 64 CURVE",
"422 13 OFFCURVE",
"461 -13 OFFCURVE",
"523 -13 CURVE SMOOTH",
"623 -13 OFFCURVE",
"683 52 OFFCURVE",
"708 142 CURVE",
"602 182 LINE",
"596 170 OFFCURVE",
"567 90 OFFCURVE",
"523 90 CURVE SMOOTH",
"473 90 OFFCURVE",
"455 191 OFFCURVE",
"455 262 CURVE",
"724 262 LINE",
"724 274 OFFCURVE",
"724 283 OFFCURVE",
"724 294 CURVE SMOOTH",
"724 355 OFFCURVE",
"711 570 OFFCURVE",
"529 570 CURVE SMOOTH",
"467 570 OFFCURVE",
"426 545 OFFCURVE",
"387 487 CURVE",
"350 543 OFFCURVE",
"302 570 OFFCURVE",
"239 570 CURVE SMOOTH",
"107 570 OFFCURVE",
"34 451 OFFCURVE",
"34 280 CURVE SMOOTH",
"34 108 OFFCURVE",
"107 -13 OFFCURVE",
"241 -13 CURVE SMOOTH"
);
},
{
closed = 1;
nodes = (
"180 91 OFFCURVE",
"174 194 OFFCURVE",
"174 282 CURVE SMOOTH",
"174 362 OFFCURVE",
"179 471 OFFCURVE",
"244 471 CURVE SMOOTH",
"313 471 OFFCURVE",
"315 350 OFFCURVE",
"315 281 CURVE SMOOTH",
"315 212 OFFCURVE",
"313 91 OFFCURVE",
"244 91 CURVE SMOOTH"
);
},
{
closed = 1;
nodes = (
"455 413 OFFCURVE",
"485 473 OFFCURVE",
"528 473 CURVE SMOOTH",
"569 473 OFFCURVE",
"589 417 OFFCURVE",
"589 343 CURVE",
"455 343 LINE"
);
}
);
width = 751;
}
);
unicode = 0153;
},
{
color = 4;
glyphname = p;
lastChange = "2017-07-07 02:40:10 +0000";
layers = (
{
anchors = (
{
name = bottom;
position = "{249, -140}";
},
{
name = top;
position = "{249, 563}";
}
);
background = {
components = (
{
name = n;
transform = "{1, 0, 0, 1, -15, 0}";
}
);
};
components = (
{
name = d_bowl;
transform = "{-1, 0, 0, -1, 476, 557}";
}
);
guideLines = (
{
angle = 7;
position = "{58, -175}";
}
);
layerId = "849A9C4C-BF7C-40C5-8614-1FD725A2A379";
paths = (
{
closed = 1;
nodes = (
"198 -157 LINE",
"198 426 LINE",
"191 426 LINE",
"191 568 LINE",
"58 551 LINE",
"58 -175 LINE"
);
}
);
width = 514;
}
);
leftMetricsKey = n;
rightMetricsKey = o;
unicode = 0070;
},
{
color = 4;
glyphname = thorn;
lastChange = "2017-07-03 20:30:13 +0000";
layers = (
{
background = {
paths = (
{
closed = 1;
nodes = (
"207 -175 LINE",
"206 70 LINE",
"211 55 OFFCURVE",
"217 41 OFFCURVE",
"228 28 CURVE SMOOTH",
"245 7 OFFCURVE",
"275 -13 OFFCURVE",
"327 -13 CURVE SMOOTH",
"430 -13 OFFCURVE",
"488 78 OFFCURVE",
"488 281 CURVE SMOOTH",
"488 495 OFFCURVE",
"426 570 OFFCURVE",
"352 570 CURVE SMOOTH",
"303 570 OFFCURVE",
"249 538 OFFCURVE",
"206 491 CURVE",
"206 750 LINE",
"66 732 LINE",
"66 -175 LINE"
);
},
{
closed = 1;
nodes = (
"241 87 OFFCURVE",
"206 117 OFFCURVE",
"206 234 CURVE SMOOTH",
"206 412 LINE",
"217 418 OFFCURVE",
"229 425 OFFCURVE",
"240 431 CURVE SMOOTH",
"259 440 OFFCURVE",
"282 450 OFFCURVE",
"299 450 CURVE SMOOTH",
"345 450 OFFCURVE",
"348 376 OFFCURVE",
"348 281 CURVE SMOOTH",
"348 177 OFFCURVE",
"343 87 OFFCURVE",
"275 87 CURVE SMOOTH"
);
}
);
};
components = (
{
name = d_bowl;
transform = "{-1, 0, 0, -1, 489, 557}";
}
);
guideLines = (
{
angle = 7;
position = "{66, -175}";
},
{
angle = 7;
position = "{66, 741}";
}
);
layerId = "849A9C4C-BF7C-40C5-8614-1FD725A2A379";
paths = (
{
closed = 1;
nodes = (
"206 -158 LINE",
"206 759 LINE",
"66 741 LINE",
"66 -175 LINE"
);
}
);
width = 516;
}
);
unicode = 00FE;
},
{
color = 4;
glyphname = q;
lastChange = "2017-07-07 02:40:40 +0000";
layers = (
{
anchors = (
{
name = bottom;
position = "{270, 0}";
},
{
name = top;
position = "{270, 563}";
}
);
background = {
paths = (
{
closed = 1;
nodes = (
"457 -157 LINE",
"457 563 LINE",
"321 551 LINE",
"316 508 LINE",
"293 544 OFFCURVE",
"261 570 OFFCURVE",
"208 570 CURVE SMOOTH",
"65 570 OFFCURVE",
"58 393 OFFCURVE",
"58 272 CURVE SMOOTH",
"58 174 OFFCURVE",
"63 -13 OFFCURVE",
"207 -13 CURVE SMOOTH",
"264 -13 OFFCURVE",
"295 16 OFFCURVE",
"316 48 CURVE",
"316 -175 LINE"
);
},
{
closed = 1;
nodes = (
"223 94 OFFCURVE",
"199 125 OFFCURVE",
"199 275 CURVE SMOOTH",
"199 421 OFFCURVE",
"222 469 OFFCURVE",
"264 469 CURVE SMOOTH",
"289 469 OFFCURVE",
"303 453 OFFCURVE",
"316 430 CURVE",
"316 139 LINE",
"306 117 OFFCURVE",
"287 94 OFFCURVE",
"257 94 CURVE SMOOTH"
);
}
);
};
components = (
{
name = d_bowl;
transform = "{1, 0, 0, 1, 38, 0}";
}
);
guideLines = (
{
angle = 7;
position = "{456, 569}";
},
{
position = "{227, -175}";
}
);
layerId = "849A9C4C-BF7C-40C5-8614-1FD725A2A379";
paths = (
{
closed = 1;
nodes = (
"456 563 LINE",
"323 563 LINE",
"323 449 LINE",
"316 423 LINE",
"316 -175 LINE",
"456 -158 LINE"
);
}
);
width = 516;
}
);
leftMetricsKey = o;
unicode = 0071;
},
{
color = 4;
glyphname = r;
lastChange = "2017-07-08 01:50:49 +0000";
layers = (
{
anchors = (
{
name = bottom;
position = "{199, 0}";
},
{
name = top;
position = "{199, 563}";
}
);
background = {
components = (
{
name = n;
transform = "{1, 0, 0, 1, -3, 0}";
}
);
paths = (
{
closed = 1;
nodes = (
"198 6 LINE",
"198 375 LINE",
"253 423 OFFCURVE",
"362 431 OFFCURVE",
"386 431 CURVE",
"386 568 LINE",
"286 568 OFFCURVE",
"232 521 OFFCURVE",
"198 472 CURVE",
"198 563 LINE",
"58 551 LINE",
"58 -6 LINE"
);
}
);
};
guideLines = (
{
angle = 7;
position = "{192, 564}";
},
{
angle = 78;
position = "{347, 412}";
}
);
layerId = "849A9C4C-BF7C-40C5-8614-1FD725A2A379";
paths = (
{
closed = 1;
nodes = (
"192 390 LINE",
"192 564 LINE",
"58 547 LINE",
"58 0 LINE",
"198 0 LINE",
"198 390 LINE"
);
},
{
closed = 1;
nodes = (
"198 352 OFFCURVE",
"243 421 OFFCURVE",
"298 421 CURVE SMOOTH",
"319 421 OFFCURVE",
"330 418 OFFCURVE",
"352 410 CURVE",
"381 543 LINE",
"362 557 OFFCURVE",
"345 562 OFFCURVE",
"318 562 CURVE SMOOTH",
"254 562 OFFCURVE",
"197 488 OFFCURVE",
"188 387 CURVE",
"198 263 LINE"
);
}
);
width = 386;
}
);
leftMetricsKey = n;
unicode = 0072;
},
{
color = 4;
glyphname = s;
lastChange = "2017-07-13 04:03:52 +0000";
layers = (
{
anchors = (
{
name = bottom;
position = "{220, 0}";
},
{
name = top;
position = "{220, 563}";
}
);
background = {
components = (
{
name = a;
transform = "{1, 0, 0, 1, -13, 0}";
}
);
paths = (
{
closed = 1;
nodes = (
"319 -13 OFFCURVE",
"419 46 OFFCURVE",
"419 167 CURVE SMOOTH",
"419 259 OFFCURVE",
"369 303 OFFCURVE",
"306 332 CURVE",
"206 373 LINE SMOOTH",
"188 381 OFFCURVE",
"157 396 OFFCURVE",
"157 421 CURVE SMOOTH",
"157 453 OFFCURVE",
"188 466 OFFCURVE",
"218 466 CURVE SMOOTH",
"245 466 OFFCURVE",
"263 449 OFFCURVE",
"274 432 CURVE SMOOTH",
"280 422 OFFCURVE",
"285 411 OFFCURVE",
"288 398 CURVE",
"404 434 LINE",
"379 521 OFFCURVE",
"298 570 OFFCURVE",
"217 570 CURVE SMOOTH",
"119 570 OFFCURVE",
"27 509 OFFCURVE",
"27 397 CURVE SMOOTH",
"27 319 OFFCURVE",
"61 265 OFFCURVE",
"124 239 CURVE SMOOTH",
"242 191 LINE SMOOTH",
"265 182 OFFCURVE",
"285 167 OFFCURVE",
"285 143 CURVE SMOOTH",
"285 108 OFFCURVE",
"240 98 OFFCURVE",
"214 98 CURVE SMOOTH",
"179 98 OFFCURVE",
"159 114 OFFCURVE",
"147 131 CURVE",
"140 141 OFFCURVE",
"135 152 OFFCURVE",
"132 165 CURVE",
"23 129 LINE",
"43 42 OFFCURVE",
"109 -13 OFFCURVE",
"223 -13 CURVE SMOOTH"
);
}
);
};
guideLines = (
{
angle = 12;
position = "{287, 392}";
},
{
angle = 12;
position = "{18, 130}";
}
);
layerId = "849A9C4C-BF7C-40C5-8614-1FD725A2A379";
paths = (
{
closed = 1;
nodes = (
"324 -13 OFFCURVE",
"408 55 OFFCURVE",
"408 162 CURVE SMOOTH",
"408 227 OFFCURVE",
"380 274 OFFCURVE",
"301 314 CURVE SMOOTH",
"204 363 LINE SMOOTH",
"179 376 OFFCURVE",
"163 391 OFFCURVE",
"163 418 CURVE SMOOTH",
"163 444 OFFCURVE",
"183 470 OFFCURVE",
"218 470 CURVE SMOOTH",
"255 470 OFFCURVE",
"276 443 OFFCURVE",
"278 393 CURVE",
"394 418 LINE",
"383 518 OFFCURVE",
"323 573 OFFCURVE",
"215 573 CURVE SMOOTH",
"108 573 OFFCURVE",
"33 499 OFFCURVE",
"33 405 CURVE SMOOTH",
"33 329 OFFCURVE",
"68 285 OFFCURVE",
"126 256 CURVE SMOOTH",
"225 206 LINE SMOOTH",
"255 191 OFFCURVE",
"277 177 OFFCURVE",
"277 144 CURVE SMOOTH",
"277 114 OFFCURVE",
"255 91 OFFCURVE",
"223 91 CURVE SMOOTH",
"174 91 OFFCURVE",
"146 125 OFFCURVE",
"142 172 CURVE",
"26 147 LINE",
"34 42 OFFCURVE",
"109 -13 OFFCURVE",
"222 -13 CURVE SMOOTH"
);
}
);
width = 440;
}
);
unicode = 0073;
},
{
color = 4;
glyphname = germandbls;
lastChange = "2017-07-04 22:26:18 +0000";
layers = (
{
background = {
components = (
{
name = s;
transform = "{1, 0, 0, 1, 196, 0}";
}
);
};
guideLines = (
{
angle = 70;
position = "{292, 102}";
}
);
layerId = "849A9C4C-BF7C-40C5-8614-1FD725A2A379";
paths = (
{
closed = 1;
nodes = (
"202 -80 LINE",
"202 525 LINE SMOOTH",
"202 610 OFFCURVE",
"230 662 OFFCURVE",
"282 662 CURVE SMOOTH",
"330 662 OFFCURVE",
"355 622 OFFCURVE",
"355 568 CURVE SMOOTH",
"355 505 OFFCURVE",
"316 465 OFFCURVE",
"251 432 CURVE",
"251 363 OFFCURVE",
"286 304 OFFCURVE",
"340 270 CURVE SMOOTH",
"364 255 LINE SMOOTH",
"405 230 OFFCURVE",
"419 208 OFFCURVE",
"419 166 CURVE SMOOTH",
"419 123 OFFCURVE",
"391 99 OFFCURVE",
"357 99 CURVE SMOOTH",
"336 99 OFFCURVE",
"313 104 OFFCURVE",
"286 118 CURVE",
"247 14 LINE",
"280 -5 OFFCURVE",
"322 -14 OFFCURVE",
"368 -14 CURVE SMOOTH",
"467 -14 OFFCURVE",
"560 56 OFFCURVE",
"560 171 CURVE SMOOTH",
"560 239 OFFCURVE",
"530 290 OFFCURVE",
"471 328 CURVE SMOOTH",
"450 342 LINE SMOOTH",
"409 368 OFFCURVE",
"373 391 OFFCURVE",
"373 422 CURVE",
"442 446 OFFCURVE",
"498 510 OFFCURVE",
"498 585 CURVE SMOOTH",
"498 706 OFFCURVE",
"406 766 OFFCURVE",
"278 766 CURVE SMOOTH",
"120 766 OFFCURVE",
"62 656 OFFCURVE",
"62 514 CURVE SMOOTH",
"62 -97 LINE"
);
}
);
width = 571;
}
);
unicode = 00DF;
},
{
color = 4;
glyphname = t;
lastChange = "2017-07-07 04:11:21 +0000";
layers = (
{
anchors = (
{
name = bottom;
position = "{243, 0}";
},
{
name = center;
position = "{184, 281}";
},
{
name = top;
position = "{184, 563}";
},
{
name = topright;
position = "{355, 563}";
}
);
background = {
paths = (
{
closed = 1;
nodes = (
"296 -11 OFFCURVE",
"332 -3 OFFCURVE",
"349 0 CURVE",
"349 97 LINE",
"330 94 OFFCURVE",
"310 91 OFFCURVE",
"295 91 CURVE SMOOTH",
"258 91 OFFCURVE",
"236 105 OFFCURVE",
"236 147 CURVE SMOOTH",
"236 457 LINE",
"345 457 LINE",
"351 563 LINE",
"235 563 LINE",
"235 702 LINE",
"113 685 LINE",
"99 563 LINE",
"23 563 LINE",
"17 457 LINE",
"95 457 LINE",
"95 146 LINE SMOOTH",
"95 16 OFFCURVE",
"183 -11 OFFCURVE",
"257 -11 CURVE SMOOTH"
);
}
);
};
guideLines = (
{
angle = 7;
position = "{128, 685}";
},
{
angle = 83;
position = "{342, 100}";
},
{
angle = 83;
position = "{104, 683}";
},
{
angle = 83;
position = "{351, 563}";
},
{
angle = 83;
position = "{46, 563}";
}
);
layerId = "849A9C4C-BF7C-40C5-8614-1FD725A2A379";
paths = (
{
closed = 1;
nodes = (
"278 -9 OFFCURVE",
"306 -6 OFFCURVE",
"330 5 CURVE",
"342 107 LINE",
"329 103 OFFCURVE",
"318 102 OFFCURVE",
"301 102 CURVE SMOOTH",
"259 102 OFFCURVE",
"236 125 OFFCURVE",
"236 173 CURVE",
"236 706 LINE",
"116 691 LINE",
"95 514 LINE",
"95 134 LINE",
"95 35 OFFCURVE",
"157 -9 OFFCURVE",
"242 -9 CURVE SMOOTH"
);
},
{
closed = 1;
nodes = (
"333 458 LINE",
"346 563 LINE",
"28 563 LINE",
"28 458 LINE"
);
}
);
width = 364;
}
);
unicode = 0074;
},
{
color = 4;
glyphname = tbar;
lastChange = "2016-07-29 15:34:05 +0000";
layers = (
{
background = {
paths = (
{
closed = 1;
nodes = (
"270 -13 OFFCURVE",
"296 -10 OFFCURVE",
"314 -6 CURVE SMOOTH",
"324 -4 OFFCURVE",
"333 -2 OFFCURVE",
"340 0 CURVE",
"340 97 LINE",
"330 95 LINE SMOOTH",
"324 94 OFFCURVE",
"315 94 OFFCURVE",
"305 94 CURVE SMOOTH",
"274 94 OFFCURVE",
"233 102 OFFCURVE",
"233 147 CURVE SMOOTH",
"233 457 LINE",
"342 457 LINE",
"348 563 LINE",
"233 563 LINE",
"233 702 LINE",
"111 685 LINE",
"97 563 LINE",
"20 563 LINE",
"14 457 LINE",
"93 457 LINE",
"93 119 LINE SMOOTH",
"93 19 OFFCURVE",
"172 -13 OFFCURVE",
"233 -13 CURVE SMOOTH"
);
},
{
closed = 1;
nodes = (
"310 282 LINE",
"310 375 LINE",
"28 375 LINE",
"28 282 LINE"
);
}
);
};
components = (
{
name = t;
}
);
layerId = "849A9C4C-BF7C-40C5-8614-1FD725A2A379";
paths = (
{
closed = 1;
nodes = (
"310 282 LINE",
"310 375 LINE",
"28 375 LINE",
"28 282 LINE"
);
}
);
width = 358;
}
);
unicode = 0167;
},
{
color = 4;
glyphname = u;
lastChange = "2017-07-07 02:41:25 +0000";
layers = (
{
anchors = (
{
name = bottom;
position = "{266, 0}";
},
{
name = ogonek;
position = "{520, 5}";
},
{
name = top;
position = "{266, 563}";
},
{
name = topright;
position = "{525, 563}";
}
);
components = (
{
name = n_arch;
transform = "{-1, 0, 0, -1, 334, 563}";
}
);
guideLines = (
{
angle = 7;
position = "{474, 566}";
}
);
layerId = "849A9C4C-BF7C-40C5-8614-1FD725A2A379";
paths = (
{
closed = 1;
nodes = (
"334 563 LINE",
"334 138 LINE",
"337 124 LINE",
"337 -7 LINE",
"474 10 LINE",
"474 563 LINE"
);
}
);
width = 532;
}
);
unicode = 0075;
},
{
color = 4;
glyphname = v;
lastChange = "2017-07-13 13:32:37 +0000";
layers = (
{
anchors = (
{
name = bottom;
position = "{213, 0}";
},
{
name = top;
position = "{213, 563}";
}
);
guideLines = (
{
angle = 7;
position = "{155, 573}";
}
);
layerId = "849A9C4C-BF7C-40C5-8614-1FD725A2A379";
paths = (
{
closed = 1;
nodes = (
"293 0 LINE",
"436 561 LINE",
"313 563 LINE",
"227 187 LINE",
"150 567 LINE",
"6 548 LINE",
"146 0 LINE"
);
}
);
width = 442;
}
);
unicode = 0076;
},
{
color = 4;
glyphname = w;
lastChange = "2017-07-13 01:57:59 +0000";
layers = (
{
anchors = (
{
name = bottom;
position = "{321, 0}";
},
{
name = top;
position = "{321, 563}";
}
);
guideLines = (
{
angle = 7;
position = "{153, 570}";
}
);
layerId = "849A9C4C-BF7C-40C5-8614-1FD725A2A379";
paths = (
{
closed = 1;
nodes = (
"267 0 LINE",
"322 330 LINE",
"329 392 LINE",
"334 330 LINE",
"387 0 LINE",
"513 0 LINE",
"630 563 LINE",
"518 563 LINE",
"467 244 LINE",
"459 173 LINE",
"453 244 LINE",
"395 563 LINE",
"269 563 LINE",
"212 244 LINE",
"205 173 LINE",
"198 244 LINE",
"151 566 LINE",
"18 550 LINE",
"127 0 LINE"
);
}
);
width = 642;
}
);
unicode = 0077;
},
{
color = 4;
glyphname = x;
lastChange = "2017-07-03 20:22:57 +0000";
layers = (
{
anchors = (
{
name = bottom;
position = "{221, 0}";
},
{
name = top;
position = "{221, 563}";
}
);
background = {
paths = (
{
closed = 1;
nodes = (
"297 310 LINE",
"433 563 LINE",
"300 563 LINE",
"228 425 LINE",
"161 563 LINE",
"7 563 LINE",
"154 283 LINE",
"2 0 LINE",
"136 0 LINE",
"222 166 LINE",
"305 -6 LINE",
"459 6 LINE"
);
}
);
};
guideLines = (
{
angle = 7;
position = "{164, 572}";
},
{
angle = 173;
position = "{129, -9}";
},
{
angle = 7;
position = "{305, -9}";
}
);
layerId = "849A9C4C-BF7C-40C5-8614-1FD725A2A379";
paths = (
{
closed = 1;
nodes = (
"202 339 LINE",
"166 339 LINE",
"8 0 LINE",
"143 0 LINE",
"243 229 LINE",
"278 229 LINE",
"431 563 LINE",
"298 563 LINE"
);
},
{
closed = 1;
nodes = (
"168 232 LINE",
"187 232 LINE",
"303 -14 LINE",
"438 9 LINE",
"277 347 LINE",
"256 347 LINE",
"165 572 LINE",
"16 554 LINE"
);
}
);
width = 448;
}
);
unicode = 0078;
},
{
color = 4;
glyphname = y;
lastChange = "2017-07-13 13:32:56 +0000";
layers = (
{
anchors = (
{
name = bottom;
position = "{360, 49}";
},
{
name = top;
position = "{200, 563}";
}
);
guideLines = (
{
angle = 7;
position = "{132, 570}";
},
{
angle = 78;
position = "{-14, -103}";
}
);
layerId = "849A9C4C-BF7C-40C5-8614-1FD725A2A379";
paths = (
{
closed = 1;
nodes = (
"214 233 LINE",
"135 566 LINE",
"0 549 LINE",
"145 40 LINE",
"220 183 LINE"
);
},
{
closed = 1;
nodes = (
"142 27 LINE SMOOTH",
"142 -13 OFFCURVE",
"111 -51 OFFCURVE",
"69 -51 CURVE SMOOTH",
"53 -51 OFFCURVE",
"40 -49 OFFCURVE",
"25 -42 CURVE",
"1 -155 LINE",
"27 -165 OFFCURVE",
"46 -168 OFFCURVE",
"81 -168 CURVE SMOOTH",
"193 -168 OFFCURVE",
"245 -97 OFFCURVE",
"274 12 CURVE SMOOTH",
"418 562 LINE",
"297 564 LINE",
"223 233 LINE",
"217 183 LINE",
"142 74 LINE"
);
}
);
width = 420;
}
);
unicode = 0079;
},
{
color = 4;
glyphname = z;
lastChange = "2017-06-28 02:24:46 +0000";
layers = (
{
anchors = (
{
name = bottom;
position = "{212, 0}";
},
{
name = top;
position = "{236, 563}";
}
);
guideLines = (
{
angle = -83;
position = "{44, 88}";
},
{
angle = -83;
position = "{389, 479}";
},
{
angle = 263;
position = "{404, 111}";
},
{
angle = 263;
position = "{39, 453}";
}
);
layerId = "849A9C4C-BF7C-40C5-8614-1FD725A2A379";
paths = (
{
closed = 1;
nodes = (
"393 0 LINE",
"406 111 LINE",
"198 111 LINE",
"399 479 LINE",
"389 563 LINE",
"44 563 LINE",
"44 453 LINE",
"243 453 LINE",
"34 88 LINE",
"45 0 LINE"
);
}
);
width = 425;
}
);
unicode = 007A;
},
{
color = 4;
glyphname = a.001;
lastChange = "2017-07-05 12:42:14 +0000";
layers = (
{
anchors = (
{
name = bottom;
position = "{242, 0}";
},
{
name = ogonek;
position = "{507, -4}";
},
{
name = top;
position = "{251, 563}";
}
);
background = {
components = (
{
name = s;
transform = "{1, 0, 0, 1, 20, 0}";
},
{
name = n;
transform = "{-1, 0, 0, -1, 483, 531}";
}
);
paths = (
{
closed = 1;
nodes = (
"216 -13 OFFCURVE",
"262 22 OFFCURVE",
"285 63 CURVE",
"301 -6 LINE",
"438 6 LINE",
"428 41 OFFCURVE",
"423 69 OFFCURVE",
"423 106 CURVE SMOOTH",
"423 397 LINE SMOOTH",
"423 493 OFFCURVE",
"368 570 OFFCURVE",
"241 570 CURVE SMOOTH",
"160 570 OFFCURVE",
"77 539 OFFCURVE",
"54 427 CURVE",
"188 403 LINE",
"192 435 OFFCURVE",
"208 467 OFFCURVE",
"241 467 CURVE SMOOTH",
"282 467 OFFCURVE",
"282 416 OFFCURVE",
"282 361 CURVE",
"184 355 OFFCURVE",
"34 313 OFFCURVE",
"34 149 CURVE SMOOTH",
"34 42 OFFCURVE",
"89 -13 OFFCURVE",
"165 -13 CURVE SMOOTH"
);
},
{
closed = 1;
nodes = (
"189 87 OFFCURVE",
"172 117 OFFCURVE",
"172 166 CURVE SMOOTH",
"172 246 OFFCURVE",
"219 277 OFFCURVE",
"282 277 CURVE",
"282 121 LINE",
"264 102 OFFCURVE",
"250 87 OFFCURVE",
"225 87 CURVE SMOOTH"
);
}
);
};
guideLines = (
{
position = "{52, 471}";
},
{
angle = -12;
position = "{54, 415}";
}
);
layerId = "849A9C4C-BF7C-40C5-8614-1FD725A2A379";
paths = (
{
closed = 1;
nodes = (
"122 350 OFFCURVE",
"36 278 OFFCURVE",
"36 155 CURVE SMOOTH",
"36 51 OFFCURVE",
"93 -10 OFFCURVE",
"167 -10 CURVE SMOOTH",
"240 -10 OFFCURVE",
"282 35 OFFCURVE",
"299 92 CURVE",
"283 160 LINE",
"283 131 OFFCURVE",
"261 99 OFFCURVE",
"226 99 CURVE SMOOTH",
"190 99 OFFCURVE",
"173 130 OFFCURVE",
"173 174 CURVE SMOOTH",
"173 226 OFFCURVE",
"214 269 OFFCURVE",
"283 269 CURVE",
"283 350 LINE"
);
},
{
closed = 1;
nodes = (
"292 48 OFFCURVE",
"298 22 OFFCURVE",
"307 -9 CURVE",
"443 8 LINE",
"427 45 OFFCURVE",
"423 84 OFFCURVE",
"423 138 CURVE SMOOTH",
"423 372 LINE SMOOTH",
"423 498 OFFCURVE",
"364 573 OFFCURVE",
"239 573 CURVE SMOOTH",
"139 573 OFFCURVE",
"62 514 OFFCURVE",
"54 415 CURVE",
"184 387 LINE",
"187 429 OFFCURVE",
"203 464 OFFCURVE",
"235 464 CURVE SMOOTH",
"274 464 OFFCURVE",
"283 428 OFFCURVE",
"283 387 CURVE SMOOTH",
"283 86 LINE",
"292 86 LINE"
);
}
);
width = 476;
}
);
},
{
color = 4;
glyphname = c.001;
layers = (
{
anchors = (
{
name = bottom;
position = "{223, 0}";
},
{
name = top;
position = "{223, 563}";
}
);
background = {
components = (
{
name = e;
}
);
paths = (
{
closed = 1;
nodes = (
"362 -13 OFFCURVE",
"399 74 OFFCURVE",
"415 198 CURVE",
"297 211 LINE",
"296 159 OFFCURVE",
"285 105 OFFCURVE",
"241 105 CURVE SMOOTH",
"175 105 OFFCURVE",
"175 234 OFFCURVE",
"175 281 CURVE SMOOTH",
"175 328 OFFCURVE",
"175 458 OFFCURVE",
"237 458 CURVE SMOOTH",
"277 458 OFFCURVE",
"281 395 OFFCURVE",
"285 362 CURVE",
"418 368 LINE",
"414 487 OFFCURVE",
"342 570 OFFCURVE",
"238 570 CURVE SMOOTH",
"96 570 OFFCURVE",
"34 420 OFFCURVE",
"34 276 CURVE SMOOTH",
"34 127 OFFCURVE",
"101 -13 OFFCURVE",
"235 -13 CURVE SMOOTH"
);
}
);
};
guideLines = (
{
angle = -12;
position = "{310, 194}";
},
{
angle = 12;
position = "{310, 363}";
},
{
angle = 12;
position = "{310, 363}";
},
{
angle = 90;
position = "{247, 279}";
}
);
layerId = "849A9C4C-BF7C-40C5-8614-1FD725A2A379";
paths = (
{
closed = 1;
nodes = (
"357 -13 OFFCURVE",
"419 73 OFFCURVE",
"439 168 CURVE",
"328 191 LINE",
"319 139 OFFCURVE",
"297 87 OFFCURVE",
"247 87 CURVE SMOOTH",
"192 87 OFFCURVE",
"169 175 OFFCURVE",
"169 278 CURVE SMOOTH",
"169 366 OFFCURVE",
"185 470 OFFCURVE",
"247 470 CURVE SMOOTH",
"292 470 OFFCURVE",
"309 414 OFFCURVE",
"315 365 CURVE",
"435 390 LINE",
"417 499 OFFCURVE",
"363 570 OFFCURVE",
"246 570 CURVE SMOOTH",
"119 570 OFFCURVE",
"34 451 OFFCURVE",
"34 278 CURVE SMOOTH",
"34 106 OFFCURVE",
"107 -13 OFFCURVE",
"245 -13 CURVE SMOOTH"
);
}
);
width = 448;
}
);
},
{
color = 4;
glyphname = d.001;
lastChange = "2017-06-09 00:48:42 +0000";
layers = (
{
anchors = (
{
name = bottom;
position = "{262, 0}";
},
{
name = center;
position = "{356, 644}";
},
{
name = top;
position = "{262, 563}";
},
{
name = topright;
position = "{511, 563}";
}
);
background = {
paths = (
{
closed = 1;
nodes = (
"283 -13 OFFCURVE",
"310 28 OFFCURVE",
"321 70 CURVE",
"356 -6 LINE",
"462 6 LINE",
"462 750 LINE",
"321 732 LINE",
"321 488 LINE",
"301 534 OFFCURVE",
"253 570 OFFCURVE",
"204 570 CURVE SMOOTH",
"93 570 OFFCURVE",
"39 489 OFFCURVE",
"39 281 CURVE SMOOTH",
"39 78 OFFCURVE",
"98 -13 OFFCURVE",
"201 -13 CURVE SMOOTH"
);
},
{
closed = 1;
nodes = (
"184 87 OFFCURVE",
"180 177 OFFCURVE",
"180 281 CURVE SMOOTH",
"180 385 OFFCURVE",
"184 467 OFFCURVE",
"253 467 CURVE SMOOTH",
"280 467 OFFCURVE",
"303 450 OFFCURVE",
"321 422 CURVE",
"321 234 LINE SMOOTH",
"321 117 OFFCURVE",
"287 87 OFFCURVE",
"253 87 CURVE SMOOTH"
);
},
{
closed = 1;
nodes = (
"280 467 OFFCURVE",
"303 450 OFFCURVE",
"321 422 CURVE",
"321 488 LINE",
"301 534 OFFCURVE",
"253 570 OFFCURVE",
"204 570 CURVE SMOOTH",
"93 570 OFFCURVE",
"39 489 OFFCURVE",
"39 281 CURVE SMOOTH",
"39 78 OFFCURVE",
"98 -13 OFFCURVE",
"201 -13 CURVE SMOOTH",
"283 -13 OFFCURVE",
"310 28 OFFCURVE",
"321 70 CURVE",
"321 234 LINE",
"321 117 OFFCURVE",
"287 87 OFFCURVE",
"253 87 CURVE SMOOTH",
"184 87 OFFCURVE",
"180 177 OFFCURVE",
"180 281 CURVE SMOOTH",
"180 385 OFFCURVE",
"184 467 OFFCURVE",
"253 467 CURVE SMOOTH"
);
}
);
};
guideLines = (
{
angle = 180;
position = "{397, -18}";
},
{
angle = 4;
position = "{419, -18}";
}
);
layerId = "849A9C4C-BF7C-40C5-8614-1FD725A2A379";
paths = (
{
closed = 1;
nodes = (
"321 70 LINE",
"333 -24 LINE",
"462 -13 LINE",
"462 760 LINE",
"321 742 LINE"
);
},
{
closed = 1;
nodes = (
"277 467 OFFCURVE",
"303 448 OFFCURVE",
"321 420 CURVE",
"321 488 LINE",
"301 534 OFFCURVE",
"261 570 OFFCURVE",
"194 570 CURVE SMOOTH",
"75 570 OFFCURVE",
"38 443 OFFCURVE",
"38 281 CURVE SMOOTH",
"38 117 OFFCURVE",
"71 -13 OFFCURVE",
"192 -13 CURVE SMOOTH",
"254 -13 OFFCURVE",
"296 17 OFFCURVE",
"321 70 CURVE",
"321 204 LINE",
"312 141 OFFCURVE",
"283 95 OFFCURVE",
"242 95 CURVE SMOOTH",
"188 95 OFFCURVE",
"177 194 OFFCURVE",
"177 281 CURVE SMOOTH",
"177 365 OFFCURVE",
"184 467 OFFCURVE",
"250 467 CURVE SMOOTH"
);
}
);
width = 521;
}
);
},
{
color = 4;
glyphname = f.001;
lastChange = "2017-06-27 04:31:14 +0000";
layers = (
{
anchors = (
{
name = bottom;
position = "{169, 0}";
},
{
name = top;
position = "{169, 563}";
}
);
guideLines = (
{
angle = 83;
position = "{15, 460}";
},
{
angle = 83;
position = "{317, 608}";
},
{
angle = 7;
position = "{229, 0}";
}
);
layerId = "849A9C4C-BF7C-40C5-8614-1FD725A2A379";
paths = (
{
closed = 1;
nodes = (
"229 0 LINE",
"229 563 LINE",
"229 573 LINE SMOOTH",
"229 638 OFFCURVE",
"245 666 OFFCURVE",
"279 666 CURVE SMOOTH",
"298 666 OFFCURVE",
"310 662 OFFCURVE",
"323 654 CURVE",
"333 744 LINE",
"296 761 OFFCURVE",
"277 766 OFFCURVE",
"227 766 CURVE SMOOTH",
"138 766 OFFCURVE",
"89 699 OFFCURVE",
"89 596 CURVE SMOOTH",
"89 0 LINE"
);
},
{
closed = 1;
nodes = (
"320 460 LINE",
"333 563 LINE",
"24 563 LINE",
"11 460 LINE"
);
}
);
width = 338;
}
);
},
{
color = 4;
glyphname = g.001;
lastChange = "2017-07-03 23:55:47 +0000";
layers = (
{
anchors = (
{
name = bottom;
position = "{266, 0}";
},
{
name = top;
position = "{266, 563}";
}
);
background = {
components = (
{
name = a;
transform = "{1, 0, 0, 1, 31, 0}";
}
);
paths = (
{
closed = 1;
nodes = (
"148 570 OFFCURVE",
"50 510 OFFCURVE",
"50 399 CURVE SMOOTH",
"50 289 OFFCURVE",
"148 227 OFFCURVE",
"256 227 CURVE SMOOTH",
"362 227 OFFCURVE",
"462 289 OFFCURVE",
"462 399 CURVE SMOOTH",
"462 510 OFFCURVE",
"362 570 OFFCURVE",
"256 570 CURVE SMOOTH"
);
},
{
closed = 1;
nodes = (
"296 489 OFFCURVE",
"322 446 OFFCURVE",
"322 399 CURVE SMOOTH",
"322 352 OFFCURVE",
"296 308 OFFCURVE",
"256 308 CURVE SMOOTH",
"216 308 OFFCURVE",
"190 352 OFFCURVE",
"190 399 CURVE SMOOTH",
"190 446 OFFCURVE",
"216 489 OFFCURVE",
"256 489 CURVE SMOOTH"
);
}
);
};
components = (
{
name = d_bowl;
transform = "{1, 0, 0, 1, 38, 0}";
}
);
guideLines = (
{
angle = -78;
position = "{495, 547}";
},
{
angle = 78;
position = "{103, -24}";
}
);
layerId = "849A9C4C-BF7C-40C5-8614-1FD725A2A379";
paths = (
{
closed = 1;
nodes = (
"364 -192 OFFCURVE",
"461 -110 OFFCURVE",
"461 28 CURVE",
"461 553 LINE",
"350 553 LINE",
"321 415 LINE",
"321 25 LINE SMOOTH",
"321 -39 OFFCURVE",
"288 -74 OFFCURVE",
"220 -74 CURVE SMOOTH",
"168 -74 OFFCURVE",
"128 -63 OFFCURVE",
"78 -37 CURVE",
"52 -160 LINE",
"104 -183 OFFCURVE",
"152 -192 OFFCURVE",
"223 -192 CURVE SMOOTH"
);
}
);
width = 521;
}
);
},
{
color = 4;
glyphname = h.001;
lastChange = "2017-06-09 18:01:16 +0000";
layers = (
{
anchors = (
{
name = bottom;
position = "{270, 0}";
},
{
name = center;
position = "{270, 281}";
},
{
name = top;
position = "{129, 750}";
}
);
background = {
paths = (
{
closed = 1;
nodes = (
"201 6 LINE",
"201 412 LINE",
"240 435 OFFCURVE",
"267 450 OFFCURVE",
"293 450 CURVE SMOOTH",
"321 450 OFFCURVE",
"342 429 OFFCURVE",
"342 377 CURVE SMOOTH",
"342 -6 LINE",
"482 6 LINE",
"482 428 LINE SMOOTH",
"482 515 OFFCURVE",
"432 570 OFFCURVE",
"362 570 CURVE SMOOTH",
"314 570 OFFCURVE",
"260 545 OFFCURVE",
"201 491 CURVE",
"201 760 LINE",
"61 742 LINE",
"61 -6 LINE"
);
}
);
};
guideLines = (
{
angle = 180;
position = "{397, 11}";
}
);
layerId = "849A9C4C-BF7C-40C5-8614-1FD725A2A379";
paths = (
{
closed = 1;
nodes = (
"201 21 LINE",
"201 760 LINE",
"61 742 LINE",
"76 21 LINE"
);
},
{
closed = 1;
nodes = (
"201 418 LINE",
"226 446 OFFCURVE",
"258 457 OFFCURVE",
"283 457 CURVE SMOOTH",
"320 457 OFFCURVE",
"342 431 OFFCURVE",
"342 375 CURVE SMOOTH",
"342 -23 LINE",
"471 -7 LINE",
"482 415 LINE SMOOTH",
"484 502 OFFCURVE",
"437 568 OFFCURVE",
"353 568 CURVE SMOOTH",
"299 568 OFFCURVE",
"247 540 OFFCURVE",
"201 491 CURVE"
);
}
);
width = 539;
}
);
},
{
color = 4;
glyphname = i.001;
lastChange = "2017-06-09 18:02:03 +0000";
layers = (
{
anchors = (
{
name = bottom;
position = "{127, 0}";
},
{
name = ogonek;
position = "{281, 5}";
},
{
name = top;
position = "{131, 563}";
}
);
background = {
paths = (
{
closed = 1;
nodes = (
"202 6 LINE",
"202 563 LINE",
"62 551 LINE",
"62 -6 LINE"
);
}
);
};
guideLines = (
{
angle = 7;
position = "{131, 560}";
},
{
angle = 7;
position = "{62, 776}";
},
{
angle = 6.985;
position = "{75, -23}";
}
);
layerId = "849A9C4C-BF7C-40C5-8614-1FD725A2A379";
paths = (
{
closed = 1;
nodes = (
"202 647 LINE",
"202 793 LINE",
"62 776 LINE",
"72 647 LINE"
);
},
{
closed = 1;
nodes = (
"199 -8 LINE",
"201 580 LINE",
"61 564 LINE",
"75 -23 LINE"
);
}
);
width = 263;
}
);
},
{
color = 4;
glyphname = n.001;
lastChange = "2017-06-09 00:46:19 +0000";
layers = (
{
anchors = (
{
name = bottom;
position = "{270, 0}";
},
{
name = top;
position = "{270, 563}";
}
);
background = {
paths = (
{
closed = 1;
nodes = (
"201 418 LINE",
"226 446 OFFCURVE",
"258 457 OFFCURVE",
"283 457 CURVE SMOOTH",
"320 457 OFFCURVE",
"342 431 OFFCURVE",
"342 375 CURVE SMOOTH",
"342 -6 LINE",
"482 6 LINE",
"482 415 LINE SMOOTH",
"482 502 OFFCURVE",
"437 568 OFFCURVE",
"353 568 CURVE SMOOTH",
"299 568 OFFCURVE",
"247 540 OFFCURVE",
"201 491 CURVE"
);
}
);
};
guideLines = (
{
position = "{242, 566}";
},
{
angle = 7;
position = "{61, 544}";
}
);
layerId = "849A9C4C-BF7C-40C5-8614-1FD725A2A379";
paths = (
{
closed = 1;
nodes = (
"201 0 LINE",
"201 560 LINE",
"61 544 LINE",
"61 0 LINE"
);
},
{
closed = 1;
nodes = (
"201 418 LINE",
"226 446 OFFCURVE",
"258 457 OFFCURVE",
"283 457 CURVE SMOOTH",
"320 457 OFFCURVE",
"342 431 OFFCURVE",
"342 375 CURVE SMOOTH",
"342 -23 LINE",
"471 -7 LINE",
"482 415 LINE SMOOTH",
"484 502 OFFCURVE",
"437 568 OFFCURVE",
"353 568 CURVE SMOOTH",
"299 568 OFFCURVE",
"247 540 OFFCURVE",
"201 491 CURVE"
);
}
);
width = 539;
}
);
},
{
color = 4;
glyphname = r.001;
lastChange = "2017-06-27 01:45:01 +0000";
layers = (
{
anchors = (
{
name = bottom;
position = "{202, 0}";
},
{
name = top;
position = "{202, 563}";
}
);
background = {
components = (
{
name = n;
}
);
paths = (
{
closed = 1;
nodes = (
"201 6 LINE",
"201 375 LINE",
"256 423 OFFCURVE",
"365 431 OFFCURVE",
"389 431 CURVE",
"389 568 LINE",
"289 568 OFFCURVE",
"235 521 OFFCURVE",
"201 472 CURVE",
"201 563 LINE",
"61 551 LINE",
"61 -6 LINE"
);
}
);
};
guideLines = (
{
angle = 7;
position = "{195, 568}";
},
{
angle = 7;
position = "{291, 295}";
}
);
layerId = "849A9C4C-BF7C-40C5-8614-1FD725A2A379";
paths = (
{
closed = 1;
nodes = (
"195 568 LINE",
"61 552 LINE",
"61 0 LINE",
"201 0 LINE",
"201 430 LINE"
);
},
{
closed = 1;
nodes = (
"201 370 OFFCURVE",
"230 415 OFFCURVE",
"259 415 CURVE SMOOTH",
"285 415 OFFCURVE",
"294 386 OFFCURVE",
"294 356 CURVE SMOOTH",
"294 339 OFFCURVE",
"294 327 OFFCURVE",
"293 316 CURVE",
"403 329 LINE",
"410 360 OFFCURVE",
"416 401 OFFCURVE",
"416 443 CURVE SMOOTH",
"416 512 OFFCURVE",
"390 563 OFFCURVE",
"325 563 CURVE SMOOTH",
"273 563 OFFCURVE",
"205 513 OFFCURVE",
"187 418 CURVE",
"201 293 LINE"
);
}
);
width = 398;
}
);
},
{
color = 4;
glyphname = germandbls.001;
lastChange = "2017-07-04 22:43:09 +0000";
layers = (
{
background = {
components = (
{
name = s;
transform = "{1, 0, 0, 1, 196, 0}";
}
);
};
guideLines = (
{
angle = 70;
position = "{279, 115}";
}
);
layerId = "849A9C4C-BF7C-40C5-8614-1FD725A2A379";
paths = (
{
closed = 1;
nodes = (
"202 0 LINE",
"202 525 LINE SMOOTH",
"202 610 OFFCURVE",
"229 660 OFFCURVE",
"276 660 CURVE SMOOTH",
"329 660 OFFCURVE",
"349 622 OFFCURVE",
"349 557 CURVE SMOOTH",
"349 487 OFFCURVE",
"321 448 OFFCURVE",
"251 431 CURVE",
"251 337 LINE",
"353 319 OFFCURVE",
"398 276 OFFCURVE",
"398 200 CURVE SMOOTH",
"398 138 OFFCURVE",
"373 101 OFFCURVE",
"328 101 CURVE SMOOTH",
"308 101 OFFCURVE",
"294 105 OFFCURVE",
"275 115 CURVE",
"236 8 LINE",
"273 -7 OFFCURVE",
"309 -14 OFFCURVE",
"346 -14 CURVE SMOOTH",
"471 -14 OFFCURVE",
"538 82 OFFCURVE",
"538 194 CURVE SMOOTH",
"538 310 OFFCURVE",
"488 374 OFFCURVE",
"385 407 CURVE",
"450 425 OFFCURVE",
"492 479 OFFCURVE",
"492 577 CURVE SMOOTH",
"492 706 OFFCURVE",
"404 766 OFFCURVE",
"276 766 CURVE SMOOTH",
"118 766 OFFCURVE",
"62 656 OFFCURVE",
"62 514 CURVE SMOOTH",
"62 0 LINE"
);
}
);
width = 571;
}
);
},
{
color = 4;
glyphname = y.001;
layers = (
{
anchors = (
{
name = bottom;
position = "{366, 49}";
},
{
name = top;
position = "{206, 563}";
}
);
guideLines = (
{
angle = 7;
position = "{138, 570}";
},
{
angle = 78;
position = "{-8, -103}";
}
);
layerId = "849A9C4C-BF7C-40C5-8614-1FD725A2A379";
paths = (
{
closed = 1;
nodes = (
"219 253 LINE",
"141 570 LINE",
"6 553 LINE",
"151 40 LINE",
"225 203 LINE"
);
},
{
closed = 1;
nodes = (
"148 27 LINE SMOOTH",
"148 -15 OFFCURVE",
"123 -51 OFFCURVE",
"75 -51 CURVE SMOOTH",
"59 -51 OFFCURVE",
"46 -49 OFFCURVE",
"31 -42 CURVE",
"7 -155 LINE",
"33 -165 OFFCURVE",
"50 -168 OFFCURVE",
"79 -168 CURVE SMOOTH",
"181 -168 OFFCURVE",
"246 -114 OFFCURVE",
"282 28 CURVE SMOOTH",
"418 562 LINE",
"303 564 LINE",
"228 253 LINE",
"222 203 LINE",
"148 74 LINE"
);
}
);
width = 426;
}
);
},
{
color = 4;
glyphname = a.002;
lastChange = "2017-06-15 22:36:08 +0000";
layers = (
{
anchors = (
{
name = bottom;
position = "{235, 0}";
},
{
name = ogonek;
position = "{500, -4}";
},
{
name = top;
position = "{244, 563}";
}
);
background = {
components = (
{
name = s;
transform = "{1, 0, 0, 1, 13, 0}";
}
);
paths = (
{
closed = 1;
nodes = (
"209 -13 OFFCURVE",
"255 22 OFFCURVE",
"278 63 CURVE",
"294 -6 LINE",
"431 6 LINE",
"421 41 OFFCURVE",
"416 69 OFFCURVE",
"416 106 CURVE SMOOTH",
"416 397 LINE SMOOTH",
"416 493 OFFCURVE",
"361 570 OFFCURVE",
"234 570 CURVE SMOOTH",
"153 570 OFFCURVE",
"70 539 OFFCURVE",
"47 427 CURVE",
"181 403 LINE",
"185 435 OFFCURVE",
"201 467 OFFCURVE",
"234 467 CURVE SMOOTH",
"275 467 OFFCURVE",
"275 416 OFFCURVE",
"275 361 CURVE",
"177 355 OFFCURVE",
"27 313 OFFCURVE",
"27 149 CURVE SMOOTH",
"27 42 OFFCURVE",
"82 -13 OFFCURVE",
"158 -13 CURVE SMOOTH"
);
},
{
closed = 1;
nodes = (
"182 87 OFFCURVE",
"165 117 OFFCURVE",
"165 166 CURVE SMOOTH",
"165 246 OFFCURVE",
"212 277 OFFCURVE",
"275 277 CURVE",
"275 121 LINE",
"257 102 OFFCURVE",
"243 87 OFFCURVE",
"218 87 CURVE SMOOTH"
);
}
);
};
guideLines = (
{
position = "{45, 470}";
}
);
layerId = "849A9C4C-BF7C-40C5-8614-1FD725A2A379";
paths = (
{
closed = 1;
nodes = (
"209 -13 OFFCURVE",
"255 22 OFFCURVE",
"278 63 CURVE",
"294 -6 LINE",
"431 6 LINE",
"421 41 OFFCURVE",
"416 69 OFFCURVE",
"416 106 CURVE SMOOTH",
"416 397 LINE SMOOTH",
"416 493 OFFCURVE",
"361 570 OFFCURVE",
"234 570 CURVE SMOOTH",
"153 570 OFFCURVE",
"70 539 OFFCURVE",
"47 427 CURVE",
"181 403 LINE",
"185 435 OFFCURVE",
"201 467 OFFCURVE",
"234 467 CURVE SMOOTH",
"275 467 OFFCURVE",
"275 416 OFFCURVE",
"275 361 CURVE",
"177 355 OFFCURVE",
"27 313 OFFCURVE",
"27 149 CURVE SMOOTH",
"27 42 OFFCURVE",
"82 -13 OFFCURVE",
"158 -13 CURVE SMOOTH"
);
},
{
closed = 1;
nodes = (
"182 87 OFFCURVE",
"165 117 OFFCURVE",
"165 166 CURVE SMOOTH",
"165 246 OFFCURVE",
"212 277 OFFCURVE",
"275 277 CURVE",
"275 121 LINE",
"257 102 OFFCURVE",
"243 87 OFFCURVE",
"218 87 CURVE SMOOTH"
);
}
);
width = 469;
}
);
},
{
color = 4;
glyphname = f.002;
lastChange = "2017-07-03 18:49:23 +0000";
layers = (
{
anchors = (
{
name = bottom;
position = "{169, 0}";
},
{
name = top;
position = "{169, 563}";
}
);
background = {
components = (
{
name = t;
transform = "{1, 0, 0, 1, 9, 0}";
}
);
};
guideLines = (
{
angle = 83;
position = "{15, 460}";
},
{
angle = 83;
position = "{330, 656}";
},
{
angle = 7;
position = "{229, 0}";
}
);
layerId = "849A9C4C-BF7C-40C5-8614-1FD725A2A379";
paths = (
{
closed = 1;
nodes = (
"320 458 LINE",
"333 563 LINE",
"22 563 LINE",
"22 458 LINE"
);
},
{
closed = 1;
nodes = (
"229 0 LINE",
"229 563 LINE",
"229 573 LINE SMOOTH",
"229 638 OFFCURVE",
"242 666 OFFCURVE",
"284 666 CURVE SMOOTH",
"302 666 OFFCURVE",
"316 663 OFFCURVE",
"330 656 CURVE",
"318 752 LINE",
"294 765 OFFCURVE",
"264 772 OFFCURVE",
"228 772 CURVE SMOOTH",
"135 772 OFFCURVE",
"89 699 OFFCURVE",
"89 596 CURVE SMOOTH",
"89 0 LINE"
);
}
);
width = 338;
}
);
},
{
color = 4;
glyphname = n.002;
lastChange = "2017-06-09 18:01:19 +0000";
layers = (
{
anchors = (
{
name = bottom;
position = "{270, 0}";
},
{
name = top;
position = "{270, 563}";
}
);
background = {
paths = (
{
closed = 1;
nodes = (
"201 418 LINE",
"226 446 OFFCURVE",
"258 457 OFFCURVE",
"283 457 CURVE SMOOTH",
"320 457 OFFCURVE",
"342 431 OFFCURVE",
"342 375 CURVE SMOOTH",
"342 -6 LINE",
"482 6 LINE",
"482 415 LINE SMOOTH",
"482 502 OFFCURVE",
"437 568 OFFCURVE",
"353 568 CURVE SMOOTH",
"299 568 OFFCURVE",
"247 540 OFFCURVE",
"201 491 CURVE"
);
}
);
};
guideLines = (
{
position = "{242, 566}";
},
{
angle = 7;
position = "{61, 564}";
}
);
layerId = "849A9C4C-BF7C-40C5-8614-1FD725A2A379";
paths = (
{
closed = 1;
nodes = (
"201 20 LINE",
"201 580 LINE",
"61 564 LINE",
"71 20 LINE"
);
},
{
closed = 1;
nodes = (
"201 418 LINE",
"226 446 OFFCURVE",
"258 457 OFFCURVE",
"283 457 CURVE SMOOTH",
"320 457 OFFCURVE",
"342 431 OFFCURVE",
"342 375 CURVE SMOOTH",
"342 -23 LINE",
"471 -7 LINE",
"482 415 LINE SMOOTH",
"484 502 OFFCURVE",
"437 568 OFFCURVE",
"353 568 CURVE SMOOTH",
"299 568 OFFCURVE",
"247 540 OFFCURVE",
"201 491 CURVE"
);
}
);
width = 539;
}
);
},
{
color = 4;
glyphname = a.003;
lastChange = "2017-07-01 15:38:12 +0000";
layers = (
{
anchors = (
{
name = bottom;
position = "{235, 0}";
},
{
name = ogonek;
position = "{500, -4}";
},
{
name = top;
position = "{244, 563}";
}
);
background = {
components = (
{
name = s;
transform = "{1, 0, 0, 1, 13, 0}";
},
{
name = n;
transform = "{-1, 0, 0, -1, 476, 531}";
}
);
paths = (
{
closed = 1;
nodes = (
"209 -13 OFFCURVE",
"255 22 OFFCURVE",
"278 63 CURVE",
"294 -6 LINE",
"431 6 LINE",
"421 41 OFFCURVE",
"416 69 OFFCURVE",
"416 106 CURVE SMOOTH",
"416 397 LINE SMOOTH",
"416 493 OFFCURVE",
"361 570 OFFCURVE",
"234 570 CURVE SMOOTH",
"153 570 OFFCURVE",
"70 539 OFFCURVE",
"47 427 CURVE",
"181 403 LINE",
"185 435 OFFCURVE",
"201 467 OFFCURVE",
"234 467 CURVE SMOOTH",
"275 467 OFFCURVE",
"275 416 OFFCURVE",
"275 361 CURVE",
"177 355 OFFCURVE",
"27 313 OFFCURVE",
"27 149 CURVE SMOOTH",
"27 42 OFFCURVE",
"82 -13 OFFCURVE",
"158 -13 CURVE SMOOTH"
);
},
{
closed = 1;
nodes = (
"182 87 OFFCURVE",
"165 117 OFFCURVE",
"165 166 CURVE SMOOTH",
"165 246 OFFCURVE",
"212 277 OFFCURVE",
"275 277 CURVE",
"275 121 LINE",
"257 102 OFFCURVE",
"243 87 OFFCURVE",
"218 87 CURVE SMOOTH"
);
}
);
};
guideLines = (
{
position = "{45, 471}";
},
{
angle = -12;
position = "{167, 401}";
}
);
layerId = "849A9C4C-BF7C-40C5-8614-1FD725A2A379";
paths = (
{
closed = 1;
nodes = (
"130 346 OFFCURVE",
"29 283 OFFCURVE",
"29 151 CURVE SMOOTH",
"29 60 OFFCURVE",
"75 -13 OFFCURVE",
"160 -13 CURVE SMOOTH",
"225 -13 OFFCURVE",
"269 32 OFFCURVE",
"292 89 CURVE",
"276 151 LINE",
"276 127 OFFCURVE",
"254 96 OFFCURVE",
"219 96 CURVE SMOOTH",
"183 96 OFFCURVE",
"166 122 OFFCURVE",
"166 167 CURVE SMOOTH",
"166 229 OFFCURVE",
"213 265 OFFCURVE",
"276 265 CURVE",
"276 346 LINE"
);
},
{
closed = 1;
nodes = (
"288 10 OFFCURVE",
"343 -13 OFFCURVE",
"395 -13 CURVE SMOOTH",
"412 -13 OFFCURVE",
"422 -11 OFFCURVE",
"436 -8 CURVE",
"447 82 LINE",
"428 80 OFFCURVE",
"415 94 OFFCURVE",
"415 138 CURVE SMOOTH",
"415 372 LINE SMOOTH",
"415 502 OFFCURVE",
"356 570 OFFCURVE",
"230 570 CURVE SMOOTH",
"132 570 OFFCURVE",
"57 515 OFFCURVE",
"49 416 CURVE",
"172 390 LINE",
"176 427 OFFCURVE",
"193 461 OFFCURVE",
"227 461 CURVE SMOOTH",
"261 461 OFFCURVE",
"276 423 OFFCURVE",
"276 379 CURVE SMOOTH",
"276 65 LINE"
);
}
);
width = 469;
}
);
},
{
color = 4;
glyphname = n.003;
lastChange = "2017-07-01 01:10:07 +0000";
layers = (
{
anchors = (
{
name = bottom;
position = "{271, 0}";
},
{
name = top;
position = "{271, 563}";
}
);
background = {
components = (
{
name = r;
transform = "{1, 0, 0, 1, 1, 0}";
}
);
paths = (
{
closed = 1;
nodes = (
"202 0 LINE",
"202 418 LINE",
"227 446 OFFCURVE",
"259 457 OFFCURVE",
"284 457 CURVE SMOOTH",
"321 457 OFFCURVE",
"343 431 OFFCURVE",
"343 375 CURVE SMOOTH",
"343 -6 LINE",
"483 6 LINE",
"483 415 LINE SMOOTH",
"483 502 OFFCURVE",
"438 568 OFFCURVE",
"354 568 CURVE SMOOTH",
"300 568 OFFCURVE",
"248 540 OFFCURVE",
"202 491 CURVE",
"202 566 LINE",
"62 554 LINE",
"62 0 LINE"
);
}
);
};
components = (
{
name = n_arch;
transform = "{1, 0, 0, 1, 202, 0}";
}
);
guideLines = (
{
angle = 7;
position = "{62, 547}";
},
{
angle = -83;
position = "{190, 543}";
}
);
layerId = "849A9C4C-BF7C-40C5-8614-1FD725A2A379";
paths = (
{
closed = 1;
nodes = (
"202 0 LINE",
"202 414 LINE",
"192 415 LINE",
"196 568 LINE",
"62 551 LINE",
"62 0 LINE"
);
}
);
width = 540;
}
);
},
{
color = 4;
glyphname = n.004;
lastChange = "2017-07-01 01:10:53 +0000";
layers = (
{
anchors = (
{
name = bottom;
position = "{271, 0}";
},
{
name = top;
position = "{271, 563}";
}
);
background = {
components = (
{
name = r;
transform = "{1, 0, 0, 1, 1, 0}";
}
);
paths = (
{
closed = 1;
nodes = (
"202 0 LINE",
"202 418 LINE",
"227 446 OFFCURVE",
"259 457 OFFCURVE",
"284 457 CURVE SMOOTH",
"321 457 OFFCURVE",
"343 431 OFFCURVE",
"343 375 CURVE SMOOTH",
"343 -6 LINE",
"483 6 LINE",
"483 415 LINE SMOOTH",
"483 502 OFFCURVE",
"438 568 OFFCURVE",
"354 568 CURVE SMOOTH",
"300 568 OFFCURVE",
"248 540 OFFCURVE",
"202 491 CURVE",
"202 566 LINE",
"62 554 LINE",
"62 0 LINE"
);
}
);
};
guideLines = (
{
angle = 7;
position = "{62, 547}";
},
{
angle = -83;
position = "{190, 543}";
}
);
layerId = "849A9C4C-BF7C-40C5-8614-1FD725A2A379";
paths = (
{
closed = 1;
nodes = (
"202 0 LINE",
"202 414 LINE",
"187 415 LINE",
"196 568 LINE",
"62 551 LINE",
"62 0 LINE"
);
},
{
closed = 1;
nodes = (
"202 252 LINE",
"202 365 OFFCURVE",
"232 451 OFFCURVE",
"289 451 CURVE SMOOTH",
"335 451 OFFCURVE",
"343 410 OFFCURVE",
"343 354 CURVE SMOOTH",
"343 0 LINE",
"483 0 LINE",
"483 401 LINE SMOOTH",
"483 518 OFFCURVE",
"432 570 OFFCURVE",
"342 570 CURVE SMOOTH",
"268 570 OFFCURVE",
"206 512 OFFCURVE",
"187 415 CURVE"
);
}
);
width = 540;
}
);
},
{
color = 4;
glyphname = c.ori;
lastChange = "2017-06-26 00:28:26 +0000";
layers = (
{
anchors = (
{
name = bottom;
position = "{223, 0}";
},
{
name = top;
position = "{223, 563}";
}
);
background = {
paths = (
{
closed = 1;
nodes = (
"101 570 OFFCURVE",
"34 430 OFFCURVE",
"34 281 CURVE SMOOTH",
"34 137 OFFCURVE",
"96 -13 OFFCURVE",
"238 -13 CURVE SMOOTH",
"342 -13 OFFCURVE",
"414 70 OFFCURVE",
"418 189 CURVE",
"285 195 LINE",
"281 162 OFFCURVE",
"277 99 OFFCURVE",
"237 99 CURVE SMOOTH",
"175 99 OFFCURVE",
"175 229 OFFCURVE",
"175 276 CURVE SMOOTH",
"175 323 OFFCURVE",
"175 452 OFFCURVE",
"241 452 CURVE SMOOTH",
"285 452 OFFCURVE",
"296 398 OFFCURVE",
"297 346 CURVE",
"415 359 LINE",
"399 483 OFFCURVE",
"362 570 OFFCURVE",
"235 570 CURVE SMOOTH"
);
}
);
};
guideLines = (
{
angle = -12;
position = "{310, 203}";
},
{
angle = 12;
position = "{310, 353}";
},
{
angle = 90;
position = "{247, 279}";
}
);
layerId = "849A9C4C-BF7C-40C5-8614-1FD725A2A379";
paths = (
{
closed = 1;
nodes = (
"362 -13 OFFCURVE",
"399 74 OFFCURVE",
"415 198 CURVE",
"297 211 LINE",
"296 159 OFFCURVE",
"285 105 OFFCURVE",
"241 105 CURVE SMOOTH",
"175 105 OFFCURVE",
"175 234 OFFCURVE",
"175 281 CURVE SMOOTH",
"175 328 OFFCURVE",
"175 458 OFFCURVE",
"237 458 CURVE SMOOTH",
"277 458 OFFCURVE",
"281 395 OFFCURVE",
"285 362 CURVE",
"418 368 LINE",
"414 487 OFFCURVE",
"342 570 OFFCURVE",
"238 570 CURVE SMOOTH",
"96 570 OFFCURVE",
"34 420 OFFCURVE",
"34 276 CURVE SMOOTH",
"34 127 OFFCURVE",
"101 -13 OFFCURVE",
"235 -13 CURVE SMOOTH"
);
}
);
width = 448;
}
);
},
{
color = 4;
glyphname = d.ori;
lastChange = "2017-06-15 23:00:33 +0000";
layers = (
{
anchors = (
{
name = bottom;
position = "{262, 0}";
},
{
name = center;
position = "{356, 644}";
},
{
name = top;
position = "{262, 563}";
},
{
name = topright;
position = "{511, 563}";
}
);
background = {
paths = (
{
closed = 1;
nodes = (
"283 -13 OFFCURVE",
"310 28 OFFCURVE",
"321 70 CURVE",
"356 -6 LINE",
"462 6 LINE",
"462 750 LINE",
"321 732 LINE",
"321 488 LINE",
"301 534 OFFCURVE",
"253 570 OFFCURVE",
"204 570 CURVE SMOOTH",
"93 570 OFFCURVE",
"39 489 OFFCURVE",
"39 281 CURVE SMOOTH",
"39 78 OFFCURVE",
"98 -13 OFFCURVE",
"201 -13 CURVE SMOOTH"
);
},
{
closed = 1;
nodes = (
"184 87 OFFCURVE",
"180 177 OFFCURVE",
"180 281 CURVE SMOOTH",
"180 385 OFFCURVE",
"184 467 OFFCURVE",
"253 467 CURVE SMOOTH",
"280 467 OFFCURVE",
"303 450 OFFCURVE",
"321 422 CURVE",
"321 234 LINE SMOOTH",
"321 117 OFFCURVE",
"287 87 OFFCURVE",
"253 87 CURVE SMOOTH"
);
},
{
closed = 1;
nodes = (
"280 467 OFFCURVE",
"303 450 OFFCURVE",
"321 422 CURVE",
"321 488 LINE",
"301 534 OFFCURVE",
"253 570 OFFCURVE",
"204 570 CURVE SMOOTH",
"93 570 OFFCURVE",
"39 489 OFFCURVE",
"39 281 CURVE SMOOTH",
"39 78 OFFCURVE",
"98 -13 OFFCURVE",
"201 -13 CURVE SMOOTH",
"283 -13 OFFCURVE",
"310 28 OFFCURVE",
"321 70 CURVE",
"321 234 LINE",
"321 117 OFFCURVE",
"287 87 OFFCURVE",
"253 87 CURVE SMOOTH",
"184 87 OFFCURVE",
"180 177 OFFCURVE",
"180 281 CURVE SMOOTH",
"180 385 OFFCURVE",
"184 467 OFFCURVE",
"253 467 CURVE SMOOTH"
);
}
);
};
guideLines = (
{
angle = 7;
position = "{394, 752}";
}
);
layerId = "849A9C4C-BF7C-40C5-8614-1FD725A2A379";
paths = (
{
closed = 1;
nodes = (
"283 -13 OFFCURVE",
"310 28 OFFCURVE",
"321 70 CURVE",
"356 -6 LINE",
"462 6 LINE",
"462 750 LINE",
"321 732 LINE",
"321 488 LINE",
"301 534 OFFCURVE",
"253 570 OFFCURVE",
"204 570 CURVE SMOOTH",
"93 570 OFFCURVE",
"39 489 OFFCURVE",
"39 281 CURVE SMOOTH",
"39 78 OFFCURVE",
"98 -13 OFFCURVE",
"201 -13 CURVE SMOOTH"
);
},
{
closed = 1;
nodes = (
"184 87 OFFCURVE",
"180 177 OFFCURVE",
"180 281 CURVE SMOOTH",
"180 385 OFFCURVE",
"184 467 OFFCURVE",
"253 467 CURVE SMOOTH",
"280 467 OFFCURVE",
"303 450 OFFCURVE",
"321 422 CURVE",
"321 234 LINE SMOOTH",
"321 117 OFFCURVE",
"287 87 OFFCURVE",
"253 87 CURVE SMOOTH"
);
}
);
width = 521;
}
);
},
{
color = 4;
glyphname = schwa.ori;
lastChange = "2017-07-04 21:10:33 +0000";
layers = (
{
layerId = "849A9C4C-BF7C-40C5-8614-1FD725A2A379";
paths = (
{
closed = 1;
nodes = (
"368 -16 OFFCURVE",
"437 106 OFFCURVE",
"437 278 CURVE SMOOTH",
"437 449 OFFCURVE",
"369 570 OFFCURVE",
"230 570 CURVE SMOOTH",
"129 570 OFFCURVE",
"70 506 OFFCURVE",
"44 415 CURVE",
"150 375 LINE",
"156 386 OFFCURVE",
"185 466 OFFCURVE",
"229 466 CURVE SMOOTH",
"279 466 OFFCURVE",
"297 366 OFFCURVE",
"297 295 CURVE",
"28 295 LINE",
"27 286 OFFCURVE",
"26 270 OFFCURVE",
"26 247 CURVE SMOOTH",
"26 157 OFFCURVE",
"50 -16 OFFCURVE",
"223 -16 CURVE SMOOTH"
);
},
{
closed = 1;
nodes = (
"183 81 OFFCURVE",
"163 139 OFFCURVE",
"163 214 CURVE",
"297 214 LINE",
"297 144 OFFCURVE",
"267 81 OFFCURVE",
"224 81 CURVE SMOOTH"
);
}
);
width = 471;
}
);
},
{
color = 4;
glyphname = f.ori;
lastChange = "2017-06-25 23:01:22 +0000";
layers = (
{
anchors = (
{
name = bottom;
position = "{169, 0}";
},
{
name = top;
position = "{169, 563}";
}
);
layerId = "849A9C4C-BF7C-40C5-8614-1FD725A2A379";
paths = (
{
closed = 1;
nodes = (
"229 6 LINE",
"229 457 LINE",
"325 457 LINE",
"325 563 LINE",
"229 563 LINE",
"229 573 LINE SMOOTH",
"229 614 OFFCURVE",
"233 656 OFFCURVE",
"292 656 CURVE SMOOTH",
"323 656 LINE",
"323 740 LINE",
"307 747 OFFCURVE",
"283 755 OFFCURVE",
"228 755 CURVE SMOOTH",
"92 755 OFFCURVE",
"88 664 OFFCURVE",
"88 573 CURVE SMOOTH",
"88 563 LINE",
"24 563 LINE",
"24 457 LINE",
"88 457 LINE",
"88 -6 LINE"
);
}
);
width = 338;
}
);
},
{
color = 4;
glyphname = g.ori;
lastChange = "2017-06-26 12:26:12 +0000";
layers = (
{
anchors = (
{
name = bottom;
position = "{266, 0}";
},
{
name = top;
position = "{266, 563}";
}
);
background = {
paths = (
{
closed = 1;
nodes = (
"404 -175 OFFCURVE",
"509 -130 OFFCURVE",
"509 -6 CURVE SMOOTH",
"509 73 OFFCURVE",
"463 118 OFFCURVE",
"370 129 CURVE SMOOTH",
"210 147 LINE",
"190 150 OFFCURVE",
"175 164 OFFCURVE",
"175 183 CURVE SMOOTH",
"175 203 OFFCURVE",
"195 224 OFFCURVE",
"212 229 CURVE",
"221 229 OFFCURVE",
"228 229 OFFCURVE",
"234 228 CURVE",
"271 227 LINE SMOOTH",
"410 227 OFFCURVE",
"467 305 OFFCURVE",
"467 396 CURVE SMOOTH",
"467 424 OFFCURVE",
"462 443 OFFCURVE",
"446 484 CURVE",
"467 493 OFFCURVE",
"496 498 OFFCURVE",
"535 498 CURVE",
"535 591 LINE",
"474 591 OFFCURVE",
"438 564 OFFCURVE",
"398 528 CURVE",
"357 556 OFFCURVE",
"311 570 OFFCURVE",
"258 570 CURVE SMOOTH",
"223 570 OFFCURVE",
"189 563 OFFCURVE",
"157 550 CURVE SMOOTH",
"92 523 OFFCURVE",
"47 470 OFFCURVE",
"47 395 CURVE SMOOTH",
"47 333 OFFCURVE",
"77 285 OFFCURVE",
"137 250 CURVE",
"78 222 OFFCURVE",
"39 179 OFFCURVE",
"39 127 CURVE SMOOTH",
"39 84 OFFCURVE",
"64 65 OFFCURVE",
"115 50 CURVE",
"58 29 OFFCURVE",
"16 -6 OFFCURVE",
"16 -57 CURVE SMOOTH",
"16 -130 OFFCURVE",
"103 -175 OFFCURVE",
"252 -175 CURVE SMOOTH"
);
},
{
closed = 1;
nodes = (
"208 307 OFFCURVE",
"190 353 OFFCURVE",
"190 398 CURVE SMOOTH",
"190 447 OFFCURVE",
"216 485 OFFCURVE",
"257 485 CURVE SMOOTH",
"294 485 OFFCURVE",
"321 456 OFFCURVE",
"321 397 CURVE SMOOTH",
"321 340 OFFCURVE",
"297 307 OFFCURVE",
"256 307 CURVE SMOOTH"
);
},
{
closed = 1;
nodes = (
"182 -73 OFFCURVE",
"144 -53 OFFCURVE",
"144 -17 CURVE SMOOTH",
"144 8 OFFCURVE",
"164 31 OFFCURVE",
"188 39 CURVE",
"271 32 LINE SMOOTH",
"300 30 OFFCURVE",
"322 28 OFFCURVE",
"335 26 CURVE",
"361 21 OFFCURVE",
"372 12 OFFCURVE",
"372 -11 CURVE SMOOTH",
"372 -52 OFFCURVE",
"334 -73 OFFCURVE",
"258 -73 CURVE SMOOTH"
);
}
);
};
layerId = "849A9C4C-BF7C-40C5-8614-1FD725A2A379";
paths = (
{
closed = 1;
nodes = (
"148 257 LINE",
"95 233 OFFCURVE",
"39 186 OFFCURVE",
"39 127 CURVE SMOOTH",
"39 82 OFFCURVE",
"69 63 OFFCURVE",
"115 50 CURVE",
"67 32 OFFCURVE",
"16 -1 OFFCURVE",
"16 -57 CURVE SMOOTH",
"16 -129 OFFCURVE",
"101 -175 OFFCURVE",
"252 -175 CURVE SMOOTH",
"385 -175 OFFCURVE",
"509 -140 OFFCURVE",
"509 -6 CURVE SMOOTH",
"509 66 OFFCURVE",
"472 117 OFFCURVE",
"370 129 CURVE SMOOTH",
"210 147 LINE SMOOTH",
"191 150 OFFCURVE",
"175 164 OFFCURVE",
"175 187 CURVE SMOOTH",
"175 205 OFFCURVE",
"201 229 OFFCURVE",
"219 231 CURVE"
);
},
{
closed = 1;
nodes = (
"180 -73 OFFCURVE",
"144 -52 OFFCURVE",
"144 -17 CURVE SMOOTH",
"144 10 OFFCURVE",
"166 32 OFFCURVE",
"188 39 CURVE",
"271 32 LINE SMOOTH",
"347 26 OFFCURVE",
"372 23 OFFCURVE",
"372 -11 CURVE SMOOTH",
"372 -49 OFFCURVE",
"340 -73 OFFCURVE",
"258 -73 CURVE SMOOTH"
);
},
{
closed = 1;
nodes = (
"47 285 OFFCURVE",
"133 227 OFFCURVE",
"263 227 CURVE SMOOTH",
"423 227 OFFCURVE",
"467 315 OFFCURVE",
"467 396 CURVE SMOOTH",
"467 507 OFFCURVE",
"363 570 OFFCURVE",
"258 570 CURVE SMOOTH",
"156 570 OFFCURVE",
"47 513 OFFCURVE",
"47 395 CURVE SMOOTH"
);
},
{
closed = 1;
nodes = (
"202 307 OFFCURVE",
"190 365 OFFCURVE",
"190 398 CURVE SMOOTH",
"190 446 OFFCURVE",
"215 485 OFFCURVE",
"257 485 CURVE SMOOTH",
"291 485 OFFCURVE",
"321 460 OFFCURVE",
"321 397 CURVE SMOOTH",
"321 340 OFFCURVE",
"297 307 OFFCURVE",
"256 307 CURVE SMOOTH"
);
},
{
closed = 1;
nodes = (
"467 493 OFFCURVE",
"496 498 OFFCURVE",
"535 498 CURVE",
"535 591 LINE",
"474 591 OFFCURVE",
"438 564 OFFCURVE",
"398 528 CURVE",
"435 479 LINE"
);
}
);
width = 532;
}
);
},
{
color = 4;
glyphname = j.ori;
lastChange = "2017-06-15 22:45:08 +0000";
layers = (
{
background = {
paths = (
{
closed = 1;
nodes = (
"207 -141 OFFCURVE",
"207 -80 OFFCURVE",
"207 26 CURVE SMOOTH",
"207 563 LINE",
"66 551 LINE",
"66 26 LINE SMOOTH",
"66 -28 OFFCURVE",
"61 -47 OFFCURVE",
"-12 -47 CURVE",
"-12 -131 LINE",
"25 -138 OFFCURVE",
"56 -141 OFFCURVE",
"82 -141 CURVE SMOOTH"
);
},
{
closed = 1;
nodes = (
"207 641 LINE",
"207 790 LINE",
"66 780 LINE",
"66 635 LINE"
);
}
);
};
guideLines = (
{
angle = 270;
position = "{206, 638}";
},
{
angle = 270;
position = "{67, 625}";
}
);
layerId = "849A9C4C-BF7C-40C5-8614-1FD725A2A379";
paths = (
{
closed = 1;
nodes = (
"208 647 LINE",
"208 776 LINE",
"65 776 LINE",
"65 647 LINE"
);
},
{
closed = 1;
nodes = (
"207 -141 OFFCURVE",
"207 -80 OFFCURVE",
"207 26 CURVE SMOOTH",
"207 563 LINE",
"66 551 LINE",
"66 26 LINE SMOOTH",
"66 -28 OFFCURVE",
"61 -47 OFFCURVE",
"-12 -47 CURVE",
"-12 -131 LINE",
"25 -138 OFFCURVE",
"56 -141 OFFCURVE",
"82 -141 CURVE SMOOTH"
);
}
);
width = 265;
}
);
},
{
color = 4;
glyphname = k.ori;
lastChange = "2017-06-26 03:41:29 +0000";
layers = (
{
anchors = (
{
name = bottom;
position = "{250, 0}";
},
{
name = top;
position = "{250, 563}";
}
);
layerId = "849A9C4C-BF7C-40C5-8614-1FD725A2A379";
paths = (
{
closed = 1;
nodes = (
"485 29 LINE",
"338 360 LINE",
"496 563 LINE",
"344 563 LINE",
"201 378 LINE",
"201 750 LINE",
"61 732 LINE",
"61 0 LINE",
"201 0 LINE",
"201 206 LINE",
"247 267 LINE",
"361 -13 LINE"
);
}
);
width = 500;
}
);
},
{
color = 4;
glyphname = m.ori;
lastChange = "2017-06-27 01:30:14 +0000";
layers = (
{
anchors = (
{
name = bottom;
position = "{369, 0}";
},
{
name = top;
position = "{369, 563}";
}
);
background = {
paths = (
{
closed = 1;
nodes = (
"198 6 LINE",
"198 410 LINE",
"215 429 OFFCURVE",
"245 450 OFFCURVE",
"274 450 CURVE SMOOTH",
"287 450 OFFCURVE",
"302 434 OFFCURVE",
"302 393 CURVE SMOOTH",
"302 -6 LINE",
"439 6 LINE",
"439 410 LINE",
"454 429 OFFCURVE",
"479 450 OFFCURVE",
"510 450 CURVE SMOOTH",
"527 450 OFFCURVE",
"543 429 OFFCURVE",
"543 392 CURVE SMOOTH",
"543 -6 LINE",
"681 6 LINE",
"681 399 LINE SMOOTH",
"681 507 OFFCURVE",
"655 570 OFFCURVE",
"581 570 CURVE SMOOTH",
"521 570 OFFCURVE",
"474 537 OFFCURVE",
"433 482 CURVE",
"419 545 OFFCURVE",
"389 570 OFFCURVE",
"350 570 CURVE SMOOTH",
"295 570 OFFCURVE",
"238 538 OFFCURVE",
"198 491 CURVE",
"198 563 LINE",
"61 551 LINE",
"61 -6 LINE"
);
}
);
};
guideLines = (
{
position = "{198, 481}";
},
{
position = "{280, 402}";
},
{
angle = 180;
position = "{387, 450}";
}
);
layerId = "849A9C4C-BF7C-40C5-8614-1FD725A2A379";
paths = (
{
closed = 1;
nodes = (
"198 6 LINE",
"198 410 LINE",
"215 429 OFFCURVE",
"245 450 OFFCURVE",
"274 450 CURVE SMOOTH",
"287 450 OFFCURVE",
"302 434 OFFCURVE",
"302 393 CURVE SMOOTH",
"302 -6 LINE",
"439 6 LINE",
"439 410 LINE",
"454 429 OFFCURVE",
"479 450 OFFCURVE",
"510 450 CURVE SMOOTH",
"527 450 OFFCURVE",
"543 429 OFFCURVE",
"543 392 CURVE SMOOTH",
"543 -6 LINE",
"681 6 LINE",
"681 399 LINE SMOOTH",
"681 507 OFFCURVE",
"655 570 OFFCURVE",
"581 570 CURVE SMOOTH",
"521 570 OFFCURVE",
"474 537 OFFCURVE",
"433 482 CURVE",
"419 545 OFFCURVE",
"389 570 OFFCURVE",
"350 570 CURVE SMOOTH",
"295 570 OFFCURVE",
"238 538 OFFCURVE",
"198 491 CURVE",
"198 563 LINE",
"61 551 LINE",
"61 -6 LINE"
);
}
);
width = 737;
}
);
},
{
color = 4;
glyphname = o.ori;
lastChange = "2017-06-26 04:03:08 +0000";
layers = (
{
anchors = (
{
name = bottom;
position = "{240, 0}";
},
{
name = center;
position = "{245, 281}";
},
{
name = ogonek;
position = "{422, 5}";
},
{
name = top;
position = "{245, 563}";
},
{
name = topright;
position = "{480, 563}";
}
);
background = {
paths = (
{
closed = 1;
nodes = (
"108 570 OFFCURVE",
"34 449 OFFCURVE",
"34 277 CURVE SMOOTH",
"34 105 OFFCURVE",
"108 -13 OFFCURVE",
"246 -13 CURVE SMOOTH",
"386 -13 OFFCURVE",
"456 107 OFFCURVE",
"456 277 CURVE SMOOTH",
"456 448 OFFCURVE",
"385 570 OFFCURVE",
"246 570 CURVE SMOOTH"
);
},
{
closed = 1;
nodes = (
"314 466 OFFCURVE",
"315 350 OFFCURVE",
"315 265 CURVE SMOOTH",
"315 205 OFFCURVE",
"315 86 OFFCURVE",
"246 86 CURVE SMOOTH",
"177 86 OFFCURVE",
"175 206 OFFCURVE",
"175 276 CURVE SMOOTH",
"175 346 OFFCURVE",
"177 466 OFFCURVE",
"246 466 CURVE SMOOTH"
);
}
);
};
layerId = "849A9C4C-BF7C-40C5-8614-1FD725A2A379";
paths = (
{
closed = 1;
nodes = (
"379 -13 OFFCURVE",
"456 104 OFFCURVE",
"456 280 CURVE SMOOTH",
"456 456 OFFCURVE",
"379 570 OFFCURVE",
"244 570 CURVE SMOOTH",
"108 570 OFFCURVE",
"34 456 OFFCURVE",
"34 280 CURVE SMOOTH",
"34 103 OFFCURVE",
"109 -13 OFFCURVE",
"244 -13 CURVE SMOOTH"
);
},
{
closed = 1;
nodes = (
"214 91 OFFCURVE",
"195 109 OFFCURVE",
"187 146 CURVE SMOOTH",
"179 182 OFFCURVE",
"175 231 OFFCURVE",
"175 292 CURVE SMOOTH",
"175 392 OFFCURVE",
"184 471 OFFCURVE",
"244 471 CURVE SMOOTH",
"304 471 OFFCURVE",
"315 388 OFFCURVE",
"315 281 CURVE SMOOTH",
"315 174 OFFCURVE",
"304 91 OFFCURVE",
"244 91 CURVE SMOOTH"
);
}
);
width = 490;
}
);
},
{
color = 4;
glyphname = p.ori;
lastChange = "2017-06-15 22:59:58 +0000";
layers = (
{
anchors = (
{
name = bottom;
position = "{252, -140}";
},
{
name = top;
position = "{252, 563}";
}
);
background = {
paths = (
{
closed = 1;
nodes = (
"201 -147 LINE",
"201 48 LINE",
"222 16 OFFCURVE",
"251 -13 OFFCURVE",
"310 -13 CURVE SMOOTH",
"495 -13 OFFCURVE",
"469 270 OFFCURVE",
"469 311 CURVE SMOOTH",
"467 410 OFFCURVE",
"464 570 OFFCURVE",
"327 570 CURVE SMOOTH",
"273 570 OFFCURVE",
"239 545 OFFCURVE",
"201 508 CURVE",
"201 563 LINE",
"61 551 LINE",
"61 -175 LINE"
);
},
{
closed = 1;
nodes = (
"227 94 OFFCURVE",
"210 119 OFFCURVE",
"201 139 CURVE",
"201 430 LINE",
"214 450 OFFCURVE",
"233 469 OFFCURVE",
"261 469 CURVE SMOOTH",
"305 469 OFFCURVE",
"328 421 OFFCURVE",
"328 280 CURVE SMOOTH",
"328 126 OFFCURVE",
"301 94 OFFCURVE",
"262 94 CURVE SMOOTH"
);
},
{
closed = 1;
nodes = (
"245 90 OFFCURVE",
"219 109 OFFCURVE",
"201 137 CURVE",
"201 69 LINE",
"221 23 OFFCURVE",
"261 -13 OFFCURVE",
"328 -13 CURVE SMOOTH",
"447 -13 OFFCURVE",
"484 114 OFFCURVE",
"484 276 CURVE SMOOTH",
"484 440 OFFCURVE",
"451 570 OFFCURVE",
"330 570 CURVE SMOOTH",
"268 570 OFFCURVE",
"226 540 OFFCURVE",
"201 487 CURVE",
"201 353 LINE",
"210 416 OFFCURVE",
"239 462 OFFCURVE",
"280 462 CURVE SMOOTH",
"334 462 OFFCURVE",
"345 363 OFFCURVE",
"345 276 CURVE SMOOTH",
"345 192 OFFCURVE",
"338 90 OFFCURVE",
"272 90 CURVE SMOOTH"
);
}
);
};
guideLines = (
{
angle = 7;
position = "{61, -175}";
},
{
position = "{-7, -175}";
}
);
layerId = "849A9C4C-BF7C-40C5-8614-1FD725A2A379";
paths = (
{
closed = 1;
nodes = (
"201 -147 LINE",
"201 48 LINE",
"222 16 OFFCURVE",
"251 -13 OFFCURVE",
"310 -13 CURVE SMOOTH",
"495 -13 OFFCURVE",
"469 270 OFFCURVE",
"469 311 CURVE SMOOTH",
"467 410 OFFCURVE",
"464 570 OFFCURVE",
"327 570 CURVE SMOOTH",
"273 570 OFFCURVE",
"239 545 OFFCURVE",
"201 508 CURVE",
"201 563 LINE",
"61 551 LINE",
"61 -175 LINE"
);
},
{
closed = 1;
nodes = (
"227 94 OFFCURVE",
"210 119 OFFCURVE",
"201 139 CURVE",
"201 430 LINE",
"214 450 OFFCURVE",
"233 469 OFFCURVE",
"261 469 CURVE SMOOTH",
"305 469 OFFCURVE",
"328 421 OFFCURVE",
"328 280 CURVE SMOOTH",
"328 126 OFFCURVE",
"301 94 OFFCURVE",
"262 94 CURVE SMOOTH"
);
}
);
width = 522;
}
);
},
{
color = 4;
glyphname = r.ori;
lastChange = "2017-06-26 00:31:08 +0000";
layers = (
{
anchors = (
{
name = bottom;
position = "{202, 0}";
},
{
name = top;
position = "{202, 563}";
}
);
background = {
paths = (
{
closed = 1;
nodes = (
"201 6 LINE",
"201 375 LINE",
"256 423 OFFCURVE",
"365 431 OFFCURVE",
"389 431 CURVE",
"389 568 LINE",
"289 568 OFFCURVE",
"235 521 OFFCURVE",
"201 472 CURVE",
"201 563 LINE",
"61 551 LINE",
"61 -6 LINE"
);
}
);
};
layerId = "849A9C4C-BF7C-40C5-8614-1FD725A2A379";
paths = (
{
closed = 1;
nodes = (
"201 6 LINE",
"201 375 LINE",
"256 423 OFFCURVE",
"365 431 OFFCURVE",
"389 431 CURVE",
"389 568 LINE",
"289 568 OFFCURVE",
"235 521 OFFCURVE",
"201 472 CURVE",
"201 563 LINE",
"61 551 LINE",
"61 -6 LINE"
);
}
);
width = 404;
}
);
},
{
color = 4;
glyphname = s.ori;
lastChange = "2017-06-26 00:24:07 +0000";
layers = (
{
anchors = (
{
name = bottom;
position = "{226, 0}";
},
{
name = top;
position = "{226, 563}";
}
);
background = {
components = (
{
name = a;
transform = "{1, 0, 0, 1, -17, 0}";
}
);
paths = (
{
closed = 1;
nodes = (
"325 -13 OFFCURVE",
"425 46 OFFCURVE",
"425 167 CURVE SMOOTH",
"425 259 OFFCURVE",
"375 303 OFFCURVE",
"312 332 CURVE",
"212 373 LINE SMOOTH",
"194 381 OFFCURVE",
"163 396 OFFCURVE",
"163 421 CURVE SMOOTH",
"163 453 OFFCURVE",
"194 466 OFFCURVE",
"224 466 CURVE SMOOTH",
"251 466 OFFCURVE",
"269 449 OFFCURVE",
"280 432 CURVE SMOOTH",
"286 422 OFFCURVE",
"291 411 OFFCURVE",
"294 398 CURVE",
"410 434 LINE",
"385 521 OFFCURVE",
"304 570 OFFCURVE",
"223 570 CURVE SMOOTH",
"125 570 OFFCURVE",
"33 509 OFFCURVE",
"33 397 CURVE SMOOTH",
"33 319 OFFCURVE",
"67 265 OFFCURVE",
"130 239 CURVE SMOOTH",
"248 191 LINE SMOOTH",
"271 182 OFFCURVE",
"291 167 OFFCURVE",
"291 143 CURVE SMOOTH",
"291 108 OFFCURVE",
"246 98 OFFCURVE",
"220 98 CURVE SMOOTH",
"185 98 OFFCURVE",
"165 114 OFFCURVE",
"153 131 CURVE",
"146 141 OFFCURVE",
"141 152 OFFCURVE",
"138 165 CURVE",
"29 129 LINE",
"49 42 OFFCURVE",
"115 -13 OFFCURVE",
"229 -13 CURVE SMOOTH"
);
}
);
};
guideLines = (
{
angle = 12;
position = "{294, 398}";
},
{
angle = 12;
position = "{24, 130}";
}
);
layerId = "849A9C4C-BF7C-40C5-8614-1FD725A2A379";
paths = (
{
closed = 1;
nodes = (
"325 -13 OFFCURVE",
"425 46 OFFCURVE",
"425 167 CURVE SMOOTH",
"425 259 OFFCURVE",
"375 303 OFFCURVE",
"312 332 CURVE",
"212 373 LINE SMOOTH",
"194 381 OFFCURVE",
"163 396 OFFCURVE",
"163 421 CURVE SMOOTH",
"163 453 OFFCURVE",
"194 466 OFFCURVE",
"224 466 CURVE SMOOTH",
"251 466 OFFCURVE",
"269 449 OFFCURVE",
"280 432 CURVE SMOOTH",
"286 422 OFFCURVE",
"291 411 OFFCURVE",
"294 398 CURVE",
"410 434 LINE",
"385 521 OFFCURVE",
"304 570 OFFCURVE",
"223 570 CURVE SMOOTH",
"125 570 OFFCURVE",
"33 509 OFFCURVE",
"33 397 CURVE SMOOTH",
"33 319 OFFCURVE",
"67 265 OFFCURVE",
"130 239 CURVE SMOOTH",
"248 191 LINE SMOOTH",
"271 182 OFFCURVE",
"291 167 OFFCURVE",
"291 143 CURVE SMOOTH",
"291 108 OFFCURVE",
"246 98 OFFCURVE",
"220 98 CURVE SMOOTH",
"185 98 OFFCURVE",
"165 114 OFFCURVE",
"153 131 CURVE",
"146 141 OFFCURVE",
"141 152 OFFCURVE",
"138 165 CURVE",
"29 129 LINE",
"49 42 OFFCURVE",
"115 -13 OFFCURVE",
"229 -13 CURVE SMOOTH"
);
}
);
width = 451;
}
);
},
{
color = 4;
glyphname = germandbls.ori;
lastChange = "2017-06-27 12:56:08 +0000";
layers = (
{
layerId = "849A9C4C-BF7C-40C5-8614-1FD725A2A379";
paths = (
{
closed = 1;
nodes = (
"202 0 LINE",
"202 542 LINE SMOOTH",
"202 629 OFFCURVE",
"241 657 OFFCURVE",
"285 657 CURVE SMOOTH",
"342 657 OFFCURVE",
"367 610 OFFCURVE",
"367 568 CURVE SMOOTH",
"367 523 OFFCURVE",
"339 468 OFFCURVE",
"269 444 CURVE",
"269 363 LINE",
"357 363 OFFCURVE",
"408 288 OFFCURVE",
"408 226 CURVE SMOOTH",
"408 168 OFFCURVE",
"365 103 OFFCURVE",
"264 103 CURVE",
"264 1 LINE",
"407 6 OFFCURVE",
"550 54 OFFCURVE",
"550 228 CURVE SMOOTH",
"550 347 OFFCURVE",
"483 396 OFFCURVE",
"397 425 CURVE",
"467 472 OFFCURVE",
"488 525 OFFCURVE",
"488 581 CURVE SMOOTH",
"488 690 OFFCURVE",
"408 766 OFFCURVE",
"279 766 CURVE SMOOTH",
"204 766 OFFCURVE",
"61 740 OFFCURVE",
"61 516 CURVE SMOOTH",
"61 -12 LINE"
);
}
);
width = 571;
}
);
},
{
color = 4;
glyphname = t.ori;
lastChange = "2017-06-25 23:04:19 +0000";
layers = (
{
anchors = (
{
name = bottom;
position = "{239, 0}";
},
{
name = center;
position = "{180, 281}";
},
{
name = top;
position = "{180, 563}";
},
{
name = topright;
position = "{351, 563}";
}
);
background = {
paths = (
{
closed = 1;
nodes = (
"292 -11 OFFCURVE",
"328 -3 OFFCURVE",
"345 0 CURVE",
"345 97 LINE",
"326 94 OFFCURVE",
"306 91 OFFCURVE",
"291 91 CURVE SMOOTH",
"254 91 OFFCURVE",
"232 105 OFFCURVE",
"232 147 CURVE SMOOTH",
"232 457 LINE",
"341 457 LINE",
"347 563 LINE",
"231 563 LINE",
"231 702 LINE",
"109 685 LINE",
"95 563 LINE",
"19 563 LINE",
"13 457 LINE",
"91 457 LINE",
"91 146 LINE SMOOTH",
"91 16 OFFCURVE",
"179 -11 OFFCURVE",
"253 -11 CURVE SMOOTH"
);
}
);
};
guideLines = (
{
angle = 7;
position = "{124, 685}";
},
{
angle = 83;
position = "{336, 0}";
},
{
angle = 83;
position = "{347, 563}";
}
);
layerId = "849A9C4C-BF7C-40C5-8614-1FD725A2A379";
paths = (
{
closed = 1;
nodes = (
"292 -11 OFFCURVE",
"328 -3 OFFCURVE",
"345 0 CURVE",
"345 97 LINE",
"326 94 OFFCURVE",
"306 91 OFFCURVE",
"291 91 CURVE SMOOTH",
"254 91 OFFCURVE",
"232 105 OFFCURVE",
"232 147 CURVE SMOOTH",
"232 457 LINE",
"341 457 LINE",
"347 563 LINE",
"231 563 LINE",
"231 702 LINE",
"109 685 LINE",
"95 563 LINE",
"19 563 LINE",
"13 457 LINE",
"91 457 LINE",
"91 146 LINE SMOOTH",
"91 16 OFFCURVE",
"179 -11 OFFCURVE",
"253 -11 CURVE SMOOTH"
);
}
);
width = 360;
}
);
},
{
color = 4;
glyphname = v.ori;
lastChange = "2017-06-27 03:45:27 +0000";
layers = (
{
anchors = (
{
name = bottom;
position = "{228, 0}";
},
{
name = top;
position = "{228, 563}";
}
);
guideLines = (
{
angle = 7;
position = "{170, 573}";
}
);
layerId = "849A9C4C-BF7C-40C5-8614-1FD725A2A379";
paths = (
{
closed = 1;
nodes = (
"451 557 LINE",
"324 545 LINE",
"243 203 LINE",
"172 563 LINE",
"4 551 LINE",
"161 0 LINE",
"290 0 LINE"
);
}
);
width = 455;
}
);
},
{
color = 4;
glyphname = w.ori;
lastChange = "2017-06-27 03:45:55 +0000";
layers = (
{
anchors = (
{
name = bottom;
position = "{321, 0}";
},
{
name = top;
position = "{321, 563}";
}
);
guideLines = (
{
angle = 7;
position = "{153, 570}";
}
);
layerId = "849A9C4C-BF7C-40C5-8614-1FD725A2A379";
paths = (
{
closed = 1;
nodes = (
"327 365 LINE",
"391 0 LINE",
"504 0 LINE",
"633 557 LINE",
"519 551 LINE",
"458 248 LINE",
"397 563 LINE",
"280 551 LINE",
"209 244 LINE",
"161 563 LINE",
"18 552 LINE",
"133 0 LINE",
"248 0 LINE"
);
}
);
width = 642;
}
);
},
{
color = 4;
glyphname = y.ori;
lastChange = "2017-06-27 03:40:46 +0000";
layers = (
{
anchors = (
{
name = bottom;
position = "{365, 49}";
},
{
name = top;
position = "{205, 563}";
}
);
guideLines = (
{
angle = 7;
position = "{144, 574}";
}
);
layerId = "849A9C4C-BF7C-40C5-8614-1FD725A2A379";
paths = (
{
closed = 1;
nodes = (
"169 -178 OFFCURVE",
"250 -134 OFFCURVE",
"290 10 CURVE SMOOTH",
"434 561 LINE",
"307 560 LINE",
"232 210 LINE",
"153 563 LINE",
"1 556 LINE",
"162 53 LINE",
"162 25 LINE SMOOTH",
"162 -30 OFFCURVE",
"133 -57 OFFCURVE",
"74 -57 CURVE SMOOTH",
"59 -57 OFFCURVE",
"40 -56 OFFCURVE",
"15 -55 CURVE",
"15 -172 LINE",
"38 -176 OFFCURVE",
"58 -178 OFFCURVE",
"74 -178 CURVE SMOOTH"
);
}
);
width = 440;
}
);
},
{
color = 4;
glyphname = z.ori;
lastChange = "2017-06-27 03:48:28 +0000";
layers = (
{
anchors = (
{
name = bottom;
position = "{212, 0}";
},
{
name = top;
position = "{236, 563}";
}
);
guideLines = (
{
angle = -83;
position = "{44, 88}";
},
{
angle = -83;
position = "{389, 479}";
},
{
angle = 263;
position = "{404, 111}";
},
{
angle = 263;
position = "{39, 453}";
}
);
layerId = "849A9C4C-BF7C-40C5-8614-1FD725A2A379";
paths = (
{
closed = 1;
nodes = (
"404 111 LINE",
"203 111 LINE",
"389 479 LINE",
"389 563 LINE",
"64 563 LINE",
"52 453 LINE",
"233 453 LINE",
"44 88 LINE",
"44 0 LINE",
"392 0 LINE"
);
}
);
width = 425;
}
);
},
{
color = 4;
glyphname = f_f;
lastChange = "2016-07-29 15:34:05 +0000";
layers = (
{
layerId = "849A9C4C-BF7C-40C5-8614-1FD725A2A379";
paths = (
{
closed = 1;
nodes = (
"595 6 LINE",
"595 457 LINE",
"688 457 LINE",
"694 563 LINE",
"595 563 LINE",
"595 573 LINE SMOOTH",
"595 614 OFFCURVE",
"600 656 OFFCURVE",
"658 656 CURVE SMOOTH",
"689 656 LINE",
"689 740 LINE",
"683 743 OFFCURVE",
"676 745 OFFCURVE",
"667 748 CURVE SMOOTH",
"652 751 OFFCURVE",
"628 755 OFFCURVE",
"594 755 CURVE SMOOTH",
"458 755 OFFCURVE",
"454 664 OFFCURVE",
"454 573 CURVE SMOOTH",
"454 563 LINE",
"391 563 LINE",
"385 457 LINE",
"454 457 LINE",
"454 -6 LINE"
);
},
{
closed = 1;
nodes = (
"227 6 LINE",
"227 457 LINE",
"320 457 LINE",
"326 563 LINE",
"227 563 LINE",
"227 573 LINE SMOOTH",
"227 614 OFFCURVE",
"231 656 OFFCURVE",
"290 656 CURVE SMOOTH",
"321 656 LINE",
"321 740 LINE",
"315 743 OFFCURVE",
"308 745 OFFCURVE",
"299 748 CURVE SMOOTH",
"284 751 OFFCURVE",
"260 755 OFFCURVE",
"226 755 CURVE SMOOTH",
"90 755 OFFCURVE",
"86 664 OFFCURVE",
"86 573 CURVE SMOOTH",
"86 563 LINE",
"22 563 LINE",
"17 457 LINE",
"86 457 LINE",
"86 -6 LINE"
);
}
);
width = 706;
}
);
},
{
color = 4;
glyphname = f_f_i;
lastChange = "2016-07-29 15:34:05 +0000";
layers = (
{
anchors = (
{
name = caret_1;
position = "{341, 0}";
},
{
name = caret_2;
position = "{682, 0}";
}
);
layerId = "849A9C4C-BF7C-40C5-8614-1FD725A2A379";
paths = (
{
closed = 1;
nodes = (
"595 6 LINE",
"595 457 LINE",
"688 457 LINE",
"694 563 LINE",
"595 563 LINE",
"595 573 LINE SMOOTH",
"595 614 OFFCURVE",
"600 656 OFFCURVE",
"658 656 CURVE SMOOTH",
"689 656 LINE",
"689 740 LINE",
"683 743 OFFCURVE",
"676 745 OFFCURVE",
"667 748 CURVE SMOOTH",
"652 751 OFFCURVE",
"628 755 OFFCURVE",
"594 755 CURVE SMOOTH",
"458 755 OFFCURVE",
"454 664 OFFCURVE",
"454 573 CURVE SMOOTH",
"454 563 LINE",
"391 563 LINE",
"385 457 LINE",
"454 457 LINE",
"454 -6 LINE"
);
},
{
closed = 1;
nodes = (
"227 6 LINE",
"227 457 LINE",
"320 457 LINE",
"326 563 LINE",
"227 563 LINE",
"227 573 LINE SMOOTH",
"227 614 OFFCURVE",
"231 656 OFFCURVE",
"290 656 CURVE SMOOTH",
"321 656 LINE",
"321 740 LINE",
"315 743 OFFCURVE",
"308 745 OFFCURVE",
"299 748 CURVE SMOOTH",
"284 751 OFFCURVE",
"260 755 OFFCURVE",
"226 755 CURVE SMOOTH",
"90 755 OFFCURVE",
"86 664 OFFCURVE",
"86 573 CURVE SMOOTH",
"86 563 LINE",
"22 563 LINE",
"17 457 LINE",
"86 457 LINE",
"86 -6 LINE"
);
},
{
closed = 1;
nodes = (
"962 6 LINE",
"962 563 LINE",
"822 551 LINE",
"822 -6 LINE"
);
},
{
closed = 1;
nodes = (
"962 641 LINE",
"962 781 LINE",
"822 780 LINE",
"822 635 LINE"
);
}
);
width = 1023;
}
);
},
{
color = 4;
glyphname = f_f_l;
lastChange = "2016-07-29 15:34:05 +0000";
layers = (
{
layerId = "849A9C4C-BF7C-40C5-8614-1FD725A2A379";
paths = (
{
closed = 1;
nodes = (
"595 6 LINE",
"595 457 LINE",
"688 457 LINE",
"694 563 LINE",
"595 563 LINE",
"595 573 LINE SMOOTH",
"595 614 OFFCURVE",
"600 656 OFFCURVE",
"658 656 CURVE SMOOTH",
"689 656 LINE",
"689 740 LINE",
"683 743 OFFCURVE",
"676 745 OFFCURVE",
"667 748 CURVE SMOOTH",
"652 751 OFFCURVE",
"628 755 OFFCURVE",
"594 755 CURVE SMOOTH",
"458 755 OFFCURVE",
"454 664 OFFCURVE",
"454 573 CURVE SMOOTH",
"454 563 LINE",
"391 563 LINE",
"385 457 LINE",
"454 457 LINE",
"454 -6 LINE"
);
},
{
closed = 1;
nodes = (
"227 6 LINE",
"227 457 LINE",
"320 457 LINE",
"326 563 LINE",
"227 563 LINE",
"227 573 LINE SMOOTH",
"227 614 OFFCURVE",
"231 656 OFFCURVE",
"290 656 CURVE SMOOTH",
"321 656 LINE",
"321 740 LINE",
"315 743 OFFCURVE",
"308 745 OFFCURVE",
"299 748 CURVE SMOOTH",
"284 751 OFFCURVE",
"260 755 OFFCURVE",
"226 755 CURVE SMOOTH",
"90 755 OFFCURVE",
"86 664 OFFCURVE",
"86 573 CURVE SMOOTH",
"86 563 LINE",
"22 563 LINE",
"17 457 LINE",
"86 457 LINE",
"86 -6 LINE"
);
},
{
closed = 1;
nodes = (
"962 6 LINE",
"962 750 LINE",
"821 732 LINE",
"821 -6 LINE"
);
}
);
width = 1022;
}
);
},
{
color = 4;
glyphname = fi;
lastChange = "2017-07-04 20:47:05 +0000";
layers = (
{
anchors = (
{
name = bottom;
position = "{468, 0}";
},
{
name = caret_1;
position = "{288, 0}";
},
{
name = ogonek;
position = "{622, 5}";
},
{
name = top;
position = "{472, 563}";
}
);
background = {
paths = (
{
closed = 1;
nodes = (
"201 6 LINE",
"201 447 LINE",
"401 447 LINE",
"401 -6 LINE",
"542 6 LINE",
"542 563 LINE",
"201 563 LINE",
"201 573 LINE SMOOTH",
"201 614 OFFCURVE",
"206 656 OFFCURVE",
"265 656 CURVE SMOOTH",
"295 656 LINE",
"295 740 LINE",
"289 743 OFFCURVE",
"282 745 OFFCURVE",
"273 748 CURVE SMOOTH",
"258 751 OFFCURVE",
"235 755 OFFCURVE",
"200 755 CURVE SMOOTH",
"64 755 OFFCURVE",
"60 664 OFFCURVE",
"60 573 CURVE SMOOTH",
"60 563 LINE",
"3 563 LINE",
"-9 448 LINE",
"60 448 LINE",
"60 -6 LINE"
);
},
{
closed = 1;
nodes = (
"542 635 LINE",
"542 781 LINE",
"401 781 LINE",
"401 629 LINE"
);
}
);
};
layerId = "849A9C4C-BF7C-40C5-8614-1FD725A2A379";
paths = (
{
closed = 1;
nodes = (
"544 640 LINE",
"544 769 LINE",
"400 769 LINE",
"400 640 LINE"
);
},
{
closed = 1;
nodes = (
"534 458 LINE",
"534 563 LINE",
"35 563 LINE",
"22 458 LINE"
);
},
{
closed = 1;
nodes = (
"229 0 LINE",
"229 563 LINE",
"229 573 LINE SMOOTH",
"229 632 OFFCURVE",
"242 660 OFFCURVE",
"283 660 CURVE SMOOTH",
"301 660 OFFCURVE",
"316 657 OFFCURVE",
"329 650 CURVE",
"342 748 LINE",
"309 763 OFFCURVE",
"274 771 OFFCURVE",
"230 771 CURVE SMOOTH",
"136 771 OFFCURVE",
"89 699 OFFCURVE",
"89 596 CURVE SMOOTH",
"89 0 LINE"
);
},
{
closed = 1;
nodes = (
"542 0 LINE",
"542 563 LINE",
"402 563 LINE",
"402 0 LINE"
);
}
);
width = 606;
}
);
unicode = FB01;
},
{
color = 4;
glyphname = fl;
lastChange = "2017-07-04 20:41:47 +0000";
layers = (
{
anchors = (
{
name = bottom;
position = "{172, 0}";
},
{
name = center;
position = "{472, 281}";
},
{
name = top;
position = "{172, 563}";
},
{
name = topright;
position = "{594, 563}";
}
);
background = {
components = (
{
name = f;
}
);
paths = (
{
closed = 1;
nodes = (
"230 0 LINE",
"230 447 LINE",
"312 447 LINE",
"323 563 LINE",
"230 563 LINE",
"230 573 LINE SMOOTH",
"230 614 OFFCURVE",
"232 656 OFFCURVE",
"274 656 CURVE SMOOTH",
"430 656 LINE",
"430 0 LINE",
"571 0 LINE",
"571 750 LINE",
"278 750 LINE SMOOTH",
"93 750 OFFCURVE",
"89 664 OFFCURVE",
"89 573 CURVE SMOOTH",
"89 563 LINE",
"32 563 LINE",
"20 448 LINE",
"89 448 LINE",
"89 0 LINE"
);
}
);
};
layerId = "849A9C4C-BF7C-40C5-8614-1FD725A2A379";
paths = (
{
closed = 1;
nodes = (
"537 0 LINE",
"537 760 LINE",
"397 743 LINE",
"397 0 LINE"
);
},
{
closed = 1;
nodes = (
"328 458 LINE",
"328 563 LINE",
"31 563 LINE",
"20 458 LINE"
);
},
{
closed = 1;
nodes = (
"229 0 LINE",
"229 563 LINE",
"229 573 LINE SMOOTH",
"229 632 OFFCURVE",
"242 660 OFFCURVE",
"283 660 CURVE SMOOTH",
"301 660 OFFCURVE",
"316 657 OFFCURVE",
"328 650 CURVE",
"328 753 LINE",
"309 763 OFFCURVE",
"274 771 OFFCURVE",
"230 771 CURVE SMOOTH",
"136 771 OFFCURVE",
"89 699 OFFCURVE",
"89 596 CURVE SMOOTH",
"89 0 LINE"
);
}
);
width = 599;
}
);
unicode = FB02;
},
{
color = 4;
glyphname = ordfeminine;
lastChange = "2017-07-04 21:07:37 +0000";
layers = (
{
anchors = (
{
name = bottom;
position = "{187.464, 332}";
},
{
name = ogonek;
position = "{386.454, 328.996}";
},
{
name = top;
position = "{194.222, 754.762}";
}
);
background = {
paths = (
{
closed = 1;
nodes = (
"163 331 OFFCURVE",
"203 357 OFFCURVE",
"218 387 CURVE",
"229 336 LINE",
"330 345 LINE",
"326 358 OFFCURVE",
"319 393 OFFCURVE",
"319 419 CURVE SMOOTH",
"319 633 LINE SMOOTH",
"319 704 OFFCURVE",
"280 760 OFFCURVE",
"186 760 CURVE SMOOTH",
"126 760 OFFCURVE",
"58 737 OFFCURVE",
"48 655 CURVE",
"148 637 LINE",
"151 661 OFFCURVE",
"162 684 OFFCURVE",
"185 684 CURVE SMOOTH",
"215 684 OFFCURVE",
"216 645 OFFCURVE",
"216 607 CURVE",
"141 601 OFFCURVE",
"33 576 OFFCURVE",
"33 457 CURVE SMOOTH",
"33 385 OFFCURVE",
"72 331 OFFCURVE",
"125 331 CURVE SMOOTH"
);
},
{
closed = 1;
nodes = (
"148 405 OFFCURVE",
"135 426 OFFCURVE",
"135 462 CURVE SMOOTH",
"135 522 OFFCURVE",
"169 544 OFFCURVE",
"216 544 CURVE",
"216 429 LINE",
"207 419 OFFCURVE",
"193 405 OFFCURVE",
"173 405 CURVE SMOOTH"
);
}
);
};
layerId = "849A9C4C-BF7C-40C5-8614-1FD725A2A379";
paths = (
{
closed = 1;
nodes = (
"114 600 OFFCURVE",
"23 561 OFFCURVE",
"23 448 CURVE SMOOTH",
"23 372 OFFCURVE",
"65 324 OFFCURVE",
"131.145 324.491 CURVE SMOOTH",
"184 325 OFFCURVE",
"222 356 OFFCURVE",
"230 403 CURVE",
"218 453 LINE",
"218.251 429.618 OFFCURVE",
"199 407 OFFCURVE",
"173 407 CURVE SMOOTH",
"148 407 OFFCURVE",
"130 425 OFFCURVE",
"130 463 CURVE SMOOTH",
"130 507 OFFCURVE",
"164 540 OFFCURVE",
"218 540 CURVE",
"218 600 LINE"
);
},
{
closed = 1;
nodes = (
"225.009 372.549 OFFCURVE",
"228.013 353.025 OFFCURVE",
"235.522 332 CURVE",
"346 332 LINE",
"334 366 OFFCURVE",
"331 395 OFFCURVE",
"331 436 CURVE SMOOTH",
"331 606 LINE SMOOTH",
"331 706 OFFCURVE",
"287 768 OFFCURVE",
"185 768 CURVE SMOOTH",
"94 768 OFFCURVE",
"45 717 OFFCURVE",
"38 643 CURVE",
"144 625 LINE",
"146 655 OFFCURVE",
"154 682 OFFCURVE",
"181 682 CURVE SMOOTH",
"212 682 OFFCURVE",
"218.251 649.634 OFFCURVE",
"218.251 617.345 CURVE SMOOTH",
"218.251 396.578 LINE",
"225.009 396.578 LINE"
);
}
);
width = 378;
}
);
unicode = 00AA;
},
{
color = 4;
glyphname = ordmasculine;
lastChange = "2017-07-04 21:08:28 +0000";
layers = (
{
anchors = (
{
name = bottom;
position = "{223, 331}";
},
{
name = center;
position = "{227, 544}";
},
{
name = ogonek;
position = "{359, 335}";
},
{
name = top;
position = "{227, 759}";
},
{
name = topright;
position = "{402, 759}";
}
);
background = {
paths = (
{
closed = 1;
nodes = (
"354 376 OFFCURVE",
"421 458 OFFCURVE",
"421 573 CURVE SMOOTH",
"421 686 OFFCURVE",
"355 769 OFFCURVE",
"228 769 CURVE SMOOTH",
"102 769 OFFCURVE",
"38 686 OFFCURVE",
"38 573 CURVE SMOOTH",
"38 458 OFFCURVE",
"103 376 OFFCURVE",
"228 376 CURVE SMOOTH"
);
},
{
closed = 1;
nodes = (
"183 471 OFFCURVE",
"159 525 OFFCURVE",
"159 576 CURVE SMOOTH",
"159 628 OFFCURVE",
"182 679 OFFCURVE",
"229 679 CURVE SMOOTH",
"276 679 OFFCURVE",
"299 627 OFFCURVE",
"299 575 CURVE SMOOTH",
"299 522 OFFCURVE",
"275 471 OFFCURVE",
"229 471 CURVE SMOOTH"
);
}
);
};
layerId = "849A9C4C-BF7C-40C5-8614-1FD725A2A379";
paths = (
{
closed = 1;
nodes = (
"334 325 OFFCURVE",
"404 407 OFFCURVE",
"404 547 CURVE SMOOTH",
"404 679 OFFCURVE",
"334 766 OFFCURVE",
"226 766 CURVE SMOOTH",
"118 766 OFFCURVE",
"50 677 OFFCURVE",
"50 547 CURVE SMOOTH",
"50 408 OFFCURVE",
"118 325 OFFCURVE",
"226 325 CURVE SMOOTH"
);
},
{
closed = 1;
nodes = (
"184 407 OFFCURVE",
"168 465 OFFCURVE",
"168 545 CURVE SMOOTH",
"168 615 OFFCURVE",
"184 679 OFFCURVE",
"226 679 CURVE SMOOTH",
"271 679 OFFCURVE",
"287 615 OFFCURVE",
"287 545 CURVE SMOOTH",
"287 465 OFFCURVE",
"271 407 OFFCURVE",
"226 407 CURVE SMOOTH"
);
}
);
width = 454;
}
);
unicode = 00BA;
},
{
glyphname = pi;
lastChange = "2017-07-14 02:49:47 +0000";
layers = (
{
layerId = "849A9C4C-BF7C-40C5-8614-1FD725A2A379";
paths = (
{
closed = 1;
nodes = (
"11 443 LINE",
"580 443 LINE",
"580 563 LINE",
"11 563 LINE"
);
}
);
width = 600;
}
);
unicode = 03C0;
},
{
color = 4;
glyphname = zero;
lastChange = "2017-07-13 00:54:39 +0000";
layers = (
{
anchors = (
{
name = center;
position = "{280, 383}";
}
);
background = {
components = (
{
name = O;
transform = "{1, 0, 0, 1, -8, 0}";
}
);
paths = (
{
closed = 1;
nodes = (
"85 764 OFFCURVE",
"47 557 OFFCURVE",
"47 382 CURVE SMOOTH",
"47 183 OFFCURVE",
"85 -14 OFFCURVE",
"279 -14 CURVE SMOOTH",
"474 -14 OFFCURVE",
"509 183 OFFCURVE",
"509 382 CURVE SMOOTH",
"509 557 OFFCURVE",
"474 764 OFFCURVE",
"279 764 CURVE SMOOTH"
);
},
{
closed = 1;
nodes = (
"345 644 OFFCURVE",
"361 533 OFFCURVE",
"361 382 CURVE SMOOTH",
"361 217 OFFCURVE",
"345 105 OFFCURVE",
"279 105 CURVE SMOOTH",
"214 105 OFFCURVE",
"194 217 OFFCURVE",
"194 382 CURVE SMOOTH",
"194 533 OFFCURVE",
"214 644 OFFCURVE",
"279 644 CURVE SMOOTH"
);
}
);
};
layerId = "849A9C4C-BF7C-40C5-8614-1FD725A2A379";
paths = (
{
closed = 1;
nodes = (
"471 -14 OFFCURVE",
"510 193 OFFCURVE",
"510 371 CURVE SMOOTH",
"510 567 OFFCURVE",
"471 764 OFFCURVE",
"277 764 CURVE SMOOTH",
"82 764 OFFCURVE",
"46 567 OFFCURVE",
"46 371 CURVE SMOOTH",
"46 193 OFFCURVE",
"82 -14 OFFCURVE",
"277 -14 CURVE SMOOTH"
);
},
{
closed = 1;
nodes = (
"211 106 OFFCURVE",
"194 217 OFFCURVE",
"194 371 CURVE SMOOTH",
"194 533 OFFCURVE",
"211 645 OFFCURVE",
"277 645 CURVE SMOOTH",
"342 645 OFFCURVE",
"363 533 OFFCURVE",
"363 371 CURVE SMOOTH",
"363 217 OFFCURVE",
"342 106 OFFCURVE",
"277 106 CURVE SMOOTH"
);
}
);
width = 556;
}
);
unicode = 0030;
},
{
color = 4;
glyphname = one;
lastChange = "2017-07-06 04:56:57 +0000";
layers = (
{
guideLines = (
{
angle = 97;
position = "{7, 650}";
},
{
angle = 7;
position = "{250, 750}";
},
{
angle = -7;
position = "{180, 758}";
}
);
layerId = "849A9C4C-BF7C-40C5-8614-1FD725A2A379";
paths = (
{
closed = 1;
nodes = (
"247 0 LINE",
"247 749 LINE",
"176 758 LINE",
"143 699 OFFCURVE",
"94 665 OFFCURVE",
"7 650 CURVE",
"21 536 LINE",
"55 538 OFFCURVE",
"84 544 OFFCURVE",
"110 554 CURVE",
"110 0 LINE"
);
}
);
width = 317;
}
);
rightMetricsKey = H;
unicode = 0031;
},
{
color = 4;
glyphname = two;
lastChange = "2017-07-14 02:47:25 +0000";
layers = (
{
guideLines = (
{
angle = -12;
position = "{174, 505}";
},
{
angle = 97;
position = "{68, 0}";
},
{
angle = 83;
position = "{464, 0}";
}
);
layerId = "849A9C4C-BF7C-40C5-8614-1FD725A2A379";
paths = (
{
closed = 1;
nodes = (
"464 0 LINE",
"479 118 LINE",
"210 118 LINE",
"370 249 OFFCURVE",
"475 397 OFFCURVE",
"475 541 CURVE SMOOTH",
"475 681 OFFCURVE",
"402 764 OFFCURVE",
"264 764 CURVE SMOOTH",
"118 764 OFFCURVE",
"57 651 OFFCURVE",
"57 528 CURVE",
"177 504 LINE",
"176 584 OFFCURVE",
"203 647 OFFCURVE",
"256 647 CURVE SMOOTH",
"307 647 OFFCURVE",
"326 606 OFFCURVE",
"326 534 CURVE SMOOTH",
"326 403 OFFCURVE",
"202 232 OFFCURVE",
"55 107 CURVE",
"68 0 LINE"
);
}
);
width = 521;
}
);
unicode = 0032;
},
{
color = 4;
glyphname = three;
lastChange = "2017-07-08 03:17:42 +0000";
layers = (
{
guideLines = (
{
angle = -12;
position = "{170, 547}";
},
{
angle = 192;
position = "{46, 184}";
}
);
layerId = "849A9C4C-BF7C-40C5-8614-1FD725A2A379";
paths = (
{
closed = 1;
nodes = (
"384 -14 OFFCURVE",
"467 86 OFFCURVE",
"467 215 CURVE SMOOTH",
"467 312 OFFCURVE",
"435 379 OFFCURVE",
"355 417 CURVE",
"420 446 OFFCURVE",
"455 507 OFFCURVE",
"455 574 CURVE SMOOTH",
"455 702 OFFCURVE",
"360 764 OFFCURVE",
"251 764 CURVE SMOOTH",
"137 764 OFFCURVE",
"57 687 OFFCURVE",
"53 567 CURVE",
"168 544 LINE",
"173 605 OFFCURVE",
"196 647 OFFCURVE",
"243 647 CURVE SMOOTH",
"290 647 OFFCURVE",
"314 620 OFFCURVE",
"314 561 CURVE SMOOTH",
"313 471 OFFCURVE",
"255 433 OFFCURVE",
"179 435 CURVE",
"179 340 LINE",
"288 335 OFFCURVE",
"329 289 OFFCURVE",
"329 206 CURVE SMOOTH",
"329 160 OFFCURVE",
"312 104 OFFCURVE",
"247 104 CURVE SMOOTH",
"191 104 OFFCURVE",
"157 137 OFFCURVE",
"157 218 CURVE",
"47 194 LINE",
"42 63 OFFCURVE",
"126 -14 OFFCURVE",
"251 -14 CURVE SMOOTH"
);
}
);
width = 521;
}
);
unicode = 0033;
},
{
color = 4;
glyphname = four;
lastChange = "2017-07-04 21:09:01 +0000";
layers = (
{
guideLines = (
{
angle = -7;
position = "{259, 764}";
},
{
angle = 97;
position = "{25, 299}";
}
);
layerId = "849A9C4C-BF7C-40C5-8614-1FD725A2A379";
paths = (
{
closed = 1;
nodes = (
"416 0 LINE",
"416 163 LINE",
"498 163 LINE",
"510 275 LINE",
"415 275 LINE",
"415 745 LINE",
"259 764 LINE",
"195 600 OFFCURVE",
"111 410 OFFCURVE",
"23 275 CURVE",
"37 163 LINE",
"277 163 LINE",
"277 0 LINE"
);
},
{
closed = 1;
nodes = (
"190 366 OFFCURVE",
"240 477 OFFCURVE",
"279 591 CURVE",
"279 275 LINE",
"134 275 LINE"
);
}
);
width = 521;
}
);
unicode = 0034;
},
{
color = 4;
glyphname = five;
lastChange = "2017-07-10 00:43:17 +0000";
layers = (
{
background = {
components = (
{
name = three;
transform = "{1, 0, 0, 1, 12, 0}";
}
);
};
guideLines = (
{
angle = 192;
position = "{51, 187}";
},
{
angle = 168;
position = "{175, 319}";
},
{
angle = 83;
position = "{450, 633}";
},
{
angle = 83;
position = "{222, 633}";
},
{
angle = 83;
position = "{110, 750}";
}
);
layerId = "849A9C4C-BF7C-40C5-8614-1FD725A2A379";
paths = (
{
closed = 1;
nodes = (
"407 -14 OFFCURVE",
"487 99 OFFCURVE",
"487 245 CURVE SMOOTH",
"487 375 OFFCURVE",
"424 478 OFFCURVE",
"305 478 CURVE SMOOTH",
"258 478 OFFCURVE",
"211 457 OFFCURVE",
"190 421 CURVE",
"218 634 LINE",
"448 633 LINE",
"463 750 LINE",
"109 750 LINE",
"63 345 LINE",
"175 321 LINE",
"194 351 OFFCURVE",
"222 367 OFFCURVE",
"258 367 CURVE SMOOTH",
"317 367 OFFCURVE",
"348 311 OFFCURVE",
"348 244 CURVE SMOOTH",
"348 162 OFFCURVE",
"322 104 OFFCURVE",
"257 104 CURVE SMOOTH",
"206 104 OFFCURVE",
"168 133 OFFCURVE",
"164 211 CURVE",
"51 187 LINE",
"56 44 OFFCURVE",
"151 -14 OFFCURVE",
"258 -14 CURVE SMOOTH"
);
}
);
width = 521;
}
);
unicode = 0035;
},
{
color = 4;
glyphname = six;
lastChange = "2017-07-13 00:53:04 +0000";
layers = (
{
background = {
components = (
{
name = C;
transform = "{1, 0, 0, 1, -8, 0}";
}
);
};
layerId = "849A9C4C-BF7C-40C5-8614-1FD725A2A379";
paths = (
{
closed = 1;
nodes = (
"410 -14 OFFCURVE",
"494 102 OFFCURVE",
"494 233 CURVE SMOOTH",
"494 379 OFFCURVE",
"421 464 OFFCURVE",
"312 464 CURVE SMOOTH",
"247 464 OFFCURVE",
"203 425 OFFCURVE",
"181 375 CURVE",
"184 547 OFFCURVE",
"211 649 OFFCURVE",
"281 649 CURVE SMOOTH",
"338 649 OFFCURVE",
"358 600 OFFCURVE",
"363 534 CURVE",
"483 562 LINE",
"470 682 OFFCURVE",
"415 764 OFFCURVE",
"285 764 CURVE SMOOTH",
"94 764 OFFCURVE",
"40 571 OFFCURVE",
"40 359 CURVE SMOOTH",
"40 133 OFFCURVE",
"105 -14 OFFCURVE",
"277 -14 CURVE SMOOTH"
);
},
{
closed = 1;
nodes = (
"213 101 OFFCURVE",
"187 186 OFFCURVE",
"187 265 CURVE SMOOTH",
"187 312 OFFCURVE",
"218 366 OFFCURVE",
"275 366 CURVE SMOOTH",
"335 366 OFFCURVE",
"354 308 OFFCURVE",
"354 233 CURVE SMOOTH",
"354 159 OFFCURVE",
"331 101 OFFCURVE",
"280 101 CURVE SMOOTH"
);
}
);
width = 533;
}
);
leftMetricsKey = O;
unicode = 0036;
},
{
color = 4;
glyphname = seven;
lastChange = "2017-07-01 17:03:26 +0000";
layers = (
{
guideLines = (
{
angle = -78;
position = "{429, 657}";
}
);
layerId = "849A9C4C-BF7C-40C5-8614-1FD725A2A379";
paths = (
{
closed = 1;
nodes = (
"261 0 LINE",
"261 242 OFFCURVE",
"321 468 OFFCURVE",
"431 648 CURVE",
"409 750 LINE",
"12 750 LINE",
"12 634 LINE",
"309 634 LINE",
"192 467 OFFCURVE",
"126 258 OFFCURVE",
"112 0 CURVE"
);
}
);
width = 456;
}
);
unicode = 0037;
},
{
color = 4;
glyphname = eight;
lastChange = "2017-07-14 02:47:40 +0000";
layers = (
{
layerId = "849A9C4C-BF7C-40C5-8614-1FD725A2A379";
paths = (
{
closed = 1;
nodes = (
"380 -14 OFFCURVE",
"485 72 OFFCURVE",
"485 210 CURVE SMOOTH",
"485 318 OFFCURVE",
"421 368 OFFCURVE",
"338 419 CURVE",
"346 398 LINE",
"408 438 OFFCURVE",
"458 501 OFFCURVE",
"458 586 CURVE SMOOTH",
"458 696 OFFCURVE",
"369 764 OFFCURVE",
"265 764 CURVE SMOOTH",
"149 764 OFFCURVE",
"58 681 OFFCURVE",
"58 556 CURVE SMOOTH",
"58 478 OFFCURVE",
"97 418 OFFCURVE",
"176 376 CURVE",
"172 394 LINE",
"96 352 OFFCURVE",
"36 283 OFFCURVE",
"36 184 CURVE SMOOTH",
"36 50 OFFCURVE",
"146 -14 OFFCURVE",
"255 -14 CURVE SMOOTH"
);
},
{
closed = 1;
nodes = (
"210 109 OFFCURVE",
"177 143 OFFCURVE",
"177 207 CURVE SMOOTH",
"177 271 OFFCURVE",
"210 309 OFFCURVE",
"255 338 CURVE",
"228 335 LINE",
"287 310 OFFCURVE",
"345 269 OFFCURVE",
"345 197 CURVE SMOOTH",
"345 136 OFFCURVE",
"308 109 OFFCURVE",
"261 109 CURVE SMOOTH"
);
},
{
closed = 1;
nodes = (
"276 456 LINE",
"242 474 OFFCURVE",
"194 516 OFFCURVE",
"194 572 CURVE SMOOTH",
"194 620 OFFCURVE",
"222 650 OFFCURVE",
"265 650 CURVE SMOOTH",
"312 650 OFFCURVE",
"335 616 OFFCURVE",
"335 572 CURVE SMOOTH",
"335 516 OFFCURVE",
"302 480 OFFCURVE",
"263 451 CURVE"
);
}
);
width = 521;
}
);
unicode = 0038;
},
{
color = 4;
glyphname = nine;
lastChange = "2017-07-13 00:53:08 +0000";
layers = (
{
layerId = "849A9C4C-BF7C-40C5-8614-1FD725A2A379";
paths = (
{
closed = 1;
nodes = (
"117 765 OFFCURVE",
"37 649 OFFCURVE",
"37 509 CURVE SMOOTH",
"37 364 OFFCURVE",
"120 277 OFFCURVE",
"223 277 CURVE SMOOTH",
"291 277 OFFCURVE",
"335 310 OFFCURVE",
"351 359 CURVE",
"352 238 OFFCURVE",
"352 104 OFFCURVE",
"259 104 CURVE SMOOTH",
"201 104 OFFCURVE",
"177 147 OFFCURVE",
"166 206 CURVE",
"47 181 LINE",
"56 73 OFFCURVE",
"130 -13 OFFCURVE",
"253 -13 CURVE SMOOTH",
"402 -13 OFFCURVE",
"490 92 OFFCURVE",
"490 386 CURVE SMOOTH",
"490 610 OFFCURVE",
"438 765 OFFCURVE",
"257 765 CURVE SMOOTH"
);
},
{
closed = 1;
nodes = (
"324 651 OFFCURVE",
"347 559 OFFCURVE",
"347 483 CURVE SMOOTH",
"347 427 OFFCURVE",
"308 380 OFFCURVE",
"260 380 CURVE SMOOTH",
"204 380 OFFCURVE",
"177 438 OFFCURVE",
"177 509 CURVE SMOOTH",
"177 581 OFFCURVE",
"197 651 OFFCURVE",
"260 651 CURVE SMOOTH"
);
}
);
width = 526;
}
);
unicode = 0039;
},
{
color = 4;
glyphname = four.001;
lastChange = "2017-07-03 23:52:56 +0000";
layers = (
{
guideLines = (
{
angle = -7;
position = "{391, 752}";
},
{
angle = 97;
position = "{25, 299}";
}
);
layerId = "849A9C4C-BF7C-40C5-8614-1FD725A2A379";
paths = (
{
closed = 1;
nodes = (
"279 426 LINE",
"279 277 LINE",
"150 277 LINE",
"227 391 OFFCURVE",
"335 612 OFFCURVE",
"391 752 CURVE",
"289 764 LINE",
"237 630 OFFCURVE",
"124 423 OFFCURVE",
"25 277 CURVE",
"39 165 LINE",
"277 165 LINE",
"277 0 LINE",
"416 0 LINE",
"416 165 LINE",
"498 165 LINE",
"510 277 LINE",
"415 277 LINE",
"415 443 LINE"
);
}
);
width = 521;
}
);
},
{
color = 4;
glyphname = one.ori;
lastChange = "2017-06-28 01:31:05 +0000";
layers = (
{
layerId = "849A9C4C-BF7C-40C5-8614-1FD725A2A379";
paths = (
{
closed = 1;
nodes = (
"411 123 LINE",
"313 123 LINE",
"313 750 LINE",
"241 750 LINE",
"70 650 LINE",
"70 545 LINE",
"173 567 LINE",
"173 123 LINE",
"77 123 LINE",
"77 0 LINE",
"405 0 LINE"
);
}
);
width = 454;
}
);
},
{
color = 4;
glyphname = six.ori;
lastChange = "2017-06-28 02:00:51 +0000";
layers = (
{
layerId = "849A9C4C-BF7C-40C5-8614-1FD725A2A379";
paths = (
{
closed = 1;
nodes = (
"399 -14 OFFCURVE",
"480 118 OFFCURVE",
"480 245 CURVE SMOOTH",
"480 359 OFFCURVE",
"416 456 OFFCURVE",
"312 456 CURVE SMOOTH",
"271 456 OFFCURVE",
"228 440 OFFCURVE",
"197 417 CURVE",
"197 498 OFFCURVE",
"204 646 OFFCURVE",
"285 646 CURVE SMOOTH",
"336 646 OFFCURVE",
"344 587 OFFCURVE",
"351 557 CURVE",
"460 582 LINE",
"444 698 OFFCURVE",
"379 764 OFFCURVE",
"289 764 CURVE SMOOTH",
"134 764 OFFCURVE",
"54 572 OFFCURVE",
"54 354 CURVE SMOOTH",
"54 212 OFFCURVE",
"88 -14 OFFCURVE",
"265 -14 CURVE SMOOTH"
);
},
{
closed = 1;
nodes = (
"217 104 OFFCURVE",
"196 155 OFFCURVE",
"196 261 CURVE SMOOTH",
"196 277 OFFCURVE",
"197 296 OFFCURVE",
"198 315 CURVE",
"227 332 OFFCURVE",
"245 337 OFFCURVE",
"264 337 CURVE SMOOTH",
"322 337 OFFCURVE",
"342 282 OFFCURVE",
"342 227 CURVE SMOOTH",
"342 178 OFFCURVE",
"327 104 OFFCURVE",
"267 104 CURVE SMOOTH"
);
}
);
width = 521;
}
);
},
{
color = 4;
glyphname = nine.ori;
lastChange = "2017-06-28 02:31:53 +0000";
layers = (
{
layerId = "849A9C4C-BF7C-40C5-8614-1FD725A2A379";
paths = (
{
closed = 1;
nodes = (
"383 -14 OFFCURVE",
"473 152 OFFCURVE",
"473 388 CURVE SMOOTH",
"473 533 OFFCURVE",
"439 764 OFFCURVE",
"260 764 CURVE SMOOTH",
"133 764 OFFCURVE",
"49 649 OFFCURVE",
"49 514 CURVE SMOOTH",
"49 398 OFFCURVE",
"112 286 OFFCURVE",
"217 286 CURVE SMOOTH",
"255 286 OFFCURVE",
"300 301 OFFCURVE",
"331 324 CURVE",
"329 219 OFFCURVE",
"318 104 OFFCURVE",
"244 104 CURVE SMOOTH",
"192 104 OFFCURVE",
"184 159 OFFCURVE",
"177 194 CURVE",
"67 168 LINE",
"84 50 OFFCURVE",
"150 -14 OFFCURVE",
"239 -14 CURVE SMOOTH"
);
},
{
closed = 1;
nodes = (
"207 404 OFFCURVE",
"189 463 OFFCURVE",
"189 518 CURVE SMOOTH",
"189 569 OFFCURVE",
"205 646 OFFCURVE",
"262 646 CURVE SMOOTH",
"324 646 OFFCURVE",
"333 554 OFFCURVE",
"333 476 CURVE SMOOTH",
"333 458 OFFCURVE",
"333 445 OFFCURVE",
"331 426 CURVE",
"314 415 OFFCURVE",
"293 404 OFFCURVE",
"267 404 CURVE SMOOTH"
);
}
);
width = 521;
}
);
},
{
glyphname = zero.osf;
lastChange = "2017-07-13 01:21:19 +0000";
layers = (
{
layerId = "849A9C4C-BF7C-40C5-8614-1FD725A2A379";
paths = (
{
closed = 1;
nodes = (
"385 -10 OFFCURVE",
"448 107 OFFCURVE",
"448 283 CURVE SMOOTH",
"448 451 OFFCURVE",
"385 571 OFFCURVE",
"239 571 CURVE SMOOTH",
"91 571 OFFCURVE",
"32 449 OFFCURVE",
"32 283 CURVE SMOOTH",
"32 108 OFFCURVE",
"92 -10 OFFCURVE",
"239 -10 CURVE SMOOTH"
);
},
{
closed = 1;
nodes = (
"177 91 OFFCURVE",
"164 173 OFFCURVE",
"164 280 CURVE SMOOTH",
"164 378 OFFCURVE",
"176 464 OFFCURVE",
"239 464 CURVE SMOOTH",
"302 464 OFFCURVE",
"316 377 OFFCURVE",
"316 280 CURVE SMOOTH",
"316 173 OFFCURVE",
"302 91 OFFCURVE",
"239 91 CURVE SMOOTH"
);
}
);
width = 480;
}
);
},
{
glyphname = one.osf;
lastChange = "2017-07-07 04:15:10 +0000";
layers = (
{
layerId = "849A9C4C-BF7C-40C5-8614-1FD725A2A379";
paths = (
{
closed = 1;
nodes = (
"266 0 LINE",
"266 563 LINE",
"194 572 LINE",
"151 529 OFFCURVE",
"89 500 OFFCURVE",
"8 491 CURVE",
"30 386 LINE",
"66 388 OFFCURVE",
"100 394 OFFCURVE",
"132 404 CURVE",
"132 0 LINE"
);
}
);
width = 328;
}
);
},
{
glyphname = two.osf;
lastChange = "2017-07-13 01:21:52 +0000";
layers = (
{
guideLines = (
{
angle = -11.7456;
position = "{42, 372}";
}
);
layerId = "849A9C4C-BF7C-40C5-8614-1FD725A2A379";
paths = (
{
closed = 1;
nodes = (
"421 0 LINE",
"436 118 LINE",
"214 118 LINE",
"337 178 OFFCURVE",
"418 274 OFFCURVE",
"418 389 CURVE SMOOTH",
"418 491 OFFCURVE",
"356 575 OFFCURVE",
"234 575 CURVE SMOOTH",
"110 575 OFFCURVE",
"42 487 OFFCURVE",
"39 372 CURVE",
"152 349 LINE",
"154 419 OFFCURVE",
"187 466 OFFCURVE",
"226 466 CURVE SMOOTH",
"265 466 OFFCURVE",
"284 431 OFFCURVE",
"284 387 CURVE SMOOTH",
"284 291 OFFCURVE",
"172 182 OFFCURVE",
"42 96 CURVE",
"52 0 LINE"
);
}
);
width = 468;
}
);
},
{
glyphname = three.osf;
lastChange = "2017-07-13 01:23:19 +0000";
layers = (
{
layerId = "849A9C4C-BF7C-40C5-8614-1FD725A2A379";
paths = (
{
closed = 1;
nodes = (
"359 -176 OFFCURVE",
"441 -83 OFFCURVE",
"441 52 CURVE SMOOTH",
"441 143 OFFCURVE",
"401 207 OFFCURVE",
"329 238 CURVE",
"398 267 OFFCURVE",
"426 336 OFFCURVE",
"426 400 CURVE SMOOTH",
"426 487 OFFCURVE",
"371 573 OFFCURVE",
"233 573 CURVE SMOOTH",
"105 573 OFFCURVE",
"44 484 OFFCURVE",
"38 373 CURVE",
"151 350 LINE",
"159 417 OFFCURVE",
"180 464 OFFCURVE",
"226 464 CURVE SMOOTH",
"268 464 OFFCURVE",
"290 429 OFFCURVE",
"290 380 CURVE SMOOTH",
"290 314 OFFCURVE",
"252 263 OFFCURVE",
"177 263 CURVE",
"177 175 LINE",
"261 172 OFFCURVE",
"308 136 OFFCURVE",
"308 50 CURVE SMOOTH",
"308 -22 OFFCURVE",
"275 -67 OFFCURVE",
"225 -67 CURVE SMOOTH",
"179 -67 OFFCURVE",
"141 -37 OFFCURVE",
"135 31 CURVE",
"22 6 LINE",
"29 -113 OFFCURVE",
"119 -176 OFFCURVE",
"219 -176 CURVE SMOOTH"
);
}
);
width = 471;
}
);
},
{
glyphname = four.osf;
lastChange = "2017-07-13 00:50:04 +0000";
layers = (
{
layerId = "849A9C4C-BF7C-40C5-8614-1FD725A2A379";
paths = (
{
closed = 1;
nodes = (
"302 243 LINE",
"302 106 LINE",
"175 106 LINE",
"252 239 OFFCURVE",
"322 396 OFFCURVE",
"388 540 CURVE",
"266 578 LINE",
"201 427 OFFCURVE",
"123 257 OFFCURVE",
"30 97 CURVE",
"42 0 LINE",
"302 0 LINE",
"302 -173 LINE",
"437 -157 LINE",
"437 0 LINE",
"509 0 LINE",
"519 106 LINE",
"436 106 LINE",
"436 260 LINE"
);
}
);
width = 550;
}
);
},
{
glyphname = five.osf;
lastChange = "2017-07-13 01:25:20 +0000";
layers = (
{
layerId = "849A9C4C-BF7C-40C5-8614-1FD725A2A379";
paths = (
{
closed = 1;
nodes = (
"348 -175 OFFCURVE",
"458 -86 OFFCURVE",
"458 80 CURVE SMOOTH",
"458 207 OFFCURVE",
"399 310 OFFCURVE",
"288 310 CURVE SMOOTH",
"232 310 OFFCURVE",
"193 283 OFFCURVE",
"173 250 CURVE",
"187 446 LINE",
"411 446 LINE",
"426 563 LINE",
"79 563 LINE",
"49 177 LINE",
"163 144 LINE",
"180 184 OFFCURVE",
"202 209 OFFCURVE",
"241 209 CURVE SMOOTH",
"305 209 OFFCURVE",
"327 134 OFFCURVE",
"327 68 CURVE SMOOTH",
"327 -14 OFFCURVE",
"293 -66 OFFCURVE",
"234 -66 CURVE SMOOTH",
"185 -66 OFFCURVE",
"150 -28 OFFCURVE",
"147 25 CURVE",
"38 3 LINE",
"44 -111 OFFCURVE",
"128 -175 OFFCURVE",
"234 -175 CURVE SMOOTH"
);
}
);
width = 480;
}
);
},
{
glyphname = six.osf;
lastChange = "2017-07-13 00:46:51 +0000";
layers = (
{
layerId = "849A9C4C-BF7C-40C5-8614-1FD725A2A379";
paths = (
{
closed = 1;
nodes = (
"403 -14 OFFCURVE",
"479 95 OFFCURVE",
"479 233 CURVE SMOOTH",
"479 395 OFFCURVE",
"405 455 OFFCURVE",
"300 455 CURVE SMOOTH",
"240 455 OFFCURVE",
"193 421 OFFCURVE",
"169 361 CURVE",
"173 508 OFFCURVE",
"203 628 OFFCURVE",
"279 628 CURVE SMOOTH",
"328 628 OFFCURVE",
"349 584 OFFCURVE",
"361 530 CURVE",
"469 555 LINE",
"455 661 OFFCURVE",
"402 734 OFFCURVE",
"279 734 CURVE SMOOTH",
"112 734 OFFCURVE",
"38 568 OFFCURVE",
"38 338 CURVE SMOOTH",
"38 106 OFFCURVE",
"113 -14 OFFCURVE",
"265 -14 CURVE SMOOTH"
);
},
{
closed = 1;
nodes = (
"214 96 OFFCURVE",
"181 153 OFFCURVE",
"180 250 CURVE",
"181 294 OFFCURVE",
"214 363 OFFCURVE",
"268 363 CURVE SMOOTH",
"318 363 OFFCURVE",
"349 324 OFFCURVE",
"349 233 CURVE SMOOTH",
"349 153 OFFCURVE",
"322 96 OFFCURVE",
"268 96 CURVE SMOOTH"
);
}
);
width = 515;
}
);
},
{
glyphname = seven.osf;
lastChange = "2017-07-13 00:36:59 +0000";
layers = (
{
layerId = "849A9C4C-BF7C-40C5-8614-1FD725A2A379";
paths = (
{
closed = 1;
nodes = (
"184 -189 LINE",
"247 28 OFFCURVE",
"340 292 OFFCURVE",
"413 492 CURVE",
"398 563 LINE",
"20 563 LINE",
"20 445 LINE",
"283 445 LINE",
"208 274 OFFCURVE",
"134 90 OFFCURVE",
"56 -160 CURVE"
);
}
);
width = 428;
}
);
},
{
glyphname = eight.osf;
lastChange = "2017-07-13 00:49:06 +0000";
layers = (
{
layerId = "849A9C4C-BF7C-40C5-8614-1FD725A2A379";
paths = (
{
closed = 1;
nodes = (
"397 -14 OFFCURVE",
"477 86 OFFCURVE",
"477 197 CURVE SMOOTH",
"477 306 OFFCURVE",
"415 354 OFFCURVE",
"335 403 CURVE",
"349 378 LINE",
"416 421 OFFCURVE",
"455 475 OFFCURVE",
"455 556 CURVE SMOOTH",
"455 670 OFFCURVE",
"365 735 OFFCURVE",
"265 735 CURVE SMOOTH",
"153 735 OFFCURVE",
"65 655 OFFCURVE",
"65 535 CURVE SMOOTH",
"65 456 OFFCURVE",
"108 393 OFFCURVE",
"188 353 CURVE",
"178 378 LINE",
"94 332 OFFCURVE",
"44 265 OFFCURVE",
"44 173 CURVE SMOOTH",
"44 54 OFFCURVE",
"142 -14 OFFCURVE",
"258 -14 CURVE SMOOTH"
);
},
{
closed = 1;
nodes = (
"209 94 OFFCURVE",
"180 134 OFFCURVE",
"180 187 CURVE SMOOTH",
"180 244 OFFCURVE",
"205 280 OFFCURVE",
"251 320 CURVE",
"229 315 LINE",
"296 282 OFFCURVE",
"341 251 OFFCURVE",
"341 184 CURVE SMOOTH",
"341 131 OFFCURVE",
"311 94 OFFCURVE",
"261 94 CURVE SMOOTH"
);
},
{
closed = 1;
nodes = (
"288 432 LINE",
"232 464 OFFCURVE",
"196 494 OFFCURVE",
"196 550 CURVE SMOOTH",
"196 597 OFFCURVE",
"224 629 OFFCURVE",
"267 629 CURVE SMOOTH",
"311 629 OFFCURVE",
"339 593 OFFCURVE",
"339 550 CURVE SMOOTH",
"339 500 OFFCURVE",
"317 468 OFFCURVE",
"269 432 CURVE"
);
}
);
width = 521;
}
);
},
{
glyphname = nine.osf;
lastChange = "2017-07-13 01:25:26 +0000";
layers = (
{
layerId = "849A9C4C-BF7C-40C5-8614-1FD725A2A379";
paths = (
{
closed = 1;
nodes = (
"113 573 OFFCURVE",
"38 457 OFFCURVE",
"38 317 CURVE SMOOTH",
"38 172 OFFCURVE",
"114 85 OFFCURVE",
"217 85 CURVE SMOOTH",
"275 85 OFFCURVE",
"328 116 OFFCURVE",
"345 167 CURVE",
"346 25 OFFCURVE",
"321 -68 OFFCURVE",
"248 -68 CURVE SMOOTH",
"190 -68 OFFCURVE",
"161 -24 OFFCURVE",
"154 35 CURVE",
"47 13 LINE",
"52 -95 OFFCURVE",
"123 -175 OFFCURVE",
"248 -175 CURVE SMOOTH",
"386 -175 OFFCURVE",
"478 -66 OFFCURVE",
"478 205 CURVE SMOOTH",
"478 418 OFFCURVE",
"434 573 OFFCURVE",
"253 573 CURVE SMOOTH"
);
},
{
closed = 1;
nodes = (
"317 463 OFFCURVE",
"339 377 OFFCURVE",
"339 287 CURVE SMOOTH",
"339 235 OFFCURVE",
"302 188 OFFCURVE",
"254 188 CURVE SMOOTH",
"198 188 OFFCURVE",
"171 246 OFFCURVE",
"171 317 CURVE SMOOTH",
"171 389 OFFCURVE",
"194 463 OFFCURVE",
"254 463 CURVE SMOOTH"
);
}
);
width = 513;
}
);
},
{
glyphname = zero.zero;
lastChange = "2017-07-03 23:36:56 +0000";
layers = (
{
anchors = (
{
name = center;
position = "{279, 383}";
}
);
layerId = "849A9C4C-BF7C-40C5-8614-1FD725A2A379";
paths = (
{
closed = 1;
nodes = (
"113 -48 LINE",
"204 127 LINE",
"218 144 LINE",
"435 604 LINE",
"458 620 LINE",
"533 761 LINE",
"446 799 LINE",
"352 620 LINE",
"342 604 LINE",
"123 144 LINE",
"97 127 LINE",
"30 0 LINE"
);
},
{
closed = 1;
nodes = (
"470 -14 OFFCURVE",
"508 193 OFFCURVE",
"508 368 CURVE SMOOTH",
"508 567 OFFCURVE",
"463 764 OFFCURVE",
"276 764 CURVE SMOOTH",
"81 764 OFFCURVE",
"46 567 OFFCURVE",
"46 368 CURVE SMOOTH",
"46 193 OFFCURVE",
"88 -14 OFFCURVE",
"276 -14 CURVE SMOOTH"
);
},
{
closed = 1;
nodes = (
"210 105 OFFCURVE",
"188 217 OFFCURVE",
"188 368 CURVE SMOOTH",
"188 533 OFFCURVE",
"210 645 OFFCURVE",
"276 645 CURVE SMOOTH",
"341 645 OFFCURVE",
"368 533 OFFCURVE",
"368 368 CURVE SMOOTH",
"368 217 OFFCURVE",
"341 105 OFFCURVE",
"276 105 CURVE SMOOTH"
);
}
);
width = 556;
}
);
},
{
color = 4;
glyphname = onesuperior;
lastChange = "2017-07-03 22:37:19 +0000";
layers = (
{
layerId = "849A9C4C-BF7C-40C5-8614-1FD725A2A379";
paths = (
{
closed = 1;
nodes = (
"329 283 LINE",
"341 377 LINE",
"255 377 LINE",
"255 752 LINE",
"201 759 LINE",
"172 702 OFFCURVE",
"115 667 OFFCURVE",
"43 658 CURVE",
"54 569 LINE",
"81 571 OFFCURVE",
"117 580 OFFCURVE",
"138 590 CURVE",
"138 377 LINE",
"61 377 LINE",
"61 283 LINE"
);
}
);
width = 373;
}
);
unicode = 00B9;
},
{
color = 4;
glyphname = twosuperior;
lastChange = "2017-07-03 23:19:46 +0000";
layers = (
{
guideLines = (
{
angle = -12;
position = "{146, 598}";
}
);
layerId = "849A9C4C-BF7C-40C5-8614-1FD725A2A379";
paths = (
{
closed = 1;
nodes = (
"339 283 LINE",
"350 377 LINE",
"192 377 LINE",
"285 447 OFFCURVE",
"346 532 OFFCURVE",
"346 615 CURVE SMOOTH",
"346 704 OFFCURVE",
"295 766 OFFCURVE",
"196 766 CURVE SMOOTH",
"103 766 OFFCURVE",
"53 701 OFFCURVE",
"49 619 CURVE",
"146 598 LINE",
"147 644 OFFCURVE",
"165 672 OFFCURVE",
"190 672 CURVE SMOOTH",
"216 672 OFFCURVE",
"229 649 OFFCURVE",
"229 614 CURVE SMOOTH",
"229 523 OFFCURVE",
"157 434 OFFCURVE",
"56 361 CURVE",
"66 283 LINE"
);
}
);
width = 410;
}
);
unicode = 00B2;
},
{
color = 4;
glyphname = threesuperior;
lastChange = "2017-07-04 21:09:36 +0000";
layers = (
{
guideLines = (
{
angle = -12;
position = "{140, 622}";
},
{
angle = 12;
position = "{133, 399}";
}
);
layerId = "849A9C4C-BF7C-40C5-8614-1FD725A2A379";
paths = (
{
closed = 1;
nodes = (
"304 269 OFFCURVE",
"348 340 OFFCURVE",
"348 416 CURVE SMOOTH",
"348 482 OFFCURVE",
"315 521 OFFCURVE",
"272 537 CURVE",
"317 555 OFFCURVE",
"339 599 OFFCURVE",
"339 644 CURVE SMOOTH",
"339 716 OFFCURVE",
"291 767 OFFCURVE",
"188 767 CURVE SMOOTH",
"110 767 OFFCURVE",
"52 717 OFFCURVE",
"48 643 CURVE",
"142 623 LINE",
"143 650 OFFCURVE",
"160 677 OFFCURVE",
"189 677 CURVE SMOOTH",
"214 677 OFFCURVE",
"233 656 OFFCURVE",
"233 625 CURVE SMOOTH",
"233 579 OFFCURVE",
"187 559 OFFCURVE",
"141 559 CURVE",
"141 476 LINE",
"199 476 OFFCURVE",
"243 470 OFFCURVE",
"243 418 CURVE SMOOTH",
"243 388 OFFCURVE",
"223 360 OFFCURVE",
"190 360 CURVE SMOOTH",
"166 360 OFFCURVE",
"136 381 OFFCURVE",
"134 415 CURVE",
"44 396 LINE",
"46 326 OFFCURVE",
"96 269 OFFCURVE",
"190 269 CURVE SMOOTH"
);
}
);
width = 418;
}
);
unicode = 00B3;
},
